<svg width="327" height="326" viewBox="0 0 327 326" fill="none" xmlns="http://www.w3.org/2000/svg">
<path d="M40.6478 94.0424C42.3248 98.0129 49.0088 106.162 52.5852 102.417C55.8968 98.0456 42.2752 92.3126 40.6478 94.0424Z" fill="#CE99FF"/>
<path d="M39.7585 93.6818C39.4362 98.8502 37.6639 108.751 33.1536 107.004C31.678 106.302 30.5852 100.435 39.7585 93.6818Z" fill="#CE99FF"/>
<path d="M37.6037 79.5077C40.5356 84.4722 49.2187 93.051 52.2655 88.0525C53.6281 85.6957 47.9341 79.5416 37.6037 79.5077Z" fill="#CE99FF"/>
<path d="M36.6955 79.4511C31.5115 79.7381 22.7307 93.8405 28.6711 96.0423C30.664 96.5736 35.0588 93.999 36.6955 79.4511Z" fill="#CE99FF"/>
<path d="M33.1585 64.2389C27.9744 64.5259 19.1936 78.6283 25.1341 80.8301C27.1269 81.3614 31.5217 78.7869 33.1585 64.2389Z" fill="#CE99FF"/>
<path d="M27.031 54.1262C22.2321 54.3708 14.1332 66.9184 19.6378 68.8933C21.484 69.371 25.5473 67.0864 27.031 54.1262Z" fill="#CE99FF"/>
<path d="M19.9366 39.806C15.2205 40.7325 8.97732 54.307 14.7059 55.4767C16.601 55.6862 20.3004 52.8455 19.9366 39.806Z" fill="#CE99FF"/>
<path d="M14.4134 30.9157C12.4282 30.0195 3.45411 45.4167 9.18264 46.5864C11.0778 46.7959 14.7772 43.9552 14.4134 30.9157Z" fill="#CE99FF"/>
<path d="M51.4602 73.6689C52.4803 71.5475 50.9837 69.0146 46.006 66.6025C41.0284 64.1905 33.4345 64.9341 33.4345 64.9341C33.4345 64.9341 34.5561 70.5129 39.5338 72.925C44.5115 75.337 50.4402 75.7902 51.4602 73.6689Z" fill="#CE99FF"/>
<path d="M35.833 40.5598C36.0318 38.9315 34.4172 37.5914 30.456 37.1058C26.4948 36.6202 21.4883 38.8013 21.4883 38.8013C21.4883 38.8013 23.5609 42.2368 27.5221 42.7224C31.4833 43.208 35.6343 42.1881 35.833 40.5598Z" fill="#CE99FF"/>
<path d="M30.2653 27.5501C30.2581 25.9098 28.3752 24.7854 24.1294 24.8065C19.8836 24.8276 14.8899 27.6265 14.8899 27.6265C14.8899 27.6265 17.5354 30.7712 21.7812 30.7501C26.027 30.729 30.2725 29.1904 30.2653 27.5501Z" fill="#CE99FF"/>
<path d="M45.1372 56.1712C45.6886 53.8817 44.4326 50.9479 39.5596 49.7667C34.6866 48.5854 28.0086 51.0646 28.0086 51.0646C28.0086 51.0646 31.0879 55.9436 35.9609 57.1249C40.8339 58.3062 44.5857 58.4607 45.1372 56.1712Z" fill="#CE99FF"/>
<path fill-rule="evenodd" clip-rule="evenodd" d="M42.773 108.352C43.138 108.316 43.4041 107.99 43.3674 107.625C41.7361 91.3757 35.0446 53.676 7.26226 17.3008C7.03965 17.0094 6.6229 16.9535 6.33144 17.1762C6.03997 17.3988 5.98416 17.8155 6.20678 18.107C33.7857 54.2157 40.4284 91.6459 42.046 107.758C42.0826 108.123 42.4081 108.389 42.773 108.352Z" fill="#CE99FF"/>
<path d="M41.8578 103.884C40.5329 107.261 37.9768 117.377 44.334 117.774C47.3611 117.962 50.6811 110.539 41.8578 103.884Z" fill="#CE99FF"/>
<path fill-rule="evenodd" clip-rule="evenodd" d="M44.6483 115.598C44.7897 115.508 44.8315 115.32 44.7416 115.178C44.0376 114.066 42.769 110.848 43.4793 107.076C43.5105 106.91 43.4023 106.751 43.2377 106.72C43.0731 106.689 42.9144 106.797 42.8833 106.963C42.1395 110.913 43.4582 114.286 44.2296 115.505C44.3195 115.647 44.507 115.689 44.6483 115.598ZM34.3055 106.137C34.4555 106.211 34.6376 106.15 34.7121 105.999C35.1797 105.053 35.889 103.486 36.5011 101.847C37.1099 100.217 37.6359 98.4819 37.7148 97.2168C37.7253 97.0489 37.5983 96.9043 37.4311 96.8939C37.2639 96.8834 37.1199 97.0111 37.1094 97.179C37.0366 98.3461 36.5405 100.007 35.9332 101.633C35.3292 103.25 34.6285 104.799 34.1688 105.728C34.0943 105.879 34.1555 106.062 34.3055 106.137ZM47.217 99.033C45.6745 97.8951 44.1357 96.4672 43.1914 95.5002C43.0741 95.3802 42.8821 95.3783 42.7625 95.4962C42.6428 95.614 42.6409 95.8069 42.7582 95.9269C43.7183 96.91 45.2819 98.3615 46.8577 99.524C47.6451 100.105 48.4443 100.62 49.1787 100.968C49.9007 101.31 50.6124 101.516 51.2025 101.406C51.3672 101.376 51.4762 101.217 51.4458 101.051C51.4154 100.886 51.2572 100.777 51.0925 100.807C50.6987 100.88 50.135 100.747 49.4377 100.417C48.7527 100.093 47.9888 99.6023 47.217 99.033ZM29.3158 93.6184C29.4668 93.6912 29.648 93.6274 29.7206 93.4757L34.2628 83.9923C34.3354 83.8407 34.2719 83.6587 34.121 83.5858C33.97 83.513 33.7888 83.5768 33.7161 83.7285L29.174 93.2119C29.1014 93.3635 29.1649 93.5455 29.3158 93.6184ZM44.6911 84.6288C42.8145 83.5338 41.1094 82.1737 40.117 81.2585C39.9936 81.1447 39.8017 81.153 39.6884 81.2769C39.5751 81.4009 39.5832 81.5936 39.7065 81.7073C40.7256 82.6471 42.4656 84.035 44.3862 85.1557C46.2933 86.2684 48.4377 87.1532 50.2465 87.0078C50.4135 86.9943 50.5381 86.8475 50.5248 86.6798C50.5115 86.5121 50.3654 86.3871 50.1984 86.4005C48.5864 86.5301 46.5812 85.7317 44.6911 84.6288ZM25.6389 78.3952C25.7664 78.5042 25.9578 78.4888 26.0665 78.3608C27.0799 77.1667 29.3259 73.6594 30.3522 69.0311C30.3887 68.8668 30.2856 68.7041 30.1221 68.6676C29.9586 68.6311 29.7966 68.7347 29.7601 68.8989C28.757 73.4224 26.5596 76.8409 25.6049 77.9657C25.4962 78.0938 25.5115 78.2861 25.6389 78.3952ZM41.1445 70.3218C39.1178 69.6808 37.3608 68.6408 36.3701 67.884C36.2368 67.7822 36.0465 67.8082 35.945 67.9421C35.8436 68.0761 35.8694 68.2672 36.0027 68.369C37.0425 69.1632 38.8611 70.2385 40.962 70.9029C43.0605 71.5665 45.4783 71.8317 47.6876 70.9513C47.8433 70.8892 47.9196 70.7121 47.8579 70.5558C47.7961 70.3994 47.6199 70.323 47.4641 70.385C45.4351 71.1936 43.1734 70.9634 41.1445 70.3218ZM19.6778 66.0802C19.7819 66.2119 19.9726 66.234 20.1039 66.1294C21.2186 65.2414 23.7585 62.3559 25.2751 57.7569C25.3278 57.5972 25.2416 57.4249 25.0826 57.3721C24.9236 57.3192 24.752 57.4059 24.6993 57.5656C23.2178 62.058 20.7442 64.8419 19.7271 65.6522C19.5958 65.7568 19.5737 65.9484 19.6778 66.0802ZM14.4157 53.5777C14.5397 53.6908 14.7316 53.6814 14.8442 53.5568C15.7599 52.5436 17.8521 49.1201 19.1925 43.3104C19.2303 43.1464 19.1287 42.9829 18.9655 42.945C18.8023 42.9071 18.6393 43.0092 18.6015 43.1731C17.2763 48.9172 15.2203 52.2345 14.3951 53.1474C14.2825 53.272 14.2917 53.4647 14.4157 53.5777ZM42.199 53.2521C37.8589 54.1762 33.6994 52.6189 32.1786 51.7326C32.0337 51.6482 31.8481 51.6977 31.764 51.8433C31.6798 51.9888 31.7291 52.1752 31.8739 52.2596C33.481 53.1962 37.7946 54.8126 42.3245 53.8481C42.4884 53.8132 42.5932 53.6515 42.5585 53.487C42.5239 53.3224 42.3629 53.2173 42.199 53.2521ZM9.83948 44.7741C9.98006 44.8655 10.1679 44.8251 10.259 44.6839C11.2889 43.0869 13.4068 38.6913 13.7142 33.7622C13.7247 33.5943 13.5977 33.4497 13.4305 33.4393C13.2633 33.4289 13.1193 33.5565 13.1088 33.7244C12.8094 38.5242 10.7385 42.8201 9.74987 44.3529C9.65878 44.4941 9.69889 44.6827 9.83948 44.7741ZM33.8917 39.6244C30.0177 41.046 25.7702 39.8105 24.1387 39.0135C23.9881 38.94 23.8066 39.003 23.7333 39.1543C23.6599 39.3055 23.7225 39.4878 23.8732 39.5614C25.584 40.3972 30.0116 41.6968 34.0996 40.1966C34.257 40.1389 34.338 39.964 34.2806 39.806C34.2232 39.648 34.049 39.5667 33.8917 39.6244ZM22.1522 27.8494C20.6526 27.8653 19.2567 27.5984 18.4383 27.3503C18.278 27.3017 18.1087 27.3929 18.0602 27.5539C18.0117 27.715 18.1024 27.885 18.2627 27.9336C19.1345 28.1978 20.5916 28.4752 22.1583 28.4586C23.7212 28.442 25.4315 28.1323 26.774 27.1848C26.9111 27.0881 26.9442 26.8981 26.848 26.7605C26.7517 26.6228 26.5625 26.5897 26.4254 26.6864C25.2249 27.5337 23.6556 27.8334 22.1522 27.8494Z" fill="#CE99FF"/>
<path d="M80.9852 29.8199C80.4862 31.3886 77.7452 31.7034 76.0527 31.8978C75.7555 31.932 75.4906 31.9624 75.2759 31.9953C68.9615 32.9612 66.0095 32.5368 65.6154 32.8764C65.1966 33.2373 67.6667 34.4611 72.0601 39.1336C72.2009 39.2834 72.3819 39.4604 72.5849 39.6591C73.7412 40.7905 75.6136 42.6226 74.8754 44.1127C74.5763 44.7163 74.3338 45.1027 73.5928 45.4088C72.3668 45.9152 70.9865 45.6724 69.741 44.9028C65.1274 42.0518 62.1576 37.1266 61.6134 32.9339C60.7176 32.7911 59.558 32.3672 58.644 32.1935C56.0187 31.6944 53.3884 31.1898 50.7583 30.6928C52.464 32.8466 53.6666 34.9899 55.0605 37.2803C56.6685 39.9227 58.2308 42.6354 58.9794 45.1093C59.4888 46.7928 60.1918 49.3251 59.0287 49.8763C57.9253 50.3992 55.8835 49.7851 54.0186 48.0683C51.7118 45.9448 49.3106 42.3427 48.1527 39.9347C46.6838 36.8803 46.676 33.2041 48.0257 30.4223C46.5564 30.1215 43.498 29.107 42.0316 28.7532C39.2363 28.0789 37.4705 27.7903 35.2374 27.4134C36.408 28.7463 39.3725 32.5111 40.9607 35.7242C41.0435 35.8919 41.156 36.0933 41.2822 36.3192C42.0007 37.6058 43.1644 39.6894 41.8446 40.8863C41.3099 41.3712 40.9165 41.6703 40.0547 41.7865C38.6289 41.9788 37.34 41.4535 36.3913 40.4772C32.6157 36.5923 31.6732 30.9409 33.1808 26.911C30.0864 26.5274 27.5002 26.0563 22.6526 24.3164C24.0134 25.9711 24.9252 27.9847 25.7552 29.7366C26.1 30.4643 26.4448 31.1921 26.8433 31.9267C28.5131 35.0049 30.1248 38.1616 30.8125 41.0126C31.2805 42.9528 31.9113 45.8687 30.5261 46.4497C29.212 47.001 26.8943 46.2176 24.8606 44.1842C22.2196 41.5436 19.9151 37.6752 18.661 34.6717C17.605 32.1425 17.4295 28.7243 18.2395 26.3474C18.3067 26.1501 18.3709 25.9511 18.435 25.7525C18.6783 24.9985 18.8678 24.1511 19.4156 23.5091C18.3989 23.2519 12.2545 21.3283 11.5456 20.8165C11.1757 20.5494 11.0697 20.2376 11.3818 19.7226C11.5492 19.4466 11.681 19.4795 14.1422 20.0415C15.6559 20.4375 17.5223 20.9214 18.9907 21.2968C18.9274 20.5034 19.2047 19.7271 19.4093 18.9862C19.4648 18.7852 19.5204 18.5838 19.5725 18.3825C20.2122 15.908 22.1897 13.181 24.5326 11.5393C25.9459 10.549 27.7808 9.57929 29.5523 8.78474C29.8075 8.67028 30.0667 8.55213 30.3293 8.43241C31.823 7.75148 33.4283 7.01962 35.0485 6.62733C37.897 5.93764 40.2952 6.45225 41.1045 7.58788C41.9576 8.78494 39.8105 10.9363 38.3409 12.3433C36.1814 14.4106 33.0696 16.2672 29.9519 18.0278C29.2078 18.448 28.513 18.8897 27.8184 19.3313C26.399 20.2337 24.9061 21.0456 23.3702 21.8374C23.0979 21.9778 22.8372 22.098 22.5885 22.1993C29.1271 24.4911 30.3351 24.7961 33.1314 25.1459C33.0525 25.0115 33.2854 24.5574 33.3271 24.361C34.2189 20.1609 38.0872 15.8076 43.4177 14.3936C44.7557 14.0386 46.1395 14.2395 47.2512 15.1212C47.9232 15.6541 48.0967 16.1073 48.2899 16.7899C48.767 18.475 46.6458 19.6662 45.336 20.4017C45.106 20.5308 44.901 20.6459 44.7395 20.7472C41.2826 22.9147 35.9885 24.8049 34.8765 25.0961C34.779 25.1216 34.3503 25.1239 34.1198 25.3923C34.7137 25.5404 36.6354 26.0452 39.7995 26.8086C40.5372 26.9865 46.8175 28.1719 46.8458 28.0246C47.4303 24.979 49.7259 21.9637 52.7364 20.2681C55.2334 18.8617 59.2461 17.2401 62.5035 16.7149C65.0802 16.2995 67.1317 16.8848 67.7205 17.9035C68.3411 18.9773 66.2233 20.6832 64.7808 21.7947C62.6612 23.4282 59.7275 24.8237 56.7991 26.1368C56.1002 26.4502 55.4422 26.785 54.7845 27.1197C54.1687 27.433 53.5531 27.7463 52.9041 28.0419C52.3744 28.2831 51.8094 28.508 51.2473 28.7318C51.1092 28.7867 50.9712 28.8417 50.8341 28.8967C52.2556 29.169 53.6831 29.43 55.1222 29.6931C56.4587 29.9374 57.8052 30.1836 59.166 30.4423C60.1483 30.6291 61.1135 30.7825 62.1158 30.9418C62.2389 30.9608 62.3619 30.9809 62.485 31.0005C65.8346 27.9377 71.8477 25.719 77.6207 26.2345C79.1232 26.3687 80.3528 26.9843 80.9292 28.0835C81.2776 28.748 81.1873 29.1844 80.9852 29.8199Z" fill="#14154D"/>
<path fill-rule="evenodd" clip-rule="evenodd" d="M298.205 29.2212C298.436 28.9667 297.837 25.9833 297.729 24.7942C297.41 21.2882 297.244 17.8099 297.244 14.2815C297.244 13.0349 297.17 11.0431 298.457 10.3998C300.067 9.59487 300.64 12.8227 300.802 13.6345C301.504 17.1448 301.039 24.5487 304.926 26.4924C306.278 27.1683 316.718 23.3544 318.188 22.9342C320.005 22.4153 321.119 22.2042 322.762 22.7522C323.687 23.0605 323.691 25.1691 323.041 25.603C320.415 27.3535 317.15 28.6287 314.307 30.0506C311.255 31.5768 309.555 31.4355 309.051 35.4688C308.783 37.6084 309.764 39.5367 310.264 41.5337C310.84 43.84 311.135 46.0619 311.396 48.4075C311.575 50.0189 311.82 52.8355 310.587 54.0683C309.117 55.5385 307.655 51.6111 307.433 50.8337C305.777 45.0351 305.564 38.9795 300.559 35.2262C299.499 34.4306 297.424 34.9386 296.273 35.2262C295.026 35.5378 287.48 38.5247 284.952 38.9461C283.587 39.1737 282.809 37.4093 283.335 36.3583C283.889 35.2499 286.521 34.4819 287.621 33.9323C289.043 33.2211 290.533 32.6525 291.987 31.9913C294.054 31.0519 297.175 30.3587 298.205 29.2212Z" fill="#FFBA03"/>
<path fill-rule="evenodd" clip-rule="evenodd" d="M22.3845 302.199C22.592 301.97 22.0537 299.285 21.9563 298.215C21.6693 295.06 21.5197 291.929 21.5197 288.754C21.5197 287.632 21.4532 285.839 22.6113 285.26C24.0605 284.536 24.5759 287.441 24.7218 288.171C25.3538 291.331 24.9348 297.994 28.4337 299.743C29.6501 300.352 39.0465 296.919 40.3697 296.541C42.0046 296.074 43.007 295.884 44.486 296.377C45.3187 296.655 45.3221 298.552 44.7366 298.943C42.3733 300.518 39.4355 301.666 36.8763 302.946C34.1292 304.319 32.5992 304.192 32.1456 307.822C31.9048 309.748 32.7879 311.483 33.2373 313.281C33.7561 315.356 34.0216 317.356 34.2561 319.467C34.4175 320.917 34.6378 323.452 33.5285 324.562C32.2053 325.885 30.8899 322.35 30.6899 321.651C29.199 316.432 29.0075 310.982 24.5035 307.604C23.5487 306.888 21.6818 307.345 20.6461 307.604C19.5236 307.884 12.7323 310.573 10.4568 310.952C9.22799 311.157 8.52849 309.569 9.00134 308.623C9.50011 307.625 11.869 306.934 12.8587 306.439C14.1389 305.799 15.4797 305.288 16.7887 304.692C18.6491 303.847 21.4573 303.223 22.3845 302.199Z" fill="#FFBA03"/>
</svg>
