<svg width="327" height="326" viewBox="0 0 327 326" fill="none" xmlns="http://www.w3.org/2000/svg">
<path d="M302.372 301.858C302.324 301.914 302.221 301.923 302.174 301.979C300.214 303.393 299.991 306.273 300.975 308.061C301.903 309.803 303.616 310.385 305.431 309.711C306.239 309.434 306.871 308.912 307.391 308.296C307.674 307.96 307.902 307.577 308.082 307.25C308.566 306.22 308.573 305.076 308.167 303.966C307.574 302.508 306.764 301.537 305.696 301.212C304.62 300.783 303.343 301.048 302.371 301.858L302.372 301.858ZM305.421 303.471C305.869 303.849 306.249 304.649 306.302 305.268C306.402 305.831 306.05 306.589 305.465 307.055C305.031 307.456 304.477 307.659 303.999 307.544C303.465 307.382 303.094 306.685 302.994 306.121C302.811 305.2 303.266 304.434 303.768 303.611L303.816 303.555C304.155 303.266 304.861 302.998 305.421 303.471Z" fill="#936F05"/>
<path d="M305.038 287.33C299.334 288.751 294.461 292.597 291.229 298.02C289.77 300.433 287.519 305.148 288.159 309.618C288.268 310.285 288.884 310.805 289.559 310.799L295.041 310.437C295.351 310.411 295.652 310.282 295.888 310.001L295.935 309.946C296.171 309.665 296.287 309.188 296.195 308.727C295.684 306.379 298.637 301.967 299.612 300.584C301.643 298.175 304.459 296.428 307.56 295.593C307.814 295.519 308.059 295.342 308.191 295.071C308.372 294.743 308.392 294.377 308.31 294.021L306.617 288.184C306.398 287.422 305.649 287.174 305.038 287.33L305.038 287.33ZM304.599 290.123L305.62 293.573C302.64 294.606 299.889 296.504 297.905 298.857L297.716 299.081C296.157 300.93 293.65 304.471 293.638 308.008L293.225 308.043C292.399 308.114 291.573 308.184 290.794 308.198C290.84 305.074 292.134 301.948 293.31 299.872C295.768 295.138 299.795 291.728 304.599 290.124L304.599 290.123Z" fill="#936F05"/>
<path d="M304.34 276.677C301.146 275.804 297.684 277.294 294.391 278.926C290.702 280.8 287.487 283.361 284.644 286.619C279.052 293.023 276.302 301.057 276.733 309.185C276.795 309.908 277.402 310.324 278.078 310.319L279.795 310.329C281.512 310.34 283.285 310.397 285.002 310.407C285.368 310.428 285.668 310.298 285.905 310.018L285.999 309.906C286.179 309.579 286.247 309.157 286.109 308.753C285.462 297.471 293.978 286.918 305.012 285.2C305.679 285.091 306.104 284.587 306.099 283.911C306.083 281.885 305.804 279.828 305.422 277.78C305.275 277.273 304.874 276.839 304.34 276.677ZM303.079 278.968C303.131 279.587 303.24 280.254 303.293 280.874C303.354 281.597 303.415 282.32 303.533 283.09C292.147 285.566 283.601 296.381 283.749 307.913C283.337 307.948 282.868 307.936 282.398 307.924C281.357 307.908 280.269 307.949 279.274 307.877C279.022 301.242 281.55 294.267 286.179 288.777C288.447 286.088 291.106 283.73 294.082 282.021C296.558 280.562 300.144 278.698 303.079 278.968Z" fill="#936F05"/>
<path d="M40.6477 94.0424C42.3247 98.013 49.0086 106.162 52.5851 102.417C55.8967 98.0457 42.2751 92.3126 40.6477 94.0424Z" fill="#FFEBB8"/>
<path d="M39.7584 93.6818C39.436 98.8503 37.6637 108.751 33.1535 107.004C31.6779 106.302 30.585 100.435 39.7584 93.6818Z" fill="#FFEBB8"/>
<path d="M37.6036 79.5077C40.5355 84.4722 49.2186 93.051 52.2654 88.0525C53.628 85.6958 47.9339 79.5416 37.6036 79.5077Z" fill="#FFEBB8"/>
<path d="M36.6954 79.4511C31.5113 79.7382 22.7306 93.8406 28.671 96.0423C30.6638 96.5736 35.0587 93.9991 36.6954 79.4511Z" fill="#FFEBB8"/>
<path d="M33.1584 64.2389C27.9743 64.526 19.1935 78.6284 25.1339 80.8302C27.1268 81.3614 31.5216 78.7869 33.1584 64.2389Z" fill="#FFEBB8"/>
<path d="M27.0309 54.1263C22.2319 54.3708 14.1331 66.9184 19.6377 68.8933C21.4839 69.371 25.5472 67.0865 27.0309 54.1263Z" fill="#FFEBB8"/>
<path d="M19.9365 39.806C15.2204 40.7325 8.9772 54.307 14.7057 55.4767C16.6009 55.6863 20.3003 52.8455 19.9365 39.806Z" fill="#FFEBB8"/>
<path d="M14.4133 30.9158C12.428 30.0195 3.45398 45.4167 9.18252 46.5864C11.0777 46.796 14.7771 43.9552 14.4133 30.9158Z" fill="#FFEBB8"/>
<path d="M51.4601 73.6689C52.4802 71.5476 50.9836 69.0146 46.0059 66.6026C41.0283 64.1905 33.4344 64.9341 33.4344 64.9341C33.4344 64.9341 34.556 70.5129 39.5337 72.925C44.5113 75.3371 50.4401 75.7903 51.4601 73.6689Z" fill="#FFEBB8"/>
<path d="M35.8329 40.5598C36.0317 38.9315 34.417 37.5914 30.4559 37.1058C26.4947 36.6202 21.4882 38.8013 21.4882 38.8013C21.4882 38.8013 23.5608 42.2368 27.522 42.7225C31.4832 43.208 35.6341 42.1881 35.8329 40.5598Z" fill="#FFEBB8"/>
<path d="M30.2651 27.5501C30.2579 25.9098 28.3751 24.7855 24.1293 24.8066C19.8835 24.8277 14.8898 27.6266 14.8898 27.6266C14.8898 27.6266 17.5353 30.7713 21.7811 30.7502C26.0269 30.729 30.2724 29.1905 30.2651 27.5501Z" fill="#FFEBB8"/>
<path d="M45.137 56.1712C45.6885 53.8817 44.4324 50.948 39.5594 49.7667C34.6864 48.5854 28.0085 51.0646 28.0085 51.0646C28.0085 51.0646 31.0877 55.9437 35.9607 57.1249C40.8337 58.3062 44.5856 58.4607 45.137 56.1712Z" fill="#FFEBB8"/>
<path fill-rule="evenodd" clip-rule="evenodd" d="M42.7729 108.352C43.1378 108.316 43.404 107.99 43.3673 107.625C41.7359 91.3758 35.0445 53.676 7.26214 17.3009C7.03953 17.0094 6.62278 16.9536 6.33132 17.1762C6.03985 17.3988 5.98404 17.8156 6.20665 18.107C33.7856 54.2157 40.4282 91.646 42.0458 107.758C42.0825 108.123 42.408 108.389 42.7729 108.352Z" fill="#FFEBB8"/>
<path d="M41.8576 103.884C40.5328 107.261 37.9767 117.377 44.3338 117.774C47.361 117.962 50.681 110.539 41.8576 103.884Z" fill="#FFEBB8"/>
<path fill-rule="evenodd" clip-rule="evenodd" d="M44.6482 115.598C44.7896 115.508 44.8313 115.32 44.7415 115.178C44.0375 114.066 42.7689 110.848 43.4792 107.076C43.5103 106.91 43.4021 106.751 43.2375 106.72C43.073 106.689 42.9143 106.798 42.8832 106.963C42.1393 110.913 43.458 114.286 44.2295 115.505C44.3194 115.647 44.5068 115.689 44.6482 115.598ZM34.3054 106.137C34.4554 106.211 34.6374 106.15 34.712 105.999C35.1796 105.053 35.8889 103.486 36.501 101.847C37.1098 100.217 37.6358 98.482 37.7147 97.2168C37.7252 97.0489 37.5981 96.9043 37.4309 96.8939C37.2638 96.8835 37.1197 97.0111 37.1093 97.179C37.0365 98.3461 36.5403 100.007 35.933 101.633C35.3291 103.25 34.6284 104.799 34.1687 105.728C34.0942 105.879 34.1554 106.062 34.3054 106.137ZM47.2169 99.033C45.6744 97.8951 44.1355 96.4672 43.1913 95.5003C43.074 95.3802 42.882 95.3784 42.7624 95.4962C42.6427 95.614 42.6408 95.8069 42.7581 95.927C43.7181 96.9101 45.2817 98.3615 46.8576 99.5241C47.645 100.105 48.4442 100.62 49.1785 100.968C49.9005 101.31 50.6122 101.516 51.2024 101.406C51.3671 101.376 51.476 101.217 51.4456 101.051C51.4153 100.886 51.2571 100.777 51.0923 100.807C50.6986 100.88 50.1348 100.747 49.4375 100.417C48.7526 100.093 47.9886 99.6023 47.2169 99.033ZM29.3157 93.6184C29.4666 93.6913 29.6479 93.6274 29.7205 93.4758L34.2627 83.9923C34.3353 83.8407 34.2718 83.6587 34.1208 83.5859C33.9699 83.513 33.7886 83.5769 33.716 83.7285L29.1739 93.2119C29.1013 93.3636 29.1647 93.5455 29.3157 93.6184ZM44.691 84.6289C42.8143 83.5339 41.1093 82.1737 40.1168 81.2585C39.9935 81.1447 39.8016 81.153 39.6883 81.2769C39.5749 81.4009 39.5831 81.5936 39.7064 81.7073C40.7255 82.6471 42.4654 84.0351 44.386 85.1557C46.2932 86.2685 48.4376 87.1532 50.2463 87.0078C50.4133 86.9944 50.5379 86.8476 50.5247 86.6799C50.5114 86.5122 50.3653 86.3871 50.1983 86.4005C48.5863 86.5301 46.5811 85.7317 44.691 84.6289ZM25.6388 78.3952C25.7663 78.5043 25.9577 78.4889 26.0664 78.3608C27.0798 77.1667 29.3257 73.6594 30.3521 69.0311C30.3885 68.8669 30.2855 68.7041 30.122 68.6677C29.9585 68.6312 29.7964 68.7347 29.76 68.899C28.7569 73.4224 26.5594 76.8409 25.6048 77.9658C25.4961 78.0938 25.5113 78.2861 25.6388 78.3952ZM41.1443 70.3218C39.1177 69.6809 37.3607 68.6408 36.37 67.884C36.2367 67.7822 36.0464 67.8082 35.9449 67.9422C35.8435 68.0761 35.8693 68.2672 36.0026 68.369C37.0423 69.1632 38.861 70.2385 40.9618 70.9029C43.0604 71.5666 45.4782 71.8317 47.6875 70.9513C47.8432 70.8892 47.9194 70.7122 47.8577 70.5558C47.796 70.3994 47.6197 70.323 47.464 70.385C45.435 71.1936 43.1733 70.9634 41.1443 70.3218ZM19.6777 66.0802C19.7817 66.212 19.9725 66.234 20.1038 66.1295C21.2185 65.2414 23.7583 62.3559 25.275 57.7569C25.3277 57.5972 25.2415 57.4249 25.0825 57.3721C24.9235 57.3193 24.7518 57.4059 24.6992 57.5657C23.2176 62.058 20.7441 64.8419 19.727 65.6522C19.5957 65.7568 19.5736 65.9484 19.6777 66.0802ZM14.4156 53.5777C14.5396 53.6908 14.7314 53.6814 14.8441 53.5568C15.7598 52.5436 17.852 49.1202 19.1924 43.3104C19.2302 43.1465 19.1285 42.9829 18.9653 42.945C18.8022 42.9071 18.6392 43.0093 18.6014 43.1732C17.2762 48.9172 15.2201 52.2345 14.395 53.1475C14.2824 53.2721 14.2916 53.4647 14.4156 53.5777ZM42.1989 53.2522C37.8588 54.1762 33.6993 52.619 32.1785 51.7326C32.0336 51.6482 31.848 51.6978 31.7639 51.8433C31.6797 51.9888 31.7289 52.1752 31.8738 52.2596C33.4808 53.1962 37.7945 54.8126 42.3244 53.8482C42.4883 53.8133 42.593 53.6516 42.5584 53.487C42.5237 53.3224 42.3628 53.2173 42.1989 53.2522ZM9.83935 44.7741C9.97994 44.8655 10.1677 44.8251 10.2588 44.6839C11.2888 43.087 13.4067 38.6913 13.7141 33.7622C13.7246 33.5943 13.5976 33.4498 13.4304 33.4393C13.2632 33.4289 13.1192 33.5566 13.1087 33.7245C12.8093 38.5242 10.7383 42.8201 9.74974 44.3529C9.65865 44.4941 9.69877 44.6827 9.83935 44.7741ZM33.8915 39.6245C30.0176 41.0461 25.7701 39.8106 24.1386 39.0136C23.988 38.94 23.8065 39.003 23.7331 39.1543C23.6598 39.3056 23.7224 39.4879 23.873 39.5614C25.5839 40.3972 30.0115 41.6968 34.0995 40.1967C34.2568 40.1389 34.3379 39.964 34.2804 39.806C34.223 39.648 34.0489 39.5667 33.8915 39.6245ZM22.1521 27.8494C20.6524 27.8653 19.2565 27.5985 18.4382 27.3504C18.2778 27.3018 18.1085 27.3929 18.0601 27.554C18.0116 27.715 18.1022 27.885 18.2626 27.9336C19.1343 28.1979 20.5915 28.4752 22.1582 28.4586C23.7211 28.442 25.4314 28.1323 26.7739 27.1849C26.911 27.0881 26.9441 26.8981 26.8478 26.7605C26.7516 26.6229 26.5624 26.5897 26.4253 26.6865C25.2248 27.5337 23.6555 27.8334 22.1521 27.8494Z" fill="#FFEBB8"/>
<path d="M80.9849 29.8199C80.4859 31.3886 77.745 31.7034 76.0524 31.8978C75.7553 31.932 75.4904 31.9624 75.2756 31.9953C68.9612 32.9612 66.0092 32.5368 65.6151 32.8764C65.1963 33.2373 67.6664 34.4611 72.0598 39.1336C72.2007 39.2834 72.3816 39.4604 72.5847 39.6591C73.7409 40.7905 75.6134 42.6226 74.8751 44.1127C74.5761 44.7163 74.3336 45.1027 73.5925 45.4088C72.3666 45.9152 70.9863 45.6724 69.7408 44.9028C65.1272 42.0518 62.1574 37.1266 61.6131 32.9339C60.7174 32.7911 59.5577 32.3672 58.6437 32.1935C56.0184 31.6944 53.3882 31.1898 50.7581 30.6928C52.4637 32.8466 53.6664 34.9899 55.0603 37.2803C56.6683 39.9227 58.2305 42.6354 58.9791 45.1093C59.4886 46.7928 60.1916 49.3251 59.0285 49.8763C57.9251 50.3992 55.8833 49.7851 54.0183 48.0683C51.7115 45.9448 49.3104 42.3427 48.1524 39.9347C46.6836 36.8803 46.6757 33.2041 48.0255 30.4223C46.5562 30.1215 43.4978 29.107 42.0313 28.7532C39.2361 28.0789 37.4702 27.7903 35.2372 27.4134C36.4078 28.7463 39.3723 32.5111 40.9604 35.7242C41.0433 35.8919 41.1558 36.0933 41.2819 36.3192C42.0005 37.6058 43.1641 39.6894 41.8443 40.8863C41.3097 41.3712 40.9163 41.6703 40.0545 41.7865C38.6287 41.9788 37.3398 41.4535 36.391 40.4772C32.6155 36.5923 31.673 30.9409 33.1805 26.911C30.0862 26.5274 27.4999 26.0563 22.6523 24.3164C24.0131 25.9711 24.925 27.9847 25.755 29.7366C26.0997 30.4643 26.4445 31.1921 26.843 31.9267C28.5128 35.0049 30.1245 38.1616 30.8122 41.0126C31.2803 42.9528 31.911 45.8687 30.5258 46.4497C29.2118 47.001 26.894 46.2176 24.8604 44.1842C22.2194 41.5436 19.9148 37.6752 18.6608 34.6717C17.6048 32.1425 17.4293 28.7243 18.2393 26.3474C18.3065 26.1501 18.3707 25.9511 18.4348 25.7525C18.678 24.9985 18.8676 24.1511 19.4154 23.5091C18.3987 23.2519 12.2543 21.3283 11.5453 20.8165C11.1754 20.5494 11.0694 20.2376 11.3816 19.7226C11.5489 19.4466 11.6808 19.4795 14.1419 20.0415C15.6557 20.4375 17.5221 20.9214 18.9905 21.2968C18.9271 20.5034 19.2045 19.7271 19.4091 18.9862C19.4645 18.7852 19.5201 18.5838 19.5722 18.3825C20.212 15.908 22.1894 13.181 24.5323 11.5393C25.9456 10.549 27.7806 9.57929 29.5521 8.78474C29.8073 8.67028 30.0665 8.55213 30.3291 8.43241C31.8227 7.75148 33.4281 7.01962 35.0483 6.62733C37.8968 5.93764 40.2949 6.45225 41.1042 7.58788C41.9573 8.78494 39.8103 10.9363 38.3407 12.3433C36.1812 14.4106 33.0693 16.2672 29.9517 18.0278C29.2076 18.448 28.5128 18.8897 27.8182 19.3313C26.3987 20.2337 24.9059 21.0456 23.37 21.8374C23.0976 21.9778 22.8369 22.098 22.5882 22.1993C29.1269 24.4911 30.3349 24.7961 33.1311 25.1459C33.0522 25.0115 33.2851 24.5574 33.3268 24.361C34.2187 20.1609 38.0869 15.8076 43.4175 14.3936C44.7555 14.0386 46.1392 14.2395 47.251 15.1212C47.923 15.6541 48.0964 16.1073 48.2897 16.7899C48.7668 18.475 46.6456 19.6662 45.3358 20.4017C45.1058 20.5308 44.9008 20.6459 44.7393 20.7472C41.2823 22.9147 35.9883 24.8049 34.8762 25.0961C34.7788 25.1216 34.3501 25.1239 34.1195 25.3923C34.7134 25.5404 36.6351 26.0452 39.7993 26.8086C40.5369 26.9865 46.8173 28.1719 46.8455 28.0246C47.43 24.979 49.7257 21.9637 52.7362 20.2681C55.2331 18.8617 59.2459 17.2401 62.5033 16.7149C65.08 16.2995 67.1314 16.8848 67.7202 17.9035C68.3409 18.9773 66.2231 20.6832 64.7806 21.7947C62.6609 23.4282 59.7273 24.8237 56.7988 26.1368C56.0999 26.4502 55.442 26.785 54.7842 27.1197C54.1685 27.433 53.5528 27.7463 52.9039 28.0419C52.3742 28.2831 51.8091 28.508 51.2471 28.7318C51.109 28.7867 50.971 28.8417 50.8338 28.8967C52.2553 29.169 53.6829 29.43 55.1219 29.6931C56.4585 29.9374 57.805 30.1836 59.1658 30.4423C60.1481 30.6291 61.1133 30.7825 62.1155 30.9418C62.2387 30.9608 62.3617 30.9809 62.4848 31.0005C65.8344 27.9377 71.8475 25.719 77.6204 26.2345C79.1229 26.3687 80.3525 26.9843 80.929 28.0835C81.2774 28.748 81.1871 29.1844 80.9849 29.8199Z" fill="#936F05"/>
<path fill-rule="evenodd" clip-rule="evenodd" d="M298.205 29.2213C298.435 28.9667 297.837 25.9834 297.729 24.7943C297.41 21.2883 297.244 17.8099 297.244 14.2816C297.244 13.035 297.17 11.0431 298.457 10.3999C300.067 9.59493 300.64 12.8228 300.802 13.6345C301.504 17.1449 301.038 24.5487 304.926 26.4924C306.278 27.1683 316.718 23.3545 318.188 22.9342C320.005 22.4154 321.119 22.2043 322.762 22.7522C323.687 23.0606 323.691 25.1692 323.04 25.603C320.415 27.3536 317.15 28.6288 314.307 30.0506C311.254 31.5768 309.554 31.4356 309.05 35.4689C308.783 37.6085 309.764 39.5367 310.263 41.5337C310.84 43.8401 311.135 46.062 311.395 48.4075C311.575 50.019 311.819 52.8356 310.587 54.0684C309.117 55.5386 307.655 51.6112 307.433 50.8337C305.776 45.0351 305.564 38.9796 300.559 35.2263C299.498 34.4306 297.424 34.9386 296.273 35.2263C295.026 35.5379 287.48 38.5248 284.952 38.9462C283.586 39.1738 282.809 37.4094 283.335 36.3583C283.889 35.25 286.521 34.482 287.621 33.9324C289.043 33.2212 290.533 32.6526 291.987 31.9914C294.054 31.052 297.175 30.3587 298.205 29.2213Z" fill="#FFEBB8"/>
<path fill-rule="evenodd" clip-rule="evenodd" d="M22.3843 302.199C22.5918 301.97 22.0535 299.285 21.9562 298.215C21.6691 295.06 21.5195 291.929 21.5195 288.754C21.5195 287.632 21.453 285.839 22.6112 285.26C24.0603 284.536 24.5757 287.441 24.7216 288.171C25.3536 291.331 24.9346 297.994 28.4335 299.743C29.6499 300.352 39.0463 296.919 40.3695 296.541C42.0044 296.074 43.0068 295.884 44.4858 296.377C45.3185 296.655 45.322 298.552 44.7364 298.943C42.3731 300.518 39.4353 301.666 36.8762 302.946C34.129 304.319 32.599 304.192 32.1454 307.822C31.9046 309.748 32.7877 311.483 33.2371 313.281C33.7559 315.356 34.0214 317.356 34.2559 319.467C34.4173 320.917 34.6376 323.452 33.5283 324.562C32.2051 325.885 30.8897 322.35 30.6897 321.651C29.1988 316.432 29.0074 310.982 24.5033 307.604C23.5485 306.888 21.6816 307.345 20.6459 307.604C19.5234 307.884 12.7321 310.573 10.4566 310.952C9.22781 311.157 8.52831 309.569 9.00116 308.623C9.49993 307.625 11.8688 306.934 12.8585 306.439C14.1387 305.799 15.4795 305.288 16.7885 304.692C18.6489 303.847 21.4571 303.223 22.3843 302.199Z" fill="#FFEBB8"/>
</svg>
