<svg width="1366" height="218" viewBox="0 0 1366 218" fill="none" xmlns="http://www.w3.org/2000/svg">
<path d="M-54.5698 133.752H-54.4791C-54.5129 133.752 -54.5386 133.752 -54.5555 133.752C-54.5613 133.752 -54.5661 133.752 -54.5698 133.752ZM-54.5698 6H-60.5698V12V125.688C-61.1902 127.274 -61.016 128.86 -60.735 129.807C-60.3718 131.031 -59.7165 131.895 -59.4306 132.256C-59.0635 132.718 -58.6681 133.124 -58.3238 133.452C-57.0181 134.697 -54.977 136.214 -52.5787 137.846C-47.6349 141.211 -40.0086 145.846 -30.441 151.148C-11.2788 161.767 16.0392 175.263 45.9887 186.838C75.8883 198.395 108.702 208.153 138.774 211.093C168.671 214.016 197.081 210.312 216.854 193.448C229.156 182.957 241.597 170.161 254.367 157.027C260.422 150.799 266.551 144.496 272.774 138.326C292.378 118.888 313.376 100.26 337.597 87.1331C361.707 74.066 389.042 66.4339 421.452 69.0682C453.945 71.7093 491.975 84.7069 537.333 113.639C722.892 231.999 968.392 232.618 1132.15 113.432C1195.33 67.4495 1248.59 65.6465 1289.42 81.0512C1330.7 96.6232 1360.27 130.158 1374.75 156.339L1386 153.434V12V6H1380H-54.5698Z" fill="#FF6237" stroke="#B25445" stroke-width="12"/>
</svg>
