<svg width="51" height="59" viewBox="0 0 51 59" fill="none" xmlns="http://www.w3.org/2000/svg">
<g clip-path="url(#clip0_377_1459)">
<path d="M49.3947 14.1507C47.6971 10.7093 44.8251 7.89878 41.9427 5.41648C39.2399 3.07778 36.3575 1.02629 33.0033 1.50839C28.7891 -0.0891178 24.2029 -0.434638 19.7969 0.513419C13.5399 1.86227 8.11367 6.15501 4.19533 11.094C0.0923509 16.2227 -1.08213 22.2387 1.01552 28.2598C1.23162 31.5717 2.48806 34.7307 4.60562 37.2863C6.61357 39.635 9.22621 41.3892 12.1602 42.3587C12.3397 46.5898 13.227 51.1236 15.7503 54.4881C18.8276 58.6218 23.7152 59.186 28.526 58.8116C33.3367 58.4372 37.3166 56.8678 39.6399 52.4417C41.2349 49.4004 41.4914 46.1283 41.1785 42.8459C41.2247 41.9432 41.2401 41.0406 41.2298 40.1482C42.191 39.5315 43.0986 38.8349 43.9429 38.0659C46.5688 35.6759 48.9383 32.5987 49.9999 29.1778C50.4748 27.6055 50.6488 25.9578 50.5128 24.3209C51.4237 20.9102 51.0248 17.2821 49.3947 14.1507Z" fill="#FFB808"/>
<path d="M9.88841 15.2279C9.61853 15.0655 9.31925 14.9578 9.0077 14.9112C8.69616 14.8645 8.37848 14.8798 8.07284 14.9561C7.77923 15.0395 7.51105 15.1948 7.29255 15.4079C7.07405 15.6211 6.91213 15.8853 6.82144 16.1767C6.69763 16.5614 6.67816 16.972 6.76502 17.3666C6.7885 17.4826 6.83188 17.5936 6.89324 17.6948C6.96284 17.9877 7.10094 18.2599 7.29619 18.4891C7.49145 18.7182 7.73829 18.8977 8.01643 19.0129C8.50824 19.1941 9.0497 19.187 9.53659 18.993C10.0235 18.799 10.4214 18.4317 10.6538 17.9619C10.8861 17.4921 10.9365 16.9529 10.7952 16.4482C10.6539 15.9435 10.3309 15.5088 9.88841 15.2279ZM9.19603 17.3615C9.19603 17.4384 9.19603 17.3615 9.19603 17.3256C9.19603 17.3256 9.19091 17.3461 9.19603 17.3615Z" fill="#F11E3F"/>
<path d="M4.87765 24.1061C5.20469 24.2152 5.5589 24.2113 5.88348 24.0951C6.20806 23.9788 6.48419 23.7569 6.66757 23.465C6.85929 23.1727 6.95668 22.8285 6.94659 22.4791C6.9365 22.1297 6.81942 21.7917 6.61116 21.511C6.2624 21.0596 5.71876 21.0648 5.20076 20.9981L4.22117 20.8955C3.94197 20.8973 3.67093 20.9898 3.4489 21.1591C3.22688 21.3284 3.06591 21.5653 2.99028 21.8341C2.66204 23.0291 3.61598 24.5113 4.87765 24.1061Z" fill="#F11E3F"/>
<path d="M5.30837 26.9622C4.99229 27.0505 4.70321 27.2162 4.46726 27.4443C4.31411 27.5314 4.17706 27.6442 4.06209 27.7777C3.78648 28.0968 3.6132 28.4915 3.56472 28.9103C3.51625 29.3292 3.59483 29.753 3.79027 30.1266C3.97635 30.4689 4.24917 30.7561 4.58135 30.9595C4.91353 31.163 5.29337 31.2755 5.68277 31.2857C6.00908 31.2798 6.32507 31.1703 6.58506 30.973C6.84504 30.7757 7.03556 30.5009 7.12907 30.1882C7.37468 29.4956 7.40684 28.7452 7.22138 28.0341C7.10671 27.6403 6.84195 27.3073 6.48415 27.1069C6.12634 26.9064 5.7041 26.8544 5.30837 26.9622Z" fill="#F11E3F"/>
<path d="M38.3119 12.1509C35.8501 10.6431 32.6293 11.9458 30.665 13.6895C28.7007 15.4333 27.4185 18.0284 26.562 20.6133C26.4081 20.9415 26.2645 21.2749 26.1363 21.639C26.003 21.3005 25.8645 20.9672 25.7106 20.6441C24.9003 18.172 23.7104 15.6897 21.8949 13.9767C19.9152 12.0996 16.5353 10.6123 13.9556 12.1919C12.1657 13.2895 11.7554 15.623 13.7043 16.8078C15.1711 17.6951 16.6943 17.0437 18.2791 17.1976C21.3974 17.5053 23.1411 20.203 24.6746 22.5981C24.793 22.7709 24.9674 22.8974 25.1683 22.9563C25.3693 23.0152 25.5844 23.0028 25.7773 22.9212C25.8029 22.9879 25.8337 23.0546 25.8542 23.1264C25.8488 23.1662 25.852 23.2068 25.8636 23.2454C25.8751 23.2839 25.8948 23.3196 25.9213 23.3499C25.9478 23.3802 25.9804 23.4045 26.0171 23.4211C26.0537 23.4378 26.0935 23.4464 26.1338 23.4464C26.174 23.4464 26.2138 23.4378 26.2504 23.4211C26.2871 23.4045 26.3197 23.3802 26.3462 23.3499C26.3727 23.3196 26.3924 23.2839 26.4039 23.2454C26.4155 23.2068 26.4187 23.1662 26.4133 23.1264L26.4902 22.9212C26.6863 23.0009 26.9042 23.0091 27.1058 22.9444C27.3073 22.8797 27.4797 22.7463 27.5929 22.5673C29.1315 20.1722 30.8701 17.4745 33.9935 17.1668C35.4655 17.0232 36.9066 17.6181 38.3222 16.9206C40.4762 15.8282 40.2249 13.3356 38.3119 12.1509Z" fill="#F11E3F"/>
<path d="M45.5025 17.367C45.5871 17.0061 45.5871 16.6305 45.5025 16.2695C45.3799 15.7996 45.0803 15.3954 44.6665 15.1412C44.398 15.0029 44.1049 14.919 43.8039 14.8944C43.5028 14.8697 43.1999 14.9048 42.9125 14.9976C42.3778 15.1554 41.9253 15.5148 41.6507 16C41.376 16.4852 41.3007 17.0581 41.4406 17.5978C41.5793 18.0393 41.8506 18.4273 42.2177 18.709C42.5848 18.9907 43.0298 19.1525 43.4921 19.1724C43.942 19.1769 44.3799 19.0265 44.732 18.7463C45.0841 18.4661 45.329 18.0732 45.4256 17.6337C45.466 17.5498 45.492 17.4596 45.5025 17.367Z" fill="#F11E3F"/>
<path d="M49.2873 21.8438C49.2117 21.5751 49.0507 21.3382 48.8287 21.1689C48.6067 20.9996 48.3356 20.9071 48.0564 20.9053L47.1333 21.0284C46.6419 20.9997 46.1554 21.1389 45.7537 21.4233C45.5093 21.7028 45.3631 22.0545 45.3372 22.4249C45.3112 22.7952 45.4071 23.1639 45.6101 23.4748C45.7989 23.762 46.0768 23.9793 46.4011 24.0932C46.7254 24.2072 47.0781 24.2115 47.4051 24.1056C47.6872 24.1869 47.9878 24.1772 48.2641 24.0777C48.5403 23.9783 48.7782 23.7942 48.9437 23.5517C49.1321 23.3145 49.2615 23.0361 49.3212 22.7391C49.381 22.4422 49.3693 22.1354 49.2873 21.8438Z" fill="#F11E3F"/>
<path d="M47.8048 27.4449C47.5605 27.2282 47.2742 27.0641 46.9637 26.9628C46.7636 26.906 46.5541 26.8903 46.3479 26.9168C46.1416 26.9432 45.9428 27.0112 45.7636 27.1166C45.4166 27.3266 45.1619 27.66 45.0507 28.0501C44.8626 28.7609 44.8948 29.512 45.143 30.2041C45.2389 30.5131 45.4298 30.784 45.6885 30.9783C45.9473 31.1726 46.2607 31.2803 46.5842 31.2863C46.9696 31.2758 47.3458 31.1654 47.6758 30.9658C48.0057 30.7662 48.2782 30.4843 48.4664 30.1477C48.674 29.7721 48.7608 29.3415 48.7149 28.9148C48.669 28.488 48.4927 28.0858 48.21 27.7629C48.0956 27.6329 47.9582 27.5251 47.8048 27.4449Z" fill="#F11E3F"/>
<path d="M35.3061 3.43186C32.7674 2.12404 30.08 4.10372 28.7209 6.15521C27.4231 8.1229 26.5498 10.3395 26.1565 12.6636C25.7633 10.3395 24.8899 8.1229 23.5921 6.15521C22.1869 4.10372 19.4892 2.12404 16.9658 3.43186C14.9144 4.49863 15.0939 7.02197 16.7043 8.42723C17.8634 9.45298 19.5148 9.68377 20.8073 10.5044C22.8587 11.8122 23.9255 13.7919 24.6692 16.0331C24.7974 16.8537 25.7308 16.8024 26.1514 16.2844C26.5719 16.7973 27.5002 16.8537 27.6336 16.0331C28.3721 13.8021 29.4491 11.7917 31.4904 10.5044C32.7777 9.6889 34.4189 9.43759 35.5934 8.42723C37.173 7.03222 37.3679 4.49863 35.3061 3.43186Z" fill="#0EC8C5"/>
<path d="M28.0234 3.49345C28.0135 3.18319 27.9268 2.88025 27.7711 2.61173C27.6153 2.34321 27.3954 2.11751 27.131 1.95483C26.8935 1.8084 26.6218 1.72663 26.3429 1.71763C26.064 1.70863 25.7876 1.77272 25.5411 1.90354C25.2337 2.06816 24.978 2.31497 24.8026 2.61644C24.7423 2.7314 24.6975 2.85385 24.6693 2.98058L24.618 3.07802C24.4921 3.29173 24.4258 3.53522 24.4258 3.78322C24.4258 4.03122 24.4921 4.27471 24.618 4.48842C24.7901 4.77767 25.0375 5.01484 25.3337 5.17469C25.6299 5.33455 25.9639 5.4111 26.3002 5.3962C26.5771 5.38282 26.8472 5.30548 27.0892 5.17022C27.3313 5.03497 27.5387 4.84549 27.6952 4.61664C27.9483 4.30008 28.0662 3.89646 28.0234 3.49345Z" fill="#FFB536"/>
<path d="M14.8733 36.8604C14.0676 37.2022 13.387 37.7843 12.9244 38.5272C12.796 38.6863 12.6843 38.8582 12.591 39.0401C12.1923 39.8303 12.0598 40.7281 12.2133 41.5997C12.3667 42.4714 12.7978 43.27 13.4424 43.8765C14.1905 44.5062 15.1338 44.8571 16.1116 44.8692C17.0894 44.8813 18.0411 44.554 18.8046 43.9429C19.5681 43.3319 20.096 42.4751 20.2985 41.5184C20.5009 40.5617 20.3653 39.5644 19.9148 38.6965C19.4514 37.8202 18.679 37.1472 17.7475 36.8079C16.816 36.4687 15.7918 36.4874 14.8733 36.8604Z" fill="#FFB536"/>
<path d="M38.717 34.9681C38.1142 34.7654 37.4729 34.7041 36.8426 34.7891C36.2124 34.874 35.6102 35.1029 35.0826 35.4579C34.555 35.813 34.1161 36.2847 33.8001 36.8365C33.4841 37.3883 33.2993 38.0055 33.26 38.6403C33.2261 39.5074 33.4864 40.3605 33.9986 41.061C34.1812 41.4065 34.4165 41.7214 34.6961 41.9944C35.1348 42.4161 35.6628 42.7337 36.2409 42.9237C36.8191 43.1136 37.4325 43.1711 38.0359 43.0918C38.6392 43.0125 39.217 42.7985 39.7264 42.4656C40.2359 42.1327 40.6639 41.6895 40.9788 41.1687C41.2975 40.6247 41.4922 40.0171 41.549 39.3891C41.6057 38.7612 41.5231 38.1285 41.3071 37.5361C41.091 36.9438 40.7468 36.4065 40.2991 35.9626C39.8514 35.5187 39.3111 35.1791 38.717 34.9681Z" fill="#FFB536"/>
<path d="M14.1654 35.3326C15.8761 35.7472 17.6791 35.5305 19.2428 34.7222C19.7608 34.5406 20.2605 34.3105 20.7353 34.035C24.269 31.9835 25.6794 27.4856 23.3458 23.9571C23.1011 23.5874 22.8193 23.2437 22.5047 22.9313C22.1526 22.4473 21.7427 22.0081 21.284 21.6235C18.4632 19.295 14.0628 19.4899 11.6369 22.3364C11.4203 22.5943 11.2215 22.8668 11.042 23.1518C10.1306 24.1387 9.50477 25.3549 9.23155 26.6701C8.51353 30.2603 10.4471 34.3632 14.1654 35.3326Z" fill="#14154D"/>
<path d="M43.4815 25.3367C43.3789 22.7724 41.6967 20.8337 39.2349 19.8747C36.927 18.9771 34.4139 19.2541 32.6445 20.8337C32.4855 20.9462 32.3331 21.0678 32.1881 21.1979C30.5828 22.6237 29.8545 24.8341 29.8442 26.942C29.8442 29.2397 30.7674 31.6707 32.783 32.9324C33.6257 33.4346 34.5721 33.7378 35.5498 33.8187C36.5275 33.8995 37.5108 33.756 38.4246 33.3991C39.5949 33.1243 40.6625 32.5212 41.5018 31.6605C42.1335 31.02 42.6302 30.2591 42.9624 29.423C43.2945 28.587 43.4553 27.6927 43.4354 26.7933C43.5148 26.3119 43.5303 25.8222 43.4815 25.3367Z" fill="#14154D"/>
<path d="M23.423 38.9788C23.359 39.2328 23.3778 39.5005 23.4765 39.7431C23.5752 39.9857 23.7487 40.1905 23.9717 40.3277C24.2007 40.4576 24.4657 40.5094 24.7267 40.4752C24.9877 40.4409 25.2304 40.3225 25.418 40.1379C26.0545 39.4384 26.6245 38.6812 27.1208 37.8762L27.1823 37.9531C27.5362 38.5326 27.8696 39.1224 28.1722 39.7276C28.3169 39.9791 28.5479 40.1696 28.8222 40.2639C29.0966 40.3582 29.3959 40.3499 29.6646 40.2405C29.8738 40.1401 30.0513 39.9839 30.1775 39.7892C30.2516 39.7661 30.3223 39.7333 30.3878 39.6917C30.9006 39.3789 31.2238 38.5839 30.8186 38.0557C29.9467 36.9274 29.0543 35.8042 28.1414 34.7066C27.9358 34.503 27.663 34.3814 27.3741 34.3644C27.0852 34.3474 26.8001 34.4362 26.572 34.6143C26.5464 34.6143 26.5207 34.6656 26.4951 34.6912C26.4466 34.6985 26.3987 34.7088 26.3515 34.722C25.4693 34.999 24.8129 35.9375 24.3308 36.6863C23.9005 37.3936 23.5935 38.1688 23.423 38.9788Z" fill="#14154D"/>
<path d="M40.9121 48.6415C40.9121 48.3133 40.9121 47.9851 40.9121 47.6517C38.5868 48.5684 36.1837 49.2739 33.7319 49.7596C33.6909 48.6159 33.6191 47.4773 33.5985 46.3387C33.5985 46.0002 33.0395 45.8925 32.9831 46.2516C32.7882 47.4824 32.5933 48.7236 32.5112 49.9699C31.5573 50.1289 30.6034 50.2673 29.6494 50.3597C29.6851 48.9892 29.6216 47.618 29.4597 46.2567C29.3981 45.8464 28.7827 45.9028 28.6852 46.2567C28.3402 47.644 28.168 49.0686 28.1723 50.4981C27.0645 50.5699 25.9516 50.6007 24.8438 50.5853C24.6387 49.1544 24.4745 47.7235 24.2335 46.2977C24.2152 46.2379 24.1781 46.1855 24.1278 46.1483C24.0775 46.1111 24.0166 46.091 23.954 46.091C23.8914 46.091 23.8305 46.1111 23.7802 46.1483C23.7298 46.1855 23.6928 46.2379 23.6745 46.2977C23.436 47.7033 23.3534 49.1309 23.4283 50.5546C22.5461 50.5186 21.6691 50.4468 20.7972 50.3597C20.7972 49.5596 20.7972 48.7595 20.7972 47.9594C20.794 47.8475 20.751 47.7404 20.676 47.6573C20.601 47.5741 20.4989 47.5204 20.388 47.5056C20.277 47.4908 20.1644 47.5159 20.0702 47.5765C19.9761 47.6371 19.9066 47.7292 19.8741 47.8363C19.6456 48.6082 19.5418 49.4115 19.5664 50.2161C17.4627 49.9366 15.3807 49.5134 13.335 48.9493C13.376 49.1134 13.417 49.2775 13.4529 49.4621C15.4619 50.1186 17.5199 50.6142 19.6074 50.9443C19.6074 51.17 19.6433 51.3957 19.6638 51.6213C19.7766 52.6471 19.8536 53.8626 20.5972 54.637C20.6635 54.7012 20.747 54.7445 20.8376 54.7617C20.9282 54.7788 21.0219 54.7691 21.107 54.7336C21.1921 54.6982 21.2649 54.6385 21.3165 54.5621C21.3681 54.4857 21.3962 54.3958 21.3973 54.3036C21.5255 53.2779 20.987 52.1855 20.8844 51.1649V51.1238C21.7563 51.2315 22.6282 51.3187 23.5052 51.37V51.5649C23.6129 52.9291 23.5616 54.6421 24.6079 55.6217C24.6522 55.6645 24.7055 55.6968 24.764 55.7162C24.8224 55.7356 24.8845 55.7416 24.9456 55.7337C25.0067 55.7258 25.0652 55.7043 25.1169 55.6707C25.1685 55.6371 25.2119 55.5923 25.2439 55.5397C25.7567 54.278 25.2439 53.0317 25.0336 51.7085C25.0336 51.6162 25.0336 51.5187 24.9925 51.4264C26.0439 51.4521 27.1004 51.4264 28.1518 51.3751C28.0903 52.5342 28.0236 53.7241 28.6032 54.7447C28.6432 54.8116 28.7 54.867 28.7678 54.9055C28.8357 54.944 28.9124 54.9642 28.9904 54.9642C29.0684 54.9642 29.1451 54.944 29.2129 54.9055C29.2808 54.867 29.3375 54.8116 29.3776 54.7447C29.8905 53.6523 29.752 52.4573 29.6905 51.2726C30.6136 51.1854 31.5368 51.0623 32.46 50.9136C32.3882 51.9393 32.3112 53.0779 32.8497 53.9292C32.8856 53.9899 32.9366 54.0401 32.9977 54.075C33.0589 54.1098 33.1281 54.1282 33.1985 54.1282C33.2689 54.1282 33.3381 54.1098 33.3992 54.075C33.4604 54.0401 33.5114 53.9899 33.5473 53.9292C34.0601 52.9394 33.8139 51.7957 33.778 50.6982C36.2105 50.2177 38.5972 49.5297 40.9121 48.6415Z" fill="#14154D"/>
<path d="M26.3054 28.5678H26.3875C26.4926 28.5975 26.6024 28.6062 26.7109 28.5934C26.8193 28.5806 26.9241 28.5465 27.0194 28.4932C27.1147 28.4398 27.1985 28.3682 27.2661 28.2825C27.3336 28.1967 27.3836 28.0985 27.4132 27.9934C27.4702 27.7806 27.4414 27.5539 27.333 27.3621C27.2247 27.1703 27.0454 27.0287 26.8337 26.9676H26.7568C26.5446 26.9091 26.3179 26.9365 26.1259 27.0441C25.9338 27.1516 25.7919 27.3306 25.731 27.5421C25.6752 27.7541 25.7039 27.9796 25.811 28.171C25.9182 28.3623 26.0954 28.5046 26.3054 28.5678Z" fill="#14154D"/>
<path d="M26.4489 30.9833C26.2793 31.1629 26.1707 31.3914 26.1385 31.6363C26.1062 31.8813 26.1521 32.1301 26.2694 32.3475C26.417 32.5756 26.6296 32.7543 26.8797 32.8604C27.0444 32.9901 27.2497 33.0573 27.4593 33.0501C27.6835 33.043 27.8999 32.966 28.0783 32.8299C28.2567 32.6939 28.3881 32.5055 28.4542 32.2911C28.5099 32.113 28.5263 31.925 28.5024 31.74C28.4785 31.5549 28.4149 31.3773 28.3158 31.2192C27.9209 30.6037 26.9515 30.3473 26.4489 30.9833Z" fill="#14154D"/>
</g>
<defs>
<clipPath id="clip0_377_1459">
<rect width="51" height="58.9239" fill="white"/>
</clipPath>
</defs>
</svg>
