<svg width="25" height="32" viewBox="0 0 25 32" fill="none" xmlns="http://www.w3.org/2000/svg">
<path d="M7.32719 3.60385C9.33577 2.99572 11.2228 2.14389 12.4975 1.04719C13.7724 2.14406 15.6609 2.99587 17.6706 3.60394C19.6878 4.21429 21.9256 4.60839 23.9999 4.73908C23.9952 10.6785 23.8076 16.4795 22.2765 21.1788C20.7541 25.8498 17.8123 29.3556 12.5465 30.4489L12.5025 30.4448L12.4549 30.4489C7.18897 29.3557 4.24567 25.8499 2.7235 21.1789C1.19234 16.4795 1.00475 10.6783 1.00009 4.73908C3.07449 4.60838 5.31115 4.21425 7.32719 3.60385Z" fill="#B25445" stroke="#813F35" stroke-width="2"/>
<path d="M9.60185 21.296C9.62319 21.3173 9.69785 21.376 9.82586 21.472C9.95385 21.568 10.1299 21.648 10.3539 21.712C10.5032 21.7547 10.6472 21.7973 10.7859 21.84C10.9352 21.8827 11.0845 21.9147 11.2339 21.936C11.6392 21.9893 12.0765 22.0107 12.5459 22C13.0152 22 13.4472 21.9413 13.8419 21.824C14.2365 21.696 14.5619 21.504 14.8179 21.248C15.0845 20.992 15.2925 20.688 15.4419 20.336C15.5805 20.048 15.6552 19.744 15.6659 19.424C15.6765 19.104 15.6925 18.7893 15.7139 18.48C15.7459 17.616 15.7619 16.7467 15.7619 15.872C15.7725 14.9867 15.7672 14.0907 15.7459 13.184C15.7565 12.9813 15.7459 12.784 15.7139 12.592C15.6925 12.3893 15.6285 12.2027 15.5219 12.032C15.3405 11.712 15.0685 11.4453 14.7059 11.232C14.3539 11.0187 13.9539 10.864 13.5059 10.768C13.0685 10.672 12.6099 10.64 12.1299 10.672C11.6605 10.6933 11.2125 10.784 10.7859 10.944C10.3699 11.104 9.99652 11.328 9.66585 11.616C9.34585 11.904 9.12185 12.2613 8.99385 12.688C8.90852 12.9227 8.87652 13.1787 8.89785 13.456C8.91919 13.7227 8.92985 13.9627 8.92985 14.176V14.208C8.95119 14.208 9.05252 14.208 9.23385 14.208C9.42585 14.1973 9.63919 14.192 9.87385 14.192C10.1192 14.192 10.3539 14.192 10.5779 14.192C10.8019 14.192 10.9565 14.1867 11.0419 14.176C11.1272 13.952 11.2925 13.7547 11.5379 13.584C11.7832 13.4027 12.0392 13.2907 12.3059 13.248C12.5725 13.2053 12.8072 13.2427 13.0099 13.36C13.2232 13.4773 13.3352 13.7173 13.3459 14.08C13.3672 14.4213 13.2979 14.656 13.1379 14.784C12.9779 14.912 12.7752 14.992 12.5299 15.024C12.2952 15.056 12.0445 15.072 11.7779 15.072C11.5219 15.0613 11.3032 15.088 11.1219 15.152V15.168C11.1432 15.3173 11.1432 15.4933 11.1219 15.696C11.1112 15.888 11.1005 16.0853 11.0899 16.288C11.0792 16.4907 11.0792 16.688 11.0899 16.88C11.1005 17.072 11.1379 17.2373 11.2019 17.376C11.4685 17.3227 11.7672 17.3013 12.0979 17.312C12.4392 17.3227 12.7272 17.4133 12.9619 17.584C13.1859 17.7547 13.3139 17.9787 13.3459 18.256C13.3885 18.5227 13.3459 18.7627 13.2179 18.976C13.0579 19.2 12.8659 19.328 12.6419 19.36C12.4285 19.392 12.2152 19.3707 12.0019 19.296C11.7885 19.2107 11.5965 19.0827 11.4259 18.912C11.2552 18.7413 11.1379 18.56 11.0739 18.368L11.0579 18.352H11.0419C10.6472 18.3307 10.2792 18.3573 9.93786 18.432C9.60719 18.496 9.28185 18.5173 8.96185 18.496H8.94585C8.93519 18.496 8.92985 18.5013 8.92985 18.512C8.97252 18.8427 8.99385 19.1413 8.99385 19.408C9.00452 19.664 9.03119 19.9147 9.07385 20.16C9.09519 20.3733 9.14852 20.5813 9.23385 20.784C9.32985 20.976 9.45252 21.1467 9.60185 21.296Z" fill="black"/>
</svg>
