<svg width="25" height="32" viewBox="0 0 25 32" fill="none" xmlns="http://www.w3.org/2000/svg">
<path d="M12.4975 1.04719C11.2228 2.14389 9.33577 2.99572 7.32719 3.60385C5.31115 4.21425 3.07449 4.60838 1.00009 4.73908C1.00475 10.6783 1.19234 16.4795 2.7235 21.1789M12.4975 1.04719L2.7235 21.1789M12.4975 1.04719C13.7724 2.14406 15.6609 2.99587 17.6706 3.60394C19.6878 4.21429 21.9256 4.60839 23.9999 4.73908C23.9952 10.6785 23.8076 16.4796 22.2765 21.1789C20.754 25.8498 17.8123 29.3556 12.5465 30.4489L12.5025 30.4448L12.4549 30.4489M12.4975 1.04719L12.4549 30.4489M2.7235 21.1789C4.24565 25.8499 7.18895 29.3556 12.4549 30.4489M2.7235 21.1789L12.4549 30.4489" fill="#FFBF42" stroke="#DB8F18" stroke-width="2"/>
<path d="M14.1912 21.9701C14.1805 21.7887 14.1752 21.6021 14.1752 21.4101C14.1752 21.2181 14.1752 21.0314 14.1752 20.8501C14.1752 19.6234 14.2018 18.4127 14.2552 17.2181C14.3192 16.0234 14.3512 14.8127 14.3512 13.5861C14.3512 13.1381 14.3458 12.6954 14.3352 12.2581C14.3245 11.8101 14.3032 11.3567 14.2712 10.8981C13.9832 10.8767 13.7005 10.8607 13.4232 10.8501C13.1458 10.8394 12.8685 10.8341 12.5912 10.8341C12.3458 10.8341 12.1005 10.8394 11.8552 10.8501C11.6205 10.8501 11.3805 10.8554 11.1352 10.8661C11.1138 10.8874 11.0498 10.9781 10.9432 11.1381C10.8472 11.2874 10.7298 11.4741 10.5912 11.6981C10.4525 11.9221 10.3032 12.1674 10.1432 12.4341C9.98316 12.7007 9.83382 12.9621 9.69516 13.2181C9.56716 13.4741 9.45516 13.7087 9.35916 13.9221C9.26316 14.1354 9.20982 14.3061 9.19916 14.4341C9.19916 14.4874 9.28982 14.5461 9.47116 14.6101C9.65249 14.6741 9.86049 14.7381 10.0952 14.8021C10.3298 14.8661 10.5485 14.9194 10.7512 14.9621C10.9538 15.0047 11.0818 15.0261 11.1352 15.0261C11.2205 15.0261 11.2952 14.9781 11.3592 14.8821C11.4232 14.7861 11.4818 14.6847 11.5352 14.5781C11.5885 14.4607 11.6365 14.3594 11.6792 14.2741C11.7218 14.1781 11.7698 14.1354 11.8232 14.1461C11.8338 14.1994 11.8392 14.2474 11.8392 14.2901C11.8392 14.3327 11.8392 14.3807 11.8392 14.4341C11.8392 15.4687 11.8072 16.4927 11.7432 17.5061C11.6792 18.5194 11.6472 19.5434 11.6472 20.5781V22.1301V22.1461C11.8605 22.1674 12.1058 22.1941 12.3832 22.2261C12.6712 22.2474 12.9485 22.2581 13.2152 22.2581C13.3112 22.2581 13.4178 22.2581 13.5352 22.2581C13.6525 22.2474 13.7592 22.2314 13.8552 22.2101C13.9512 22.1887 14.0312 22.1621 14.0952 22.1301C14.1592 22.0874 14.1912 22.0341 14.1912 21.9701Z" fill="black"/>
</svg>
