<svg width="1013" height="26" viewBox="0 0 1013 26" fill="none" xmlns="http://www.w3.org/2000/svg">
<path d="M1 3.75C0.585786 3.75 0.25 4.08579 0.25 4.5C0.25 4.91421 0.585786 5.25 1 5.25V3.75ZM1004.15 21.5C1004.15 23.7091 1005.94 25.5 1008.15 25.5C1010.36 25.5 1012.15 23.7091 1012.15 21.5C1012.15 19.2909 1010.36 17.5 1008.15 17.5C1005.94 17.5 1004.15 19.2909 1004.15 21.5ZM540.143 19.205L540.733 18.7418L540.143 19.205ZM530.401 6.79504L529.811 7.25816L530.401 6.79504ZM1 5.25H525.681V3.75H1V5.25ZM529.811 7.25816L539.553 19.6681L540.733 18.7418L530.991 6.33192L529.811 7.25816ZM544.863 22.25H1008.15V20.75H544.863V22.25ZM539.553 19.6681C540.833 21.2981 542.79 22.25 544.863 22.25V20.75C543.251 20.75 541.728 20.0096 540.733 18.7418L539.553 19.6681ZM525.681 5.25C527.293 5.25 528.816 5.99037 529.811 7.25816L530.991 6.33192C529.711 4.70189 527.754 3.75 525.681 3.75V5.25Z" fill="#FAF5EF"/>
<path d="M1 3.75C0.585786 3.75 0.25 4.08579 0.25 4.5C0.25 4.91421 0.585786 5.25 1 5.25V3.75ZM1004.15 21.5C1004.15 23.7091 1005.94 25.5 1008.15 25.5C1010.36 25.5 1012.15 23.7091 1012.15 21.5C1012.15 19.2909 1010.36 17.5 1008.15 17.5C1005.94 17.5 1004.15 19.2909 1004.15 21.5ZM540.143 19.205L540.733 18.7418L540.143 19.205ZM530.401 6.79504L529.811 7.25816L530.401 6.79504ZM1 5.25H525.681V3.75H1V5.25ZM529.811 7.25816L539.553 19.6681L540.733 18.7418L530.991 6.33192L529.811 7.25816ZM544.863 22.25H1008.15V20.75H544.863V22.25ZM539.553 19.6681C540.833 21.2981 542.79 22.25 544.863 22.25V20.75C543.251 20.75 541.728 20.0096 540.733 18.7418L539.553 19.6681ZM525.681 5.25C527.293 5.25 528.816 5.99037 529.811 7.25816L530.991 6.33192C529.711 4.70189 527.754 3.75 525.681 3.75V5.25Z" fill="#FAF5EF"/>
<path d="M551.69 0.588803C551.463 0.242393 550.998 0.145673 550.651 0.372771C550.305 0.599869 550.208 1.06479 550.435 1.4112L551.69 0.588803ZM983.911 10.5C983.911 12.7091 985.702 14.5 987.911 14.5C990.12 14.5 991.911 12.7091 991.911 10.5C991.911 8.29086 990.12 6.5 987.911 6.5C985.702 6.5 983.911 8.29086 983.911 10.5ZM550.435 1.4112L554.886 8.20077L556.141 7.37838L551.69 0.588803L550.435 1.4112ZM560.531 11.25H987.911V9.75H560.531V11.25ZM554.886 8.20077C556.134 10.1037 558.256 11.25 560.531 11.25V9.75C558.762 9.75 557.111 8.8584 556.141 7.37838L554.886 8.20077Z" fill="#FAF5EF"/>
<path d="M23.6914 16.5C23.6914 18.7091 25.4823 20.5 27.6914 20.5C29.9005 20.5 31.6914 18.7091 31.6914 16.5C31.6914 14.2909 29.9005 12.5 27.6914 12.5C25.4823 12.5 23.6914 14.2909 23.6914 16.5ZM27.6914 17.25H511.695V15.75H27.6914V17.25Z" fill="#FAF5EF"/>
</svg>
