<svg width="25" height="32" viewBox="0 0 25 32" fill="none" xmlns="http://www.w3.org/2000/svg">
<path d="M7.32719 3.60385C9.33577 2.99572 11.2228 2.14389 12.4975 1.04719C13.7724 2.14406 15.6609 2.99587 17.6706 3.60394C19.6878 4.21429 21.9256 4.60839 23.9999 4.73908C23.9952 10.6785 23.8076 16.4795 22.2765 21.1788C20.7541 25.8498 17.8123 29.3556 12.5465 30.4489L12.5025 30.4448L12.4549 30.4489C7.18897 29.3557 4.24567 25.8499 2.7235 21.1789C1.19234 16.4795 1.00475 10.6783 1.00009 4.73908C3.07449 4.60838 5.31115 4.21425 7.32719 3.60385Z" fill="#FFEBB8" stroke="#9A9A9A" stroke-width="2"/>
<path d="M15.731 21.936C15.7736 21.936 15.795 21.9307 15.795 21.92C15.763 21.8027 15.747 21.6853 15.747 21.568C15.7576 21.4507 15.763 21.3333 15.763 21.216C15.7736 20.9493 15.779 20.6827 15.779 20.416C15.779 20.1387 15.7363 19.8933 15.651 19.68C14.9576 19.68 14.3016 19.6907 13.683 19.712C13.075 19.7333 12.4136 19.7333 11.699 19.712C11.6563 19.6907 11.635 19.6427 11.635 19.568C11.6456 19.4827 11.6616 19.392 11.683 19.296C11.715 19.2 11.747 19.104 11.779 19.008C11.8216 18.912 11.8536 18.8373 11.875 18.784C12.067 18.5493 12.2963 18.352 12.563 18.192C12.8403 18.0213 13.123 17.8613 13.411 17.712C13.7096 17.5627 14.003 17.4133 14.291 17.264C14.5896 17.1147 14.8563 16.9387 15.091 16.736C15.3363 16.5333 15.539 16.2987 15.699 16.032C15.8696 15.7547 15.971 15.4187 16.003 15.024C16.0136 14.8107 16.0136 14.576 16.003 14.32C15.9923 14.0533 15.9816 13.808 15.971 13.584C15.9176 13.008 15.763 12.48 15.507 12C15.251 11.52 14.883 11.1573 14.403 10.912C14.115 10.7947 13.7523 10.7147 13.315 10.672C12.8883 10.6187 12.451 10.6133 12.003 10.656C11.555 10.6987 11.1336 10.7947 10.739 10.944C10.3443 11.0933 10.0403 11.3067 9.82698 11.584C9.43231 12.0213 9.16565 12.5653 9.02698 13.216C8.89898 13.856 8.89898 14.544 9.02698 15.28V15.312H9.04298C9.40565 15.3547 9.76831 15.3653 10.131 15.344C10.5043 15.3227 10.931 15.2853 11.411 15.232H11.427V15.2C11.4376 15.008 11.4536 14.8 11.475 14.576C11.507 14.352 11.5603 14.144 11.635 13.952C11.7203 13.7493 11.8376 13.584 11.987 13.456C12.147 13.328 12.355 13.264 12.611 13.264C12.8563 13.296 13.0483 13.408 13.187 13.6C13.3363 13.7813 13.4216 13.9947 13.443 14.24C13.4643 14.4853 13.427 14.7307 13.331 14.976C13.2456 15.2213 13.0963 15.4133 12.883 15.552C12.6056 15.776 12.3176 15.9733 12.019 16.144C11.731 16.3147 11.4376 16.4907 11.139 16.672C10.851 16.8533 10.563 17.0507 10.275 17.264C9.99765 17.4667 9.73098 17.712 9.47498 18C9.30431 18.2773 9.18165 18.576 9.10698 18.896C9.04298 19.2053 9.00031 19.5307 8.97898 19.872C8.95765 20.2027 8.94698 20.544 8.94698 20.896C8.95765 21.248 8.94698 21.6053 8.91498 21.968C8.91498 21.9893 8.92031 22.0053 8.93098 22.016H9.65098L15.731 21.936Z" fill="black"/>
</svg>
