<svg width="225" height="209" viewBox="0 0 225 209" fill="none" xmlns="http://www.w3.org/2000/svg">
<path d="M159.964 163.113C156.759 165.435 153.904 168.177 150.633 170.407C146.953 172.812 143.932 176.309 139.758 177.943C137.202 178.826 134.46 179.03 131.801 178.534C120.758 177.005 109.705 175.377 98.8904 172.774C94.6961 171.802 90.3977 171.095 86.3204 169.728C83.0851 168.612 79.7324 167.822 76.5878 166.468C73.8639 165.406 71.3794 163.838 68.7062 162.69C66.3699 161.656 65.1271 159.262 64.382 156.95C64.2558 155.368 64.3845 153.776 64.7634 152.235C62.282 152.184 59.806 151.983 57.3489 151.632C54.7629 151.142 52.3967 149.851 50.5858 147.941C45.0103 142.227 40.4191 135.673 35.5761 129.354C33.0325 125.938 30.7992 122.29 28.0818 119.003C25.4815 115.986 23.1211 112.77 21.0219 109.385C18.4608 105.047 15.0091 101.255 12.8371 96.6806C11.7956 94.6074 12.614 92.2763 13.1497 90.1908C14.0386 86.7927 15.9247 83.764 16.8308 80.3829C17.7519 77.693 19.4806 75.3529 21.7809 73.6819C25.6699 70.7129 29.9787 68.3681 34.121 65.7708C41.1973 61.299 48.2145 56.7214 55.2525 52.171C60.8038 48.6678 66.06 44.704 71.7084 41.3509C76.6101 38.5283 81.4591 35.5517 86.2911 32.5925C90.4892 30.1251 94.4992 27.2752 99.0493 25.5354C101.305 24.6262 103.829 23.3618 106.282 24.3335C110.443 25.9467 113.427 29.5098 116.05 32.9901C118.975 36.9858 120.952 41.6266 123.72 45.6647C127.265 50.9378 130.49 56.4124 133.667 61.9148C136.279 66.2009 138.619 70.6606 141.5 74.7629C142.991 77.2783 144.847 79.5542 146.296 82.0836C147.964 84.9507 150.317 87.6753 150.194 91.1668C151.008 91.3353 151.822 91.5038 152.649 91.6448C160.1 92.4538 167.546 93.1498 174.98 94.079C183.85 95.3879 192.715 96.4122 201.468 98.082C203.707 98.4622 206.043 99.0611 207.757 100.721C208.481 104.278 209.725 107.783 209.72 111.451C209.76 113.546 208.402 115.271 207.256 116.878C205.575 119.034 203.812 121.116 202.063 123.238C198.506 127.411 194.434 131.085 190.649 135.061C186.364 139.586 181.73 143.761 177.227 148.052C173.953 151.177 170.437 154.03 167.177 157.162C164.912 159.309 162.502 161.297 159.964 163.113ZM173.646 140.831C175.649 139.247 177.526 137.509 179.259 135.634C179.879 135.067 179.368 134.21 179.352 133.528C174.545 137.464 170.156 141.887 165.328 145.796C165.796 145.992 166.257 146.2 166.705 146.471C169.281 144.857 171.335 142.653 173.646 140.831ZM14.7059 94.9412C15.4747 97.6577 17.3404 99.8958 18.8162 102.267C21.8535 106.557 24.0517 111.409 27.4062 115.487C30.0397 118.719 32.5505 122.039 34.9386 125.447C39.3213 131.224 43.8442 136.942 48.7313 142.318C50.8119 144.414 52.7129 146.789 55.3405 148.239C56.7392 148.875 58.2527 149.219 59.7887 149.25C58.7216 147.404 56.8305 146.297 55.5693 144.62C52.9677 141.236 50.4344 137.816 47.6795 134.553C42.6056 128.531 37.8452 122.252 32.9654 116.06C28.2947 110.339 24.1883 104.18 20.7037 97.6681C18.7907 93.851 17.4025 89.7927 16.5768 85.6036C15.4607 88.5782 14.8267 91.7119 14.6986 94.8864L14.7059 94.9412ZM131.712 61.7929C128.635 56.8521 125.569 51.9078 122.185 47.1751C118.379 41.9451 115.75 35.8658 111.095 31.27C108.879 28.9112 106.107 26.135 102.619 26.9269C96.2621 28.2077 90.9057 32.0797 85.3723 35.233C78.1518 39.6854 70.6468 43.708 63.7216 48.6552C55.5338 54.3667 47.1308 59.7507 38.832 65.3053C34.3811 68.3404 29.6736 70.9935 25.2749 74.1139C22.6115 75.9761 19.9757 78.2872 18.9309 81.4636C18.1975 83.7084 18.9291 86.048 19.4776 88.221C21.3193 95.7157 25.6805 102.234 30.06 108.471C34.6789 114.638 39.6492 120.558 44.4965 126.555C49.1485 132.114 53.9775 137.521 58.2069 143.42C59.3733 145.355 60.7726 147.139 62.3734 148.733C62.7935 149.107 63.3148 149.349 63.8719 149.427C64.4289 149.506 64.9968 149.418 65.504 149.175C68.0372 148.205 70.4475 146.876 73.0266 146.074C75.2266 145.471 77.0187 144.01 78.9644 142.897C81.5208 141.392 84.0596 139.836 86.5153 138.171C90.8468 135.223 95.3935 132.602 99.597 129.514C106.798 124.266 114.369 119.533 121.59 114.313C128.009 109.459 134.649 104.953 140.514 99.4513C142.738 97.5448 144.862 95.5254 146.879 93.401C147.969 92.0312 148.942 90.22 148.321 88.4385C143.148 79.3446 137.271 70.6403 131.725 61.7311L131.712 61.7929ZM181.976 97.3124C174.992 96.0231 167.969 95.0564 160.935 94.0931C157.191 93.5979 153.541 92.5773 149.689 92.7378C148.924 94.1335 147.959 95.4096 146.824 96.5251C145.409 97.9831 143.808 99.2986 142.345 100.716C136.498 106.303 129.896 110.99 123.482 115.923C116.095 121.464 108.313 126.452 100.926 131.993C96.9517 134.979 92.672 137.544 88.5865 140.373C85.9299 142.222 83.2004 143.958 80.4121 145.622C78.6273 146.864 76.7451 147.96 74.7837 148.899C72.3393 149.827 69.9579 150.905 67.5765 151.984C69.8948 153.439 72.3278 154.703 74.8512 155.763C78.5011 157.3 82.2654 158.549 86.1099 159.498C92.4729 161.445 98.9392 163.036 105.479 164.263L108.054 164.723C111.474 165.341 114.904 165.955 118.315 166.645C122.377 167.433 126.438 168.45 130.597 168.449C133.336 168.394 135.966 167.368 138.018 165.555C142.98 161.634 147.728 157.524 152.402 153.3C155.314 150.689 158.426 148.329 161.565 146.018L161.94 145.741C165.646 143.006 169.116 139.917 172.511 136.876C177.468 132.442 182.761 128.385 187.494 123.729C191.479 119.8 195.653 116.057 199.361 111.855C201.484 109.61 203.324 107.114 204.84 104.423C205.232 103.606 205.431 102.711 205.423 101.806C197.675 99.689 189.784 98.6982 182 97.2814L181.976 97.3124Z" fill="#813F35"/>
<path d="M135.427 99.1517C130.623 102.193 126.149 105.763 121.345 108.77C114.437 113.333 107.686 118.118 100.975 122.923C97.5355 125.463 94.2239 128.177 90.7045 130.619C87.3314 132.919 84.1946 135.608 80.6933 137.733C78.7615 139.025 76.7608 140.211 74.7001 141.285C73.6169 141.83 72.4313 142.143 71.2198 142.202C70.0084 142.261 68.798 142.066 67.6668 141.628C64.2814 140.173 61.6752 137.512 59.0361 135.023C56.3969 132.534 53.8107 129.797 51.3136 127.053C48.1659 123.546 44.7387 120.261 41.9115 116.518C39.5345 113.355 36.8303 110.441 34.5862 107.163C33.2086 105.079 31.7322 103.075 30.283 101.049C27.4627 96.6183 25.132 91.8941 23.3321 86.9598C22.7061 85.3977 23.8467 83.9418 24.8187 82.8301C27.4545 79.8548 30.4787 77.2477 33.81 75.0791C35.6653 73.8027 38.0375 73.3006 39.8782 71.9147C46.2645 67.7706 52.6403 63.5957 59.0544 59.4994C66.719 54.4024 74.6195 49.6601 82.1627 44.3754C87.5158 40.9629 93.0767 37.8231 98.7667 34.96C100.902 33.9318 102.697 31.977 105.06 31.6498C105.442 31.6957 105.809 31.8247 106.136 32.0277C106.463 32.2306 106.741 32.5027 106.952 32.8248C108.062 34.4784 109.018 36.2304 109.808 38.0588C110.873 40.0533 112.08 41.9689 113.419 43.7909C116.998 48.961 120 54.4887 123.388 59.77C125.856 63.6355 128.059 67.6951 130.616 71.5188C133.589 75.9907 135.983 80.81 138.956 85.2819C140.468 87.3891 141.277 89.919 141.269 92.5123C139.966 95.2182 137.945 97.5147 135.427 99.1517ZM70.5402 130.263C72.4783 130.368 74.1257 129.254 75.6538 128.227C79.9208 125.358 84.0214 122.271 88.3335 119.466C87.5093 118.431 86.6851 117.395 85.878 116.341C88.685 112.688 92.9106 110.67 96.4789 107.902C98.9689 106.152 101.556 104.544 104.228 103.086C106.239 101.912 108.383 100.982 110.615 100.317C111.561 101.208 112.508 102.098 113.43 103.02C117.358 100.531 121.15 97.8818 125.063 95.3858C126.361 94.7928 125.636 93.3103 125.183 92.3881C121.115 85.1166 116.299 78.307 111.978 71.202C109.313 67.1632 107.463 62.6619 104.734 58.6681C103.71 57.1503 102.646 55.6466 101.629 54.115C98.2824 56.7266 94.5163 58.7482 90.9826 61.1144C85.1198 64.6784 79.4168 68.5085 73.6304 72.1953C70.6995 74.0458 67.8035 75.9647 64.9804 77.9961C61.0695 80.8007 56.9124 83.254 52.9011 85.9325C49.9384 88.0919 46.9303 90.1522 43.794 92.0387C46.2297 95.196 48.4757 98.4954 50.5199 101.919C55.3961 109.996 60.8625 117.702 66.8745 124.973C68.238 126.581 68.9645 128.705 70.5402 130.263ZM87.8015 116.337C88.4586 117.052 89.1157 117.766 89.7625 118.485C94.057 115.629 98.49 112.944 102.757 110.075C106.038 107.807 109.308 105.542 112.679 103.438L110.4 101.731C106.842 102.822 103.822 105.047 100.63 106.872C98.1009 108.356 95.9081 110.321 93.4311 111.89C91.3836 113.142 89.4936 114.635 87.8015 116.337V116.337ZM42.7935 90.8224C46.1563 88.5262 49.4252 86.0558 52.781 83.739C56.7246 81.1639 60.7685 78.7149 64.6219 76.0102C68.8128 73.0525 73.2223 70.4326 77.5451 67.6934C85.2651 62.6576 93.2323 58.1103 101.072 53.4919C100.332 52.2667 99.6128 51.0346 98.8933 49.8024C96.3704 50.7685 94.2095 52.4245 91.8087 53.6468C86.7823 56.3058 82.048 59.4838 77.112 62.3067C68.5378 67.176 60.2437 72.5229 52.2688 78.322C48.2456 81.2338 44.1323 84.016 39.8626 86.5422C40.892 87.9434 41.8735 89.3724 42.7935 90.8224ZM105.439 33.6287C104.278 34.1227 103.17 34.7322 102.131 35.4479C98.6456 37.8892 94.6009 39.3644 90.9732 41.5564C86.5281 43.9123 82.2274 46.5314 78.0943 49.3997C65.6133 57.2673 53.1286 65.0903 40.4424 72.5926C37.7803 74.0828 35.2918 75.8641 33.0229 77.9037C30.1998 80.3706 27.27 82.7938 25.2068 85.9748L25.4135 86.9812C32.6484 81.7332 40.3996 77.191 47.9014 72.3215C54.7977 68.0603 61.4753 63.4613 68.2711 59.074C73.3165 55.7668 78.3793 52.5108 83.4041 49.2106C88.4289 45.9104 94.0203 43.1612 99.2444 39.9075C101.749 38.386 104.331 37.0217 106.925 35.5612C106.409 34.9241 105.955 34.2659 105.439 33.6287Z" fill="#813F35"/>
<path d="M48.8646 95.8739C47.8415 95.2613 46.5311 93.8761 47.4887 92.689C48.2298 91.874 49.1194 90.7561 50.3488 91.0002C52.0507 91.1515 53.1286 93.0631 53.117 94.6371C52.7649 96.5223 50.2471 96.8334 48.8646 95.8739ZM50.4398 91.6681C49.679 92.1575 48.9185 92.6813 48.189 93.2287C48.6547 94.0206 49.0742 95.0459 50.0906 95.2368C50.9051 95.4739 51.5687 94.8344 52.2245 94.5069C51.8793 93.4249 51.2653 92.4481 50.4398 91.6681V91.6681Z" fill="#813F35"/>
<path d="M53.017 91.5649C52.5187 90.1081 53.1038 87.7651 54.9801 87.8567C55.9104 87.8308 56.8271 88.084 57.6123 88.5835C58.0806 89.0537 58.4043 89.6483 58.5449 90.2969C58.6855 90.9455 58.6371 91.6208 58.4056 92.2427C57.266 94.2712 53.5193 93.9714 53.017 91.5649ZM56.9748 89.0651C56.5076 88.8981 56.0071 88.8456 55.5154 88.9121C55.0237 88.9786 54.5552 89.1622 54.1491 89.4473C54.2873 90.4543 53.8277 92.1929 55.1738 92.4429C56.0771 92.6381 57.5973 92.3588 57.5917 91.2033C57.6438 90.4402 57.4254 89.6832 56.9748 89.0651V89.0651Z" fill="#813F35"/>
<path d="M73.7907 107.505C73.9662 108.453 72.9721 108.931 72.3693 109.446C69.6646 111.288 67.349 113.765 64.165 114.808C65.6521 110.747 69.9914 108.793 73.7907 107.505Z" fill="#813F35"/>
<path d="M65.6685 99.3045L66.2276 99.7664C63.8893 102.411 60.6345 104.052 57.5719 105.718C59.3687 102.663 62.5841 100.806 65.6685 99.3045Z" fill="#813F35"/>
<path d="M58.1519 109.29C60.4592 105.315 64.9936 103.764 69.0098 102.138C67.6364 103.465 66.1087 104.622 64.4593 105.585C62.4522 106.976 60.3438 108.214 58.1519 109.29V109.29Z" fill="#813F35"/>
<path d="M70.7709 105.913C68.0321 108.562 64.8055 110.654 61.2699 112.074C63.1658 108.102 67.7159 106.798 71.1373 104.539C71.0758 104.995 71.1935 105.574 70.7709 105.913Z" fill="#813F35"/>
<path d="M74.5724 112.737C72.5658 114.038 70.4112 115.094 68.1543 115.884C70.3257 112.952 73.8187 111.505 77.0162 109.999C76.7349 111.287 75.5127 111.969 74.5724 112.737Z" fill="#813F35"/>
<path d="M179.22 105.234C178.108 106.508 176.69 107.486 175.509 108.692C173.685 110.462 172.152 112.579 170.532 114.577C168.033 117.724 165.185 120.486 162.52 123.448C162.003 124.015 161.483 124.571 160.953 125.131C158.854 127.304 156.662 129.337 154.387 131.364C150.54 134.823 147.021 138.64 143.156 142.082C141.188 143.901 139.103 145.576 137.066 147.327C133.885 150.02 130.994 153.026 127.709 155.616C126.271 156.773 124.699 158.307 122.68 157.932C118.626 157.405 114.546 156.933 110.502 156.368C103.918 155.541 97.4472 153.976 91.2127 151.702C88.9941 150.811 86.3543 151.301 84.3949 149.794C84.2778 148.413 85.797 147.997 86.7076 147.376C89.2697 145.72 91.7624 143.962 94.3314 142.327C101.359 137.746 107.79 132.36 114.606 127.496C121.078 122.684 127.211 117.431 132.961 111.775C135.41 109.654 137.613 107.285 140.01 105.113C142.793 102.763 145.113 99.9293 147.667 97.348L147.906 97.1061C148.345 96.7152 148.835 96.2039 149.485 96.4628C152.568 97.4364 155.628 98.5097 158.755 99.3081C163.126 100.128 167.576 100.508 171.983 101.533C174.006 101.986 176.091 102.419 178.137 102.774C179.259 102.802 180.122 104.421 179.22 105.234ZM171.629 111.016C170.4 110.637 169.135 110.386 167.855 110.267C165.843 111.723 164.067 113.499 162.142 115.075C163.771 115.515 165.41 115.951 167.002 116.518C168.634 114.756 170.152 112.896 171.629 111.016ZM125.854 137.698C127.778 135.986 129.685 134.256 131.595 132.537C129.916 131.851 128.291 131.02 126.579 130.437C124.315 132.059 122.369 134.077 120.192 135.819C122.079 136.411 123.929 137.062 125.854 137.698ZM119.208 136.66C116.983 138.464 114.731 140.323 112.578 142.136C114.647 142.689 116.729 143.249 118.804 143.788C120.78 142.127 122.714 140.411 124.659 138.726C122.867 138.009 121.047 137.314 119.208 136.66ZM132.861 131.313C134.543 129.798 136.193 128.26 137.858 126.728C136.091 126.186 134.335 125.572 132.588 124.921C130.923 126.419 129.247 127.92 127.565 129.401C129.343 130.042 131.117 130.672 132.881 131.306L132.861 131.313ZM139.152 125.552C140.83 124.026 142.512 122.511 144.177 120.979C142.335 120.395 140.5 119.8 138.673 119.195C137.037 120.775 135.379 122.327 133.728 123.9C135.543 124.483 137.361 125.007 139.172 125.545L139.152 125.552ZM145.324 119.911C147.445 117.936 149.524 115.907 151.62 113.895C149.628 113.431 147.625 112.97 145.592 112.52C143.594 114.418 141.582 116.309 139.636 118.258C141.554 118.84 143.444 119.374 145.345 119.904L145.324 119.911ZM147.163 120.497C148.848 121.066 150.535 121.509 152.263 122.006C154.579 119.965 156.895 117.924 159.176 115.849L153.435 114.375C151.335 116.377 149.27 118.447 147.184 120.49L147.163 120.497ZM145.958 121.631C144.331 123.173 142.653 124.664 141.05 126.243C142.539 126.665 143.958 127.303 145.262 128.137L150.741 123.318C149.16 122.782 147.516 122.266 145.986 121.644L145.958 121.631ZM139.712 127.423C138.102 128.913 136.491 130.404 134.899 131.911C136.322 132.456 137.743 132.99 139.214 133.438C140.872 131.988 142.51 130.511 144.217 129.102C142.69 128.63 141.192 128.067 139.732 127.416L139.712 127.423ZM133.435 133.26C131.569 134.975 129.704 136.691 127.8 138.362C129.089 138.78 130.44 139.178 131.756 139.61C133.733 138.085 135.62 136.466 137.534 134.86C136.203 134.284 134.837 133.743 133.455 133.253L133.435 133.26ZM126.537 139.493C124.664 141.119 122.815 142.783 120.928 144.402C122.203 144.78 123.482 145.167 124.692 145.59L130.288 140.845L126.537 139.493ZM119.559 145.558C117.933 146.871 116.273 148.114 114.572 149.338C115.922 149.701 117.262 150.068 118.596 150.448C120.122 149.216 121.739 148.113 123.262 146.904C122.058 146.434 120.821 145.998 119.586 145.572L119.559 145.558ZM117.431 144.865C115.451 144.236 113.468 143.631 111.491 143.012C109.703 144.483 107.872 145.832 106.099 147.148C108.103 147.712 110.13 148.211 112.143 148.737C113.923 147.509 115.699 146.202 117.431 144.865ZM109.306 142.488C107.963 142.076 106.602 141.751 105.242 141.426C103.494 142.814 101.877 144.387 100.077 145.725L103.829 146.642C105.69 145.249 107.552 143.959 109.306 142.488ZM110.42 141.556C112.707 139.697 114.979 137.831 117.217 135.931C116.123 135.515 115.026 135.088 113.953 134.63C111.431 136.638 108.93 138.708 106.347 140.669L110.42 141.556ZM118.12 135.187C120.313 133.291 122.486 131.402 124.697 129.591L121.402 128.3C119.167 130.21 116.974 132.107 114.658 134.045C115.803 134.444 116.961 134.816 118.12 135.187V135.187ZM125.66 128.723L130.813 124.222C129.75 123.775 128.654 123.414 127.533 123.143C125.699 124.481 123.974 126.137 122.26 127.594C123.405 127.959 124.539 128.327 125.66 128.723ZM131.927 123.256C133.574 121.707 135.334 120.154 136.985 118.581C136.005 118.194 135.028 117.818 134.045 117.455C132.235 119.044 130.413 120.619 128.578 122.178C129.699 122.54 130.82 122.901 131.947 123.249L131.927 123.256ZM137.911 117.771C139.91 115.942 141.884 114.04 143.916 112.211L140.622 111.389C138.726 113.184 136.84 114.975 134.903 116.715L137.911 117.771ZM145.043 111.218C147.185 109.339 149.445 107.535 151.521 105.564C150.429 105.117 149.298 104.771 148.142 104.531C145.963 106.503 143.757 108.461 141.609 110.456L145.043 111.218ZM146.771 111.544C148.763 112.008 150.766 112.469 152.758 112.933C154.715 111.118 156.693 109.295 158.661 107.476C156.904 106.931 155.158 106.383 153.362 105.989C152.884 105.797 152.58 106.348 152.232 106.57C150.427 108.161 148.602 109.828 146.774 111.485L146.771 111.544ZM154.499 113.232C156.491 113.696 158.494 114.157 160.507 114.683C162.401 113.015 164.342 111.389 166.274 109.765C164.189 109.142 162.113 108.5 160.045 107.839C158.194 109.63 156.36 111.437 154.499 113.232ZM154.871 128.826C158.685 125.387 162.303 121.735 165.706 117.889C164.094 117.295 162.434 116.797 160.777 116.31C154.733 121.8 148.608 127.199 142.402 132.507C141.602 133.217 140.571 133.856 140.334 135.003C137.574 136.015 135.697 138.468 133.331 140.125C135.59 140.9 137.862 141.612 140.1 142.394C145.251 138.122 149.804 133.207 154.871 128.826ZM138.468 143.754C136.223 143.021 133.978 142.253 131.784 141.365C129.951 142.909 128.077 144.432 126.311 146.068C128.583 146.78 130.814 147.61 133.1 148.329C134.854 146.755 136.652 145.246 138.468 143.754ZM127.948 152.864C129.181 151.847 130.383 150.771 131.578 149.709C129.293 148.99 127.051 148.164 124.789 147.448C123.352 148.707 121.824 149.837 120.367 151.069C122.851 151.766 125.42 152.24 127.948 152.864V152.864ZM122.408 156.066C123.936 156.345 125.054 155.058 126.186 154.281C123.778 153.638 121.355 152.988 118.977 152.232C117.821 153.231 116.61 154.162 115.347 155.021C117.745 155.266 120.077 155.717 122.408 156.066ZM113.284 154.752C114.572 153.693 115.836 152.63 117.092 151.547L113.189 150.453C111.323 151.699 109.26 152.702 107.283 153.825C109.305 154.142 111.31 154.442 113.308 154.721L113.284 154.752ZM104.866 153.426C106.821 152.173 108.832 151.015 110.814 149.81L104.893 148.111C102.708 149.681 100.352 150.998 97.8707 152.037C100.199 152.547 102.538 152.985 104.89 153.395L104.866 153.426ZM96.7792 151.024C98.7862 149.856 100.828 148.757 102.776 147.517L98.9967 146.518C97.1206 148.203 94.6819 148.98 92.6533 150.453C94.0453 150.871 95.5004 151.908 96.803 150.993L96.7792 151.024ZM87.2264 149.261C88.5236 149.402 89.8019 149.755 91.1191 149.82C93.2247 148.741 95.2188 147.456 97.0723 145.985C95.9962 145.62 94.9269 145.24 93.8673 144.789C91.6359 146.206 89.5126 147.837 87.2502 149.23L87.2264 149.261ZM94.6931 144.289C95.7965 144.634 96.9169 144.961 98.0267 145.257C99.9162 143.947 101.726 142.524 103.445 140.997C102.592 140.682 101.75 140.363 100.897 140.013C98.9021 141.451 96.8284 142.86 94.7374 144.251L94.6931 144.289ZM101.807 139.392C102.703 139.74 103.643 139.962 104.6 140.052C107.321 138.153 109.939 136.11 112.442 133.932L110.53 132.798L101.807 139.392ZM110.908 132.497L113.068 133.385C115.334 131.465 117.588 129.547 119.823 127.637C119.372 127.39 118.914 127.157 118.446 126.962C115.951 128.847 113.397 130.66 110.908 132.497ZM119.138 126.405C119.623 126.583 120.121 126.767 120.613 126.966C122.381 125.433 124.152 123.91 125.93 122.408C125.506 122.209 125.066 122.028 124.595 121.856C122.742 123.407 120.908 124.936 119.093 126.443L119.138 126.405ZM125.385 121.219C125.846 121.36 126.303 121.524 126.757 121.678C128.655 120.09 130.548 118.491 132.415 116.878C131.933 116.676 131.452 116.474 130.946 116.235C129.221 117.994 127.313 119.586 125.385 121.219ZM131.705 115.54L133.225 116.165C135.176 114.432 137.107 112.672 139.041 110.922L137.182 110.412C135.405 112.12 133.519 113.773 131.746 115.526L131.705 115.54ZM138.067 109.582L140.008 110.064C142.286 108.013 144.592 106.078 146.898 104.143L144.548 103.537C142.527 105.638 140.159 107.457 138.108 109.568L138.067 109.582ZM149.49 98.4206C148.096 99.9402 146.588 101.361 145.146 102.84L147.726 103.447C149.333 102.087 150.866 100.641 152.317 99.1151L149.49 98.4206ZM153.052 99.3219C151.799 100.889 150.428 102.357 148.952 103.716C150.188 103.98 151.435 104.276 152.672 104.54C154.344 103.063 156.081 101.643 157.85 100.282C156.27 99.9516 154.68 99.6589 153.052 99.3219V99.3219ZM158.616 100.444C157.074 101.9 155.487 103.325 153.977 104.804C155.969 105.269 157.972 105.73 159.923 106.208C161.475 104.715 162.861 103.072 164.371 101.524C162.424 101.124 160.515 100.837 158.616 100.444ZM165.229 101.62C163.932 103.289 162.677 104.979 161.256 106.554C163.448 107.134 165.614 107.802 167.786 108.423C169.713 106.84 171.56 105.16 173.318 103.391C170.673 102.602 167.971 102.016 165.236 101.64L165.229 101.62ZM174.681 103.589C173.053 105.491 171.267 107.252 169.342 108.853L172.627 109.712C174.343 107.825 176.152 106.024 178.047 104.317L174.681 103.589Z" fill="#813F35"/>
<path d="M66.3875 89.0772C65.6708 87.7524 64.1064 86.328 64.8926 84.7068C66.6842 80.9999 70.6928 79.285 74.0443 77.2905C78.679 74.0894 83.4222 70.7365 88.7903 68.8086C89.293 68.6366 89.5827 69.2824 89.9004 69.5748C92.1191 72.3759 94.28 75.2312 96.3829 78.1406C98.0715 80.531 100.405 82.4946 101.479 85.3012C102.083 87.0658 100.848 88.7144 99.6637 89.8758C97.3176 91.7782 94.8568 93.5346 92.2953 95.1351C88.329 97.9614 84.2166 100.577 79.9752 102.971C79.4222 103.238 78.7981 103.322 78.1943 103.208C77.5905 103.095 77.0388 102.792 76.6203 102.342C74.3497 100.299 72.2917 98.0311 70.4776 95.5736C68.8706 93.522 67.9498 91.0982 66.3875 89.0772ZM76.9348 100.917C77.5458 101.429 78.3346 102.328 79.1664 101.712C83.7182 99.1831 88.1211 96.3953 92.3534 93.3619C94.5286 91.7813 96.9286 90.4561 98.7853 88.4803C99.6252 87.5856 100.396 86.2218 99.6191 85.0552C98.2701 82.6862 96.246 80.7888 94.7607 78.5237C92.7975 75.6657 90.6778 72.953 88.671 70.2016C83.6998 72.3948 78.952 75.0627 74.4935 78.1682C71.1944 80.2822 67.1186 82.1692 65.8679 86.2182C66.7728 87.9255 68.0324 89.3969 69.0159 91.0658C71.1194 94.7466 73.7921 98.0712 76.9348 100.917V100.917Z" fill="#813F35"/>
<path d="M67.3029 51.0175C64.9449 52.9013 62.3199 54.4065 59.8993 56.1742C59.0033 56.9047 57.7855 56.3931 56.7793 56.1987C57.1365 55.2342 57.8406 54.4376 58.7539 53.9647C61.6597 52.4093 64.6332 50.7504 67.7192 49.4541C67.6066 49.9625 67.8833 50.7043 67.3029 51.0175Z" fill="#813F35"/>
<path d="M97.6075 97.4324C93.2865 101.154 88.5535 104.369 83.5009 107.013C86.1964 104.006 89.8751 102.197 93.0865 99.8269C94.4917 98.8764 95.8362 97.6143 97.6075 97.4324Z" fill="#813F35"/>
<path d="M110.129 158.627C110.315 158.448 110.516 158.287 110.732 158.146C110.7 160.197 109.458 161.893 108.309 163.49C108.283 161.698 108.933 159.962 110.129 158.627V158.627Z" fill="#813F35"/>
<path d="M85.6039 108.036C89.4959 105.009 93.6338 102.298 97.7998 99.6699C94.5494 103.492 90.3399 106.379 85.6039 108.036Z" fill="#813F35"/>
<path d="M116.35 160.03C116.004 161.901 114.302 163.022 112.79 163.894C113.514 162.26 114.475 160.511 116.35 160.03Z" fill="#813F35"/>
<path d="M116.228 164.598C116.67 163.634 117.308 162.773 118.101 162.068C118.893 161.363 119.823 160.83 120.831 160.502C119.818 162.359 118.191 163.807 116.228 164.598V164.598Z" fill="#813F35"/>
<path d="M121.73 162.325C122.478 161.909 123.295 161.63 124.141 161.501C123.372 163.105 121.736 163.951 120.355 164.973C120.557 163.979 121.033 163.062 121.73 162.325V162.325Z" fill="#813F35"/>
<path d="M98.7746 92.8384C99.5894 92.715 100.42 92.7376 101.227 92.9049C101.574 92.1141 102.01 91.3652 102.526 90.6729C104.397 92.3246 104.406 95.1293 103.658 97.3331C101.525 96.7909 99.1621 96.35 97.5788 94.7028C97.5799 94.3104 97.693 93.9265 97.9048 93.5963C98.1166 93.266 98.4184 93.0031 98.7746 92.8384V92.8384Z" fill="#813F35"/>
<path d="M88.2602 56.7741C88.8334 57.4867 89.2301 58.3249 89.4177 59.22C88.5404 59.1947 87.6657 59.1111 86.7995 58.9697C87.0211 58.0923 87.5366 57.3174 88.2602 56.7741V56.7741Z" fill="#813F35"/>
<path d="M91.1643 55.0129C91.9937 54.0874 92.9658 55.1873 93.7709 55.5308L93.2511 57.0264C92.377 57.165 91.4834 56.9567 90.7607 56.4458C90.6594 56.1961 90.6441 55.9197 90.7172 55.6602C90.7902 55.4008 90.9476 55.173 91.1643 55.0129Z" fill="#813F35"/>
<path d="M96.8482 52.6674C96.964 53.0059 97.1991 53.6933 97.3765 54.0108C97.0255 54.2913 96.7833 54.8898 96.2269 54.7707C95.4583 54.7013 94.9624 53.9885 94.3558 53.5887C94.6871 53.1521 95.0658 52.7535 95.4849 52.4003C95.9437 52.4655 96.3987 52.5547 96.8482 52.6674V52.6674Z" fill="#813F35"/>
<path d="M151.159 137.74C154.74 134.658 157.984 131.205 160.837 127.439L161.978 126.12C163.081 124.741 164.464 123.612 166.036 122.807C168.685 122.108 171.324 123.29 173.826 124.073C175.47 124.657 177.648 125.195 178.136 127.091C178.044 128.028 177.271 128.716 176.71 129.423C171.685 134.832 166.599 140.331 160.626 144.746L159.422 145.616C158.611 146.262 157.678 146.738 156.679 147.017C155.68 147.296 154.635 147.371 153.606 147.239C151.209 146.949 148.858 146.364 146.604 145.497C146.301 142.163 148.915 139.756 151.159 137.74ZM155.119 145.965C157.707 145.493 159.597 143.448 161.591 141.906C166.855 137.362 171.731 132.386 176.167 127.031C174.199 126.107 172.174 125.311 170.103 124.647C168.729 124.247 167.075 123.735 165.825 124.736C163.472 126.434 161.729 128.807 159.863 130.992C157.044 134.443 153.552 137.265 150.515 140.515C149.536 141.702 148.792 143.065 148.325 144.531C150.535 145.235 152.804 145.736 155.105 146.027L155.119 145.965Z" fill="#813F35"/>
</svg>
