<svg width="398" height="341" viewBox="0 0 398 341" fill="none" xmlns="http://www.w3.org/2000/svg">
<path d="M3.82051 145.408C13.3371 125.457 28.8675 105.776 42.1397 102.927C55.4076 100.075 91.9346 121.785 98.8729 112.691C106.299 102.954 74.4848 96.5452 57.2437 72.2554C40.0026 47.9655 55.6223 15.1239 71.2729 9.55953C86.9235 3.9951 86.1006 9.28436 122.179 1.81831C158.254 -5.65108 211.266 14.2921 213.449 19.7218C215.632 25.1516 176.241 35.6042 153.043 56.5039C129.84 77.4079 120.327 97.3542 128.831 99.9336C137.338 102.509 158.358 76.1826 205.297 50.3948C252.231 24.6036 262.734 49.8449 289.291 62.326C315.849 74.8072 343.464 101.13 340.358 105.07C337.25 109.003 315.783 106.161 293.798 105.481C271.818 104.804 238.954 113.36 234.193 118.788C229.432 124.215 280.948 110.232 310.204 125.973C339.464 141.71 339.235 128.502 352.029 158.264C360.14 177.126 362.848 189.477 357.153 195.176C357.153 195.176 377.884 190.151 379.892 221.904C381.909 253.664 403.933 290.712 395.754 303.196C395.754 303.196 369.329 313.919 350.043 316.499C330.757 319.079 313.777 341.202 292.926 332.109C292.926 332.109 277.684 330.481 261.306 337.27C244.931 344.055 213.51 341.074 198.968 320.044C198.968 320.044 174.712 327.102 152.83 322.357C130.944 317.608 120.574 315.579 110.622 315.44C100.665 315.306 95.1578 303.768 99.0749 285.452C99.0749 285.452 87.7678 283.69 70.7485 269.444C53.7251 255.195 41.1729 247.735 47.9964 233.621C54.8242 219.509 71.9013 193.31 60.0826 193.722C48.2596 194.13 39.6731 224.025 40.951 237.691C41.6845 245.562 31.0966 233.484 20.9009 205.124C10.7052 176.763 -5.69191 165.362 3.82473 145.411L3.82051 145.408ZM241.009 181.481C224.672 177.138 213.9 186.845 210.948 189.219C207.997 191.594 224.596 199.393 238.801 196.273C248.996 194.033 257.349 185.819 241.013 181.484L241.009 181.481ZM277.442 192.603C289.649 190.565 313.314 210.21 345.262 196.363C330.02 194.735 321.065 184.458 303.869 177.336C286.673 170.214 256.738 172.861 257.215 181.819C257.693 190.776 265.24 194.645 277.446 192.607L277.442 192.603ZM235.482 289.704C245.658 304.427 274.08 311.818 284.365 327.019C282.432 315.959 276.043 302.659 265.249 294.18C254.455 285.7 244.034 285.703 239.136 267.923C234.243 250.147 227.491 242.003 224.749 245.327C222.006 248.651 225.301 274.978 235.482 289.704ZM174.199 157.465C193.39 163.502 223.59 140.563 220.215 136.495C216.843 132.423 177.738 121.571 156.488 128.769C143.07 133.31 155.013 151.432 174.204 157.469L174.199 157.465ZM157.264 173.004C157.264 173.004 149.279 172.802 147.792 186.371C146.304 199.939 149.376 211.682 152.641 210.731C155.906 209.781 156.836 204.962 162.218 197.839C167.602 190.712 166.028 174.5 157.264 173.004ZM163.936 293.85C169.238 304.434 182.671 309.115 182.671 309.115C174.468 298.872 174.721 293.238 174.806 280.075C174.892 266.911 170.286 270.781 167.002 258.093C163.718 245.406 165.983 219.48 157.575 221.928C152.444 223.421 149.299 238.488 149.745 263.116C150.187 287.749 158.634 283.266 163.933 293.854L163.936 293.85ZM98.2216 272.549C98.2216 272.549 95.6214 265.22 100.522 244.592C105.423 223.964 108.248 202.929 107.411 194.584C107.176 192.262 101.1 192.21 96.2209 202.391C90.3914 214.546 85.6341 238.243 85.9573 248.332C86.5482 266.855 98.2224 272.556 98.2224 272.556L98.2216 272.549Z" fill="#B25445"/>
<path d="M390.573 266.443C387.026 263.633 383.44 260.863 379.84 258.138C361.73 244.423 342.67 232.032 323.198 220.387C307.312 210.889 291.162 201.819 274.901 192.95C275.723 192.863 276.573 192.75 277.446 192.607C289.653 190.569 313.318 210.213 345.266 196.367C330.024 194.739 321.069 184.462 303.873 177.34C286.677 170.218 256.742 172.865 257.219 181.822C257.253 182.395 257.311 182.946 257.399 183.477C241.527 174.956 225.596 166.537 209.743 158.01C206.801 156.428 203.857 154.858 200.908 153.284C212.84 147.563 222.18 138.854 220.222 136.495C216.851 132.423 177.745 121.57 156.495 128.769C155.85 128.987 155.275 129.247 154.744 129.528C137.03 120.792 119.118 112.452 100.913 104.743C97.9924 103.507 95.0698 102.29 92.1363 101.079C82.8953 94.8212 67.4949 86.7013 57.2443 72.2633C40.0032 47.9734 55.623 15.1319 71.2736 9.56747C86.9241 4.00305 86.1013 9.29232 122.18 1.82626C158.254 -5.64313 211.267 14.3 213.45 19.7298C215.632 25.1595 176.242 35.6121 153.043 56.5118C129.841 77.4159 120.328 97.3621 128.831 99.9416C137.338 102.517 158.359 76.1906 205.297 50.4027C252.231 24.6039 262.734 49.8449 289.291 62.326C315.849 74.8072 343.464 101.13 340.358 105.07C337.25 109.003 315.783 106.161 293.798 105.481C271.818 104.804 238.954 113.36 234.193 118.788C229.432 124.215 280.948 110.232 310.204 125.973C339.464 141.71 339.235 128.502 352.029 158.264C360.14 177.126 362.848 189.477 357.153 195.176C357.153 195.176 377.884 190.151 379.892 221.904C380.82 236.603 386.04 252.432 390.569 266.44L390.573 266.443Z" fill="#813F35"/>
<path d="M340.637 307.624C340.727 306.834 320.968 302.73 300.416 283.697C283.849 268.358 275.912 246.874 273.357 241.206C272.993 240.4 272.048 240.088 271.247 240.512C270.446 240.937 270.091 241.932 270.455 242.737C273.067 248.534 281.772 269.47 298.821 285.126C319.543 304.153 340.546 308.415 340.637 307.624Z" fill="#313131"/>
<path d="M377.362 251.921C377.288 250.714 357.601 239.011 329.517 232.475C305.268 226.833 280.57 229.206 266.946 229.858C261.644 230.109 257.065 230.33 256.011 230.008C255.181 229.758 254.272 230.259 253.978 231.133C253.684 232.008 254.121 232.92 254.951 233.17C256.44 233.618 259.695 233.486 266.907 233.14C280.34 232.498 304.954 230.907 329.16 234.904C354.648 239.108 377.434 253.12 377.365 251.916L377.362 251.921Z" fill="#313131"/>
<path d="M258.314 332.917C258.572 332.035 218.204 321.775 203.845 278.961C195.164 253.078 196.28 221.42 196.763 202.812C196.953 195.385 197.083 190.479 196.516 188.309C196.294 187.446 195.415 186.99 194.569 187.253C193.718 187.533 193.21 188.463 193.433 189.333C193.879 191.057 193.745 196.289 193.575 202.92C193.09 221.756 192.598 253.145 201.351 279.63C215.841 323.473 258.134 333.517 258.31 332.921L258.314 332.917Z" fill="#313131"/>
<path d="M349.353 174.178C350.522 172.854 316.686 147.582 274.585 147.335C246.736 147.169 220.433 158.317 201.268 165.356C189.24 169.777 179.737 173.265 176.35 172.116C175.529 171.838 174.61 172.316 174.288 173.183C173.974 174.048 174.378 174.977 175.199 175.255C179.603 176.738 188.582 173.445 202.171 168.452C221.143 161.484 247.262 150.092 274.666 149.451C317.127 148.463 348.179 175.499 349.348 174.175L349.353 174.178Z" fill="#313131"/>
<path d="M307.789 88.1205C308.059 87.2412 270.423 66.8052 215.099 79.2014C188.965 85.0558 165.871 101.688 148.825 112.798C135.007 121.799 124.092 128.913 119.374 127.09C118.568 126.775 117.63 127.218 117.279 128.068C116.933 128.923 117.3 129.871 118.11 130.182C124.294 132.575 134.682 125.8 150.408 115.554C167.269 104.565 190.485 87.6575 216.002 81.1269C266.277 68.264 307.607 88.6979 307.789 88.1205Z" fill="#313131"/>
<path d="M111.568 125.335C111.666 125.307 111.766 125.267 111.861 125.216C112.667 124.803 113.034 123.81 112.681 123C100.713 95.5215 100.026 72.4817 111.349 54.232C118.336 42.9708 129.25 33.1107 141.468 27.5304C159.734 19.1853 177.853 17.9601 177.492 16.9256C177.127 15.8878 156.732 19.0482 140.705 25.9046C126.695 31.8973 115.889 41.4297 109.065 52.4338C97.1045 71.7144 97.336 95.9633 109.768 124.501C110.08 125.217 110.845 125.548 111.573 125.339L111.568 125.335Z" fill="#313131"/>
<path d="M158.534 311.245C158.986 310.44 132.244 299.795 126.038 269.264C122.881 253.728 125.208 235.29 128.621 215.454C139.965 149.516 139.434 144.327 138.872 142.776C138.571 141.943 137.657 141.557 136.83 141.919C136.003 142.281 135.58 143.25 135.881 144.083C136.619 146.13 136.402 158.013 126.666 214.617C123.398 233.594 120.984 251.949 123.88 268.778C129.035 298.716 158.304 311.666 158.538 311.249L158.534 311.245Z" fill="#313131"/>
<path d="M83.0047 270.464C84.4617 269.739 59.3053 239.923 77.0623 195.343C86.2974 172.152 101.045 151.172 109.857 138.762C114.79 131.817 116.798 128.928 117.007 127.181C117.116 126.273 116.496 125.488 115.621 125.434C114.753 125.379 113.959 126.055 113.847 126.96C113.625 128.046 110.425 132.556 107.328 136.918C98.462 149.404 83.4324 170.238 74.9573 194.366C59.0208 239.754 81.5434 271.187 83.0047 270.464Z" fill="#313131"/>
<path d="M80.5971 137.971C92.424 134.975 103.738 131.405 110.744 124.88C111.415 124.255 111.502 123.209 110.933 122.55C110.365 121.891 109.358 121.866 108.686 122.49C102.249 128.478 91.7628 132.856 80.2507 135.358C35.0277 145.174 33.1733 177.706 34.2738 178.064C35.3778 178.418 33.5836 149.888 80.5937 137.976L80.5971 137.971Z" fill="#313131"/>
<path d="M377.146 295.001C377.456 293.698 332.075 275.435 305.492 260.489C270.404 240.764 231.258 213.812 198.013 187.593C176.358 170.511 157.737 155.189 142.084 143.22C119.938 126.289 102.37 112.296 99.8808 108.858C98.5826 108.603 96.2169 113.079 95.8971 114.438C98.7709 118.403 111.877 128.542 138.105 148.593C153.738 160.545 173.596 174.38 195.217 191.436C229.226 218.258 269.001 243.893 304.195 263.639C330.969 278.665 376.442 297.946 377.145 294.993L377.146 295.001Z" fill="#0C0C0C"/>
</svg>
