<svg width="175" height="278" viewBox="0 0 175 278" fill="none" xmlns="http://www.w3.org/2000/svg">
<path d="M91.174 214.113C87.058 217.268 83.4146 220.959 79.2091 223.995C74.4726 227.275 70.639 231.962 65.2298 234.249C61.9125 235.496 58.3282 235.859 54.8284 235.302C40.3112 233.689 25.776 231.946 11.5198 228.917C5.99208 227.791 0.33715 227.017 -5.05138 225.37C-9.32821 224.021 -13.7474 223.105 -17.9137 221.442C-21.5189 220.147 -24.8283 218.181 -28.37 216.771C-31.4665 215.498 -33.1786 212.407 -34.2358 209.404C-34.4568 207.337 -34.3442 205.248 -33.9022 203.216C-37.1541 203.237 -40.4043 203.06 -43.6348 202.687C-47.0392 202.136 -50.1839 200.528 -52.623 198.09C-60.1268 190.803 -66.371 182.38 -72.9367 174.274C-76.3884 169.889 -79.442 165.19 -83.1169 160.979C-86.6289 157.119 -89.8338 152.991 -92.7024 148.631C-96.2095 143.039 -100.864 138.193 -103.87 132.279C-105.307 129.6 -104.317 126.518 -103.689 123.767C-102.644 119.285 -100.28 115.252 -99.2126 110.792C-98.1008 107.236 -95.919 104.11 -92.9648 101.84C-87.9755 97.8147 -82.4143 94.5919 -77.0803 91.0443C-67.9691 84.9381 -58.9392 78.6954 -49.881 72.4877C-42.7333 67.7038 -35.9883 62.3271 -28.7081 57.7365C-22.3872 53.8669 -16.1408 49.7976 -9.91599 45.7516C-4.50417 42.3721 0.64775 38.4981 6.54624 36.0592C9.469 34.789 12.7304 33.044 15.9767 34.2304C21.4842 36.197 25.5175 40.759 29.0754 45.2251C33.0475 50.3556 35.8004 56.3646 39.5679 61.5561C44.3974 68.3381 48.814 75.3951 53.169 82.4903C56.7411 88.0123 59.9618 93.7713 63.8804 99.043C65.9214 102.285 68.4321 105.201 70.4198 108.463C72.7059 112.159 75.8836 115.645 75.8448 120.223C76.9168 120.415 77.9888 120.607 79.0776 120.762C88.8644 121.56 98.6417 122.209 108.412 123.165C120.076 124.567 131.723 125.597 143.246 127.476C146.192 127.895 149.273 128.597 151.576 130.711C152.649 135.344 154.403 139.891 154.525 144.696C154.652 147.439 152.934 149.746 151.489 151.891C149.364 154.774 147.127 157.562 144.911 160.404C140.399 165.995 135.194 170.95 130.377 176.291C124.924 182.369 119.001 188.001 113.254 193.779C109.076 197.988 104.571 201.848 100.411 206.065C97.5201 208.956 94.4338 211.645 91.174 214.113ZM108.309 184.448C110.878 182.302 113.275 179.96 115.479 177.442C116.27 176.678 115.571 175.574 115.527 174.681C109.369 180.005 103.777 185.953 97.5904 191.243C98.2101 191.483 98.8214 191.74 99.4175 192.079C102.735 189.873 105.347 186.915 108.309 184.448ZM-101.483 129.935C-100.381 133.466 -97.8584 136.331 -95.8419 139.386C-91.7127 144.897 -88.6628 151.175 -84.1256 156.398C-80.5625 160.539 -77.157 164.799 -73.9093 169.178C-67.9654 176.591 -61.8402 183.922 -55.2499 190.791C-52.451 193.463 -49.8775 196.507 -46.3849 198.314C-44.5305 199.097 -42.536 199.494 -40.523 199.481C-41.9857 197.1 -44.5016 195.718 -46.2126 193.565C-49.7392 189.224 -53.1776 184.835 -56.9008 180.658C-63.7585 172.948 -70.2146 164.892 -76.824 156.954C-83.143 149.625 -88.7383 141.702 -93.5315 133.295C-96.1716 128.363 -98.1326 123.096 -99.3615 117.638C-100.719 121.574 -101.439 125.701 -101.495 129.863L-101.483 129.935ZM50.6035 82.3995C46.3998 76.0364 42.2095 69.6682 37.6111 63.5885C32.4421 56.8722 28.784 49.0022 22.5256 43.1464C19.5396 40.1349 15.8116 36.5962 11.2712 37.7562C2.98956 39.6575 -3.88985 44.9175 -11.0265 49.2425C-20.3271 55.3283 -30.0156 60.8611 -38.912 67.5847C-49.4354 75.3536 -60.2521 82.7013 -70.9263 90.2687C-76.6491 94.4007 -82.7217 98.0414 -88.3732 102.283C-91.7961 104.816 -95.1671 107.936 -96.4239 112.133C-97.3054 115.099 -96.2649 118.138 -95.47 120.965C-92.7939 130.716 -86.8524 139.1 -80.8966 147.116C-74.6297 155.03 -67.9114 162.609 -61.3513 170.293C-55.0626 177.411 -48.5473 184.323 -42.8 191.901C-41.2042 194.394 -39.3086 196.681 -37.1558 198.713C-36.5924 199.188 -35.9011 199.486 -35.1687 199.57C-34.4363 199.653 -33.6956 199.518 -33.0399 199.181C-29.7561 197.822 -26.6458 195.997 -23.296 194.856C-20.4357 193.988 -18.1398 192.011 -15.6305 190.485C-12.3351 188.425 -9.06453 186.297 -5.90667 184.03C-0.337075 180.015 5.52585 176.423 10.9229 172.23C20.1695 165.103 29.9199 158.638 39.1947 151.546C47.4306 144.962 55.9698 138.826 63.4578 131.414C66.3033 128.839 69.0146 126.119 71.581 123.266C72.9604 121.433 74.1715 119.027 73.2956 116.715C66.1995 104.986 58.1959 93.7921 50.6187 82.3181L50.6035 82.3995ZM117.689 127.154C108.495 125.711 99.2628 124.692 90.0168 123.678C85.0946 123.161 80.2787 121.952 75.238 122.298C74.2861 124.153 73.067 125.859 71.6198 127.36C69.8178 129.319 67.7668 131.098 65.9001 133.006C58.4384 140.53 49.9569 146.902 41.729 153.589C32.2487 161.106 22.2314 167.913 12.7512 175.43C7.65043 179.482 2.13521 182.991 -3.11641 186.841C-6.53091 189.356 -10.0448 191.725 -13.6384 194.003C-15.9324 195.693 -18.3592 197.195 -20.8951 198.494C-24.064 199.796 -27.1453 201.292 -30.2265 202.788C-27.1388 204.612 -23.9076 206.182 -20.5651 207.482C-15.7305 209.366 -10.756 210.869 -5.6871 211.978C2.71555 214.304 11.2411 216.16 19.8501 217.538L23.2392 218.049C27.7404 218.738 32.2549 219.422 36.7459 220.206C42.0946 221.094 47.4493 222.284 52.8968 222.135C56.4818 221.967 59.8905 220.531 62.5153 218.084C68.8761 212.774 74.9497 207.223 80.924 201.527C84.6451 198.004 88.6381 194.804 92.6693 191.666L93.1507 191.29C97.9082 187.578 102.344 183.409 106.683 179.307C113.021 173.325 119.811 167.825 125.846 161.56C130.927 156.273 136.263 151.224 140.971 145.59C143.673 142.575 145.995 139.241 147.887 135.662C148.371 134.579 148.6 133.399 148.558 132.214C138.334 129.714 127.964 128.694 117.719 127.112L117.689 127.154Z" fill="#FFAE00"/>
<path d="M56.7848 131.201C50.5997 135.353 44.8653 140.187 38.6786 144.294C29.7916 150.514 21.1169 157.019 12.4969 163.548C8.08096 166.997 3.83904 170.668 -0.684725 173.99C-5.02182 177.121 -9.03584 180.753 -13.547 183.661C-16.0317 185.421 -18.6105 187.044 -21.2719 188.523C-22.6714 189.276 -24.2133 189.727 -25.798 189.847C-27.3826 189.967 -28.9749 189.754 -30.4719 189.22C-34.9572 187.434 -38.4644 184.04 -42.0088 180.873C-45.5531 177.705 -49.0368 174.212 -52.4041 170.706C-56.6504 166.223 -61.2548 162.041 -65.0897 157.238C-68.3144 153.178 -71.9588 149.457 -75.0135 145.243C-76.8912 142.562 -78.8956 139.988 -80.8649 137.386C-84.7149 131.682 -87.9338 125.576 -90.4651 119.177C-91.34 117.153 -89.8972 115.206 -88.6633 113.715C-85.3156 109.726 -81.4462 106.204 -77.1593 103.247C-74.7742 101.51 -71.6847 100.769 -69.3225 98.8884C-61.1037 93.2358 -52.8997 87.5432 -44.6427 81.9522C-34.7831 75.0064 -24.6019 68.5169 -14.9079 61.3296C-8.01662 56.6716 -0.843441 52.3634 6.50849 48.413C9.26865 46.9911 11.5511 44.3676 14.635 43.8559C15.1369 43.9026 15.6225 44.0586 16.0577 44.3129C16.4929 44.5673 16.8671 44.9139 17.154 45.3283C18.6664 47.4551 19.9803 49.7162 21.0791 52.0833C22.5446 54.6581 24.1925 57.1247 26.0104 59.4641C30.8802 66.1098 35.0073 73.2443 39.6306 80.0424C42.9995 85.0186 46.0269 90.2583 49.5106 95.1766C53.5627 100.929 56.8672 107.157 60.9193 112.91C62.9734 115.617 64.1224 118.902 64.2031 122.299C62.5913 125.889 60.0254 128.968 56.7848 131.201ZM-27.1083 174.233C-24.5661 174.302 -22.4475 172.786 -20.4822 171.387C-14.9944 167.479 -9.73197 163.291 -4.18277 159.466C-5.29873 158.138 -6.4147 156.81 -7.50899 155.459C-3.96097 150.576 1.5027 147.783 6.07901 144.033C9.27879 141.652 12.6109 139.455 16.0592 137.451C18.6522 135.843 21.4278 134.55 24.3271 133.6C25.5981 134.733 26.8692 135.867 28.1102 137.042C33.1663 133.643 38.0399 130.04 43.0776 126.633C44.7573 125.81 43.7557 123.894 43.13 122.702C37.5449 113.321 30.9972 104.572 25.0874 95.4176C21.4546 90.2213 18.8742 84.3907 15.1582 79.2558C13.7643 77.3038 12.3172 75.3716 10.9317 73.4013C6.64024 76.9397 1.77851 79.7203 -2.76664 82.9438C-10.3202 87.8182 -17.6552 93.0355 -25.1044 98.0681C-28.8781 100.595 -32.6037 103.21 -36.23 105.97C-41.2537 109.781 -46.6123 113.141 -51.772 116.791C-55.5765 119.723 -59.444 122.528 -63.4855 125.109C-60.184 129.159 -57.1262 133.401 -54.3282 137.814C-47.6572 148.221 -40.2262 158.122 -32.0958 167.434C-30.2532 169.492 -29.227 172.248 -27.1083 174.233ZM-4.98973 155.385C-4.10393 156.299 -3.21813 157.212 -2.34564 158.13C3.17877 154.239 8.89057 150.566 14.3784 146.657C18.5957 143.571 22.7997 140.49 27.1412 137.615L24.095 135.46C19.4739 137.014 15.596 140.034 11.4798 142.537C8.2194 144.57 5.41649 147.22 2.22733 149.363C-0.410333 151.075 -2.8333 153.097 -4.98973 155.385V155.385ZM-64.8387 123.551C-60.5149 120.425 -56.3203 117.074 -52.0064 113.922C-46.9318 110.41 -41.7213 107.06 -36.7693 103.382C-31.3843 99.3605 -25.701 95.7737 -20.1353 92.0338C-10.201 85.1663 0.074354 78.9298 10.1803 72.6048C9.16805 71.0262 8.18238 69.4376 7.19672 67.849C3.92624 69.2033 1.1542 71.4482 -1.94743 73.1337C-8.43738 76.7934 -14.5265 81.1224 -20.8922 84.9935C-31.9513 91.6732 -42.6267 98.9684 -52.868 106.845C-58.035 110.8 -63.3247 114.589 -68.8282 118.048C-67.4307 119.847 -66.0947 121.684 -64.8387 123.551ZM15.201 46.4345C13.6978 47.1224 12.2676 47.9597 10.9319 48.9338C6.45303 52.2539 1.20719 54.3285 -3.46715 57.3273C-9.20649 60.5694 -14.7472 64.1512 -20.0598 68.0536C-36.1304 78.7977 -52.2075 89.4836 -68.5597 99.7565C-71.9941 101.802 -75.1907 104.223 -78.0907 106.974C-81.7017 110.305 -85.4538 113.581 -88.0442 117.821L-87.738 119.131C-78.4466 112.003 -68.4539 105.781 -58.7995 99.139C-49.9168 93.3149 -41.3324 87.0562 -32.5857 81.0706C-26.0937 76.5612 -19.577 72.1185 -13.1118 67.6191C-6.64648 63.1196 0.580388 59.322 7.30826 54.8764C10.5355 52.7954 13.8687 50.9176 17.2155 48.9134C16.5174 48.097 15.8992 47.2509 15.201 46.4345Z" fill="#FFAE00"/>
<path d="M114.356 137.626C112.945 139.334 111.121 140.664 109.618 142.286C107.291 144.668 105.357 147.495 103.306 150.169C100.144 154.378 96.5101 158.096 93.1238 162.071C92.4669 162.831 91.805 163.578 91.1299 164.329C88.4577 167.249 85.6579 169.99 82.75 172.725C77.8324 177.391 73.3577 182.514 68.4168 187.158C65.9037 189.61 63.2313 191.878 60.6253 194.243C56.5531 197.882 52.8723 201.92 48.6607 205.429C46.8181 206.994 44.813 209.06 42.1552 208.64C36.8273 208.092 31.466 207.617 26.1498 207.02C17.4964 206.168 8.96632 204.346 0.720441 201.587C-2.2168 200.497 -5.65711 201.233 -8.27654 199.328C-8.47854 197.523 -6.50344 196.924 -5.33256 196.079C-2.03505 193.82 1.16798 191.43 4.47541 189.198C13.5187 182.95 21.753 175.67 30.5095 169.059C38.8169 162.527 46.6647 155.432 53.997 147.822C57.1297 144.957 59.9321 141.776 62.9951 138.847C66.5575 135.671 69.496 131.878 72.7515 128.407L73.0548 128.082C73.6164 127.555 74.2399 126.868 75.1005 127.184C79.1732 128.351 83.219 129.649 87.3422 130.585C93.0965 131.504 98.9387 131.845 104.747 133.033C107.413 133.556 110.159 134.049 112.852 134.441C114.322 134.44 115.509 136.529 114.356 137.626ZM104.617 145.466C102.994 145.013 101.329 144.728 99.6474 144.619C97.0638 146.596 94.8003 148.985 92.3344 151.116C94.4832 151.635 96.6452 152.149 98.7504 152.836C100.826 150.471 102.749 147.981 104.617 145.466ZM45.6006 182.025C48.0602 179.715 50.4966 177.382 52.9379 175.064C50.7151 174.224 48.5575 173.193 46.2945 172.489C43.3862 174.694 40.909 177.405 38.1184 179.763C40.6109 180.472 43.0567 181.259 45.6006 182.025ZM36.8587 180.899C34.0081 183.34 31.124 185.854 28.3681 188.305C31.0969 188.957 33.8439 189.617 36.581 190.25C39.1103 188.004 41.5832 185.689 44.071 183.413C41.6986 182.538 39.2912 181.691 36.8587 180.899ZM54.5529 173.416C56.7026 171.373 58.8108 169.299 60.9373 167.234C58.6043 166.587 56.2815 165.845 53.9704 165.053C51.8424 167.073 49.701 169.098 47.5497 171.097C49.9008 171.874 52.2468 172.638 54.5795 173.406L54.5529 173.416ZM62.5905 165.648C64.7352 163.591 66.8849 161.548 69.0114 159.482C66.5776 158.782 64.1538 158.067 61.7401 157.339C59.6517 159.466 57.5351 161.558 55.4285 163.676C57.8263 164.375 60.2258 164.997 62.6171 165.638L62.5905 165.648ZM70.4763 158.043C73.1844 155.382 75.8362 152.651 78.5113 149.942C75.8853 149.404 73.2461 148.871 70.5669 148.352C68.017 150.909 65.4487 153.457 62.9685 156.078C65.5009 156.772 67.9953 157.405 70.5029 158.033L70.4763 158.043ZM72.9056 158.745C75.1321 159.432 77.3574 159.952 79.639 160.543C82.6001 157.788 85.5612 155.033 88.4759 152.235L80.9043 150.506C78.2244 153.202 75.5924 155.986 72.9322 158.735L72.9056 158.745ZM71.3673 160.273C69.2907 162.35 67.1444 164.362 65.1009 166.487C67.0662 166.987 68.9473 167.773 70.6841 168.819L77.6911 162.314C75.6008 161.668 73.4307 161.051 71.4039 160.289L71.3673 160.273ZM63.3896 168.079C61.3331 170.088 59.2766 172.097 57.2433 174.127C59.1273 174.79 61.0064 175.44 62.9489 175.975C65.0702 174.018 67.1632 172.025 69.3492 170.12C67.3323 169.556 65.3511 168.871 63.4162 168.069L63.3896 168.079ZM55.3735 175.946C52.9903 178.258 50.6072 180.57 48.1727 182.826C49.8759 183.329 51.6589 183.802 53.3986 184.321C55.9341 182.255 58.3486 180.068 60.7995 177.897C59.0353 177.189 57.2277 176.528 55.4001 175.936L55.3735 175.946ZM46.5579 184.352C44.1618 186.548 41.7988 188.792 39.3844 190.98C41.0677 191.429 42.756 191.892 44.3561 192.403L51.5192 185.991L46.5579 184.352ZM37.6315 192.542C35.5489 194.318 33.4184 196.006 31.233 197.668C33.0144 198.097 34.7826 198.53 36.5424 198.981C38.4984 197.313 40.577 195.811 42.5296 194.175C40.9363 193.601 39.2997 193.073 37.6681 192.559L37.6315 192.542ZM34.82 191.709C32.2046 190.955 29.5858 190.232 26.9753 189.491C24.6844 191.481 22.334 193.311 20.0585 195.099C22.7024 195.766 25.3748 196.348 28.0304 196.966C30.3189 195.295 32.5994 193.521 34.82 191.709ZM24.0951 188.881C22.3204 188.39 20.5272 188.011 18.7339 187.633C16.4931 189.513 14.4314 191.63 12.1209 193.446L17.0669 194.515C19.4556 192.625 21.8491 190.869 24.0951 188.881ZM25.5214 187.622C28.4503 185.106 31.361 182.582 34.2253 180.015C32.7782 179.508 31.3261 178.988 29.9041 178.426C26.672 181.145 23.4697 183.944 20.1547 186.604L25.5214 187.622ZM35.3816 179.009C38.1876 176.448 40.967 173.897 43.7994 171.448L39.4383 169.873C36.579 172.453 33.773 175.014 30.8072 177.634C32.3208 178.117 33.8512 178.563 35.3816 179.009V179.009ZM45.0309 170.276L51.6212 164.199C50.2137 163.652 48.7646 163.218 47.2877 162.902C44.9324 164.719 42.7307 166.949 40.5379 168.918C42.05 169.355 43.5488 169.797 45.0309 170.276ZM53.0459 162.896C55.1491 160.809 57.4004 158.712 59.5071 156.594C58.2095 156.122 56.917 155.663 55.616 155.223C53.302 157.368 50.9709 159.494 48.6226 161.602C50.1031 162.036 51.5837 162.47 53.0725 162.886L53.0459 162.896ZM60.6918 155.501C63.2449 153.034 65.7633 150.474 68.3612 148.006L64.017 147.047C61.597 149.464 59.1904 151.876 56.7141 154.223L60.6918 155.501ZM69.8026 146.666C72.5421 144.13 75.4376 141.688 78.0876 139.033C76.6414 138.486 75.1479 138.073 73.6259 137.799C70.8413 140.458 68.0201 143.1 65.277 145.789L69.8026 146.666ZM72.0764 147.032C74.7024 147.57 77.3416 148.104 79.9675 148.642C82.4673 146.195 84.9938 143.738 87.5069 141.286C85.1872 140.634 82.8808 139.977 80.5141 139.524C79.8811 139.29 79.502 140.023 79.054 140.326C76.7461 142.474 74.4147 144.721 72.0783 146.956L72.0764 147.032ZM82.258 148.971C84.884 149.509 87.5232 150.043 90.1789 150.661C92.6001 148.41 95.086 146.211 97.5587 144.017C94.8057 143.273 92.064 142.505 89.3333 141.713C86.9716 144.124 84.6331 146.556 82.258 148.971ZM83.2949 169.384C88.1691 164.744 92.7786 159.835 97.1016 154.677C94.9683 153.956 92.7765 153.362 90.5896 152.782C82.8661 160.185 75.0337 167.473 67.0923 174.644C66.0692 175.601 64.7419 176.474 64.4707 177.985C60.8925 179.409 58.5204 182.687 55.479 184.941C58.4648 185.876 61.4658 186.729 64.425 187.674C71.0212 181.898 76.8113 175.3 83.2949 169.384ZM62.3356 189.513C59.3696 188.632 56.4021 187.705 53.4964 186.619C51.1504 188.706 48.7496 190.767 46.4931 192.972C49.494 193.825 52.4464 194.833 55.4657 195.694C57.707 193.571 60.0097 191.531 62.3356 189.513ZM48.8769 201.816C50.4564 200.44 51.9929 198.989 53.5209 197.556C50.5017 196.694 47.536 195.691 44.5483 194.833C42.7103 196.533 40.7497 198.066 38.8835 199.731C42.1623 200.557 45.5431 201.087 48.8769 201.816V201.816ZM41.7335 206.204C43.7447 206.517 45.1637 204.791 46.6194 203.733C43.442 202.976 40.2463 202.21 37.1041 201.304C35.6262 202.652 34.0715 203.915 32.4479 205.084C35.5983 205.321 38.6682 205.83 41.7335 206.204ZM29.7365 204.805C31.386 203.372 33.0039 201.936 34.6118 200.473L29.4603 199.177C27.0603 200.875 24.3933 202.262 21.8441 203.802C24.5037 204.146 27.1401 204.468 29.7666 204.763L29.7365 204.805ZM18.6642 203.364C21.1806 201.654 23.7732 200.067 26.3277 198.419L18.5124 196.402C15.7059 198.535 12.6667 200.343 9.45281 201.792C12.5209 202.377 15.5992 202.868 18.6942 203.323L18.6642 203.364ZM7.98757 200.503C10.5752 198.903 13.2109 197.391 15.7189 195.699L10.7334 194.523C8.33537 196.796 5.16857 197.899 2.56337 199.9C4.40123 200.398 6.34363 201.706 8.0176 200.461L7.98757 200.503ZM-4.58667 198.53C-2.88266 198.669 -1.19592 199.086 0.531598 199.125C3.25157 197.637 5.81816 195.884 8.19412 193.892C6.77181 193.452 5.35786 192.993 3.95411 192.439C1.08135 194.373 -1.64239 196.585 -4.55665 198.488L-4.58667 198.53ZM5.0182 191.755C6.47549 192.167 7.95444 192.556 9.41853 192.906C11.8473 191.123 14.1672 189.196 16.3656 187.135C15.2375 186.752 14.1227 186.364 12.993 185.935C10.4311 187.89 7.76461 189.807 5.07485 191.703L5.0182 191.755ZM14.1639 185.09C15.3496 185.514 16.5885 185.773 17.8451 185.857C21.3419 183.273 24.6986 180.505 27.9008 177.565L25.3567 176.147L14.1639 185.09ZM25.8416 175.739L28.7023 176.826C31.6015 174.231 34.4875 171.64 37.3468 169.06C36.7472 168.752 36.1393 168.463 35.5196 168.224C32.3179 170.781 29.0365 173.246 25.8416 175.739ZM36.406 167.47C37.0473 167.686 37.7069 167.91 38.3582 168.153C40.6193 166.083 42.8855 164.026 45.1615 161.996C44.6001 161.75 44.0169 161.528 43.3939 161.32C41.0212 163.417 38.6731 165.483 36.3493 167.521L36.406 167.47ZM44.4068 160.458C45.015 160.626 45.6198 160.825 46.2196 161.011C48.6489 158.863 51.0733 156.702 53.461 154.525C52.8231 154.277 52.1852 154.03 51.5141 153.734C49.3171 156.098 46.8745 158.251 44.4068 160.458ZM52.484 152.796L54.4975 153.563C56.9921 151.224 59.4585 148.85 61.9298 146.49L59.477 145.887C57.2103 148.187 54.7975 150.419 52.5373 152.777L52.484 152.796ZM60.6069 144.769L63.1663 145.332C66.0776 142.565 69.03 139.95 71.9825 137.335L68.8831 136.624C66.3109 139.447 63.2723 141.912 60.6602 144.749L60.6069 144.769ZM75.176 129.748C73.4037 131.788 71.4788 133.702 69.6418 135.69L73.0422 136.394C75.1 134.556 77.0567 132.608 78.9037 130.558L75.176 129.748ZM79.8742 130.803C78.2878 132.899 76.5439 134.871 74.6577 136.702C76.2865 137.005 77.9302 137.348 79.559 137.652C81.697 135.658 83.9229 133.738 86.1918 131.892C84.1109 131.515 82.0183 131.187 79.8742 130.803V130.803ZM87.2007 132.077C85.2324 134.038 83.2044 135.961 81.2776 137.952C83.9035 138.49 86.5428 139.023 89.1154 139.581C91.0955 137.57 92.8531 135.369 94.7768 133.289C92.2122 132.834 89.7021 132.525 87.2007 132.077ZM95.9039 133.385C94.2642 135.617 92.6794 137.875 90.8737 139.987C93.7653 140.669 96.6251 141.469 99.4917 142.206C101.961 140.064 104.32 137.799 106.561 135.42C103.068 134.479 99.509 133.807 95.9138 133.411L95.9039 133.385ZM108.353 135.632C106.287 138.18 104.01 140.549 101.546 142.714L105.878 143.723C108.059 141.191 110.365 138.769 112.787 136.467L108.353 135.632Z" fill="#FFAE00"/>
<path d="M-33.9967 120.438C-34.9821 118.728 -37.0813 116.917 -36.1086 114.766C-33.8924 109.848 -28.7024 107.46 -24.3828 104.73C-18.425 100.374 -12.3304 95.8157 -5.36707 93.1016C-4.71471 92.8586 -4.31259 93.6943 -3.88613 94.0661C-0.881518 97.6568 2.04921 101.321 4.90605 105.057C7.20186 108.129 10.3271 110.619 11.8334 114.257C12.6861 116.547 11.1263 118.75 9.61622 120.313C6.61026 122.887 3.44895 125.274 0.15016 127.46C-4.94535 131.302 -10.2397 134.872 -15.7108 138.157C-16.4256 138.527 -17.2402 138.658 -18.0351 138.531C-18.8299 138.404 -19.5631 138.026 -20.1271 137.452C-23.173 134.855 -25.9484 131.958 -28.411 128.803C-30.5881 126.172 -31.8794 123.03 -33.9967 120.438ZM-19.7653 135.573C-18.9471 136.224 -17.8822 137.374 -16.8145 136.536C-10.9415 133.064 -5.27273 129.258 0.163855 125.136C2.95729 122.989 6.05425 121.169 8.41654 118.516C9.48516 117.314 10.4471 115.501 9.38808 114C7.53786 110.945 4.81984 108.531 2.7947 105.616C0.122838 101.942 -2.749 98.4634 -5.4744 94.9304C-11.9083 97.978 -18.0331 101.639 -23.7636 105.864C-28.0103 108.749 -33.2823 111.364 -34.7779 116.711C-33.5326 118.916 -31.831 120.798 -30.4842 122.95C-27.5995 127.697 -23.9818 131.957 -19.7653 135.573V135.573Z" fill="#FFAE00"/>
<path d="M7.18559 130.28C1.65695 135.307 -4.42917 139.684 -10.9538 143.326C-7.52915 139.291 -2.77451 136.793 1.34829 133.575C3.15539 132.281 4.87199 130.581 7.18559 130.28Z" fill="#FFAE00"/>
<path d="M25.7401 209.992C25.9769 209.751 26.2357 209.533 26.5132 209.34C26.5435 212.027 24.9769 214.293 23.5271 216.425C23.4306 214.079 24.2206 211.782 25.7401 209.992V209.992Z" fill="#FFAE00"/>
<path d="M-8.16062 144.592C-3.16947 140.49 2.15496 136.794 7.51904 133.205C3.39614 138.325 -2.0158 142.255 -8.16062 144.592Z" fill="#FFAE00"/>
<path d="M33.938 211.61C33.5515 214.073 31.3614 215.601 29.4116 216.797C30.3028 214.631 31.4988 212.306 33.938 211.61Z" fill="#FFAE00"/>
<path d="M33.9389 217.595C34.485 216.317 35.2899 215.167 36.3029 214.215C37.3159 213.264 38.515 212.533 39.8246 212.069C38.5625 214.537 36.482 216.491 33.9389 217.595V217.595Z" fill="#FFAE00"/>
<path d="M41.0654 214.427C42.0306 213.856 43.0902 213.461 44.1941 213.262C43.2431 215.39 41.1303 216.556 39.3579 217.943C39.5871 216.635 40.1786 215.417 41.0654 214.427V214.427Z" fill="#FFAE00"/>
<path d="M8.55565 124.222C9.6186 124.032 10.7069 124.032 11.7698 124.223C12.1964 123.175 12.741 122.179 13.3929 121.254C15.9021 123.351 16.0116 127.024 15.1103 129.937C12.2967 129.302 9.18685 128.808 7.05507 126.706C7.04266 126.192 7.17729 125.685 7.44312 125.245C7.70896 124.805 8.09494 124.45 8.55565 124.222V124.222Z" fill="#FFAE00"/>
<path d="M-2.74368 74.945C-1.68994 73.7037 -0.377956 75.1102 0.688562 75.5316L0.060451 77.5089C-1.07954 77.7212 -2.25739 77.4798 -3.22195 76.8362C-3.36341 76.5126 -3.39319 76.1511 -3.3066 75.8087C-3.22001 75.4663 -3.02197 75.1625 -2.74368 74.945Z" fill="#FFAE00"/>
<path d="M4.6202 71.6741C4.78379 72.1134 5.11595 73.0054 5.35943 73.415C4.9096 73.7947 4.61345 74.5872 3.88049 74.4508C2.87134 74.387 2.19672 73.4709 1.38811 72.9685C1.80666 72.385 2.2886 71.8496 2.82511 71.3723C3.42832 71.4415 4.0275 71.5423 4.6202 71.6741V71.6741Z" fill="#FFAE00"/>
<path d="M78.7491 181.189C83.3307 177.027 87.4582 172.39 91.0623 167.357L92.5114 165.59C93.9075 163.744 95.6792 162.217 97.7096 161.107C101.154 160.097 104.652 161.554 107.957 162.491C110.131 163.198 113.002 163.826 113.708 166.292C113.621 167.522 112.633 168.451 111.924 169.397C105.532 176.659 99.0631 184.04 91.3955 190.033L89.8497 191.215C88.8094 192.089 87.6042 192.746 86.3054 193.146C85.0067 193.547 83.6408 193.682 82.2887 193.545C79.1393 193.25 76.0384 192.567 73.0568 191.51C72.5414 187.154 75.8812 183.91 78.7491 181.189ZM84.2249 191.824C87.5986 191.113 90.0027 188.369 92.5598 186.279C99.2947 180.142 105.506 173.453 111.128 166.283C108.518 165.141 105.837 164.17 103.102 163.374C101.287 162.898 99.1036 162.286 97.5009 163.641C94.4793 165.948 92.2787 169.117 89.9125 172.045C86.3418 176.664 81.8667 180.483 78.004 184.847C76.7626 186.436 75.8368 188.247 75.2763 190.183C78.1954 191.028 81.1857 191.605 84.2097 191.905L84.2249 191.824Z" fill="#FFAE00"/>
</svg>
