<svg width="158" height="138" viewBox="0 0 158 138" fill="none" xmlns="http://www.w3.org/2000/svg">
<g clip-path="url(#clip0_780_1566)">
<path d="M219.636 55.5542C218.824 51.1284 217.351 46.8526 216.24 42.5004C214.251 34.7853 210.082 27.8833 207.329 20.4609C204.801 15.0731 203.011 9.41618 200.322 4.18875C198.849 4.16475 197.388 4.45465 196.036 5.03916C189.802 7.25925 183.438 9.10094 177.028 10.7321C162.838 14.5235 149.017 19.5811 135.731 25.8439C133.897 26.5082 132.125 27.3341 130.437 28.3118C129.683 29.4362 130.234 30.7952 130.598 31.954C133.115 38.6447 134.423 45.7455 137.502 52.2201C140.333 58.0305 142.263 64.2072 144.779 70.1441C146.285 73.6721 147.19 77.4442 148.746 80.9251C147.417 83.5133 145.82 85.9546 143.98 88.2087C142.641 89.6846 143.571 91.7166 143.928 93.3907C144.338 94.76 145.254 96.7478 147.002 96.3688C155.128 95.5393 162.52 91.721 170.349 89.6812C185.329 84.1999 200.489 79.2104 215.759 74.5889C220.632 73.1293 225.855 72.3515 230.337 69.6934C230.708 67.2015 230.937 64.6904 231.021 62.1724C226.718 60.7174 223.306 57.8406 219.636 55.5542ZM137.812 45.276C136.362 40.4319 134.999 35.5614 133.46 30.7437C146.851 23.9899 160.848 18.5138 175.267 14.3881C183.352 12.4801 191.316 10.0947 199.119 7.24441C202.099 14.0855 204.95 20.9809 207.747 27.9088C210.082 32.6916 211.982 37.6748 213.425 42.7979C214.436 47.4048 216.251 51.803 216.958 56.4686C210.642 58.1999 204.503 60.4716 198.321 62.596C191.309 64.7922 184.383 67.2195 177.52 69.8044C168.476 73.251 159.246 76.1278 150.207 79.5891C148.383 72.6425 145.685 65.9901 143.253 59.2096C141.659 54.4243 139.226 50.0509 137.812 45.276ZM228.511 68.0422L224.244 69.8657L224.113 69.0545C220.9 70.2094 217.626 71.1898 214.307 71.9914C200.698 76.5326 187.08 81.0444 173.614 86.1201C168.483 88.058 163.174 89.4556 157.997 91.2949C154.365 92.6684 150.546 93.4822 146.67 93.7084C146.392 92.7808 146.119 91.868 145.846 90.9551C153.648 90.2226 160.763 87.1932 168.077 84.8264C181.516 81.058 194.521 75.9438 207.59 71.0991C212.625 69.591 217.702 68.1668 222.833 67.0312L223.26 66.2614C224.935 65.5835 226.624 64.9012 228.248 64.1099C228.378 65.4026 228.464 66.7084 228.511 68.0422Z" fill="#FFAE00"/>
<path d="M158.633 72.685C161.305 70.779 164.205 69.215 167.266 68.0296C173.504 65.3594 179.877 63.0169 186.359 61.0117C192.366 59.2126 198.422 57.5754 204.228 55.2108C205.597 54.8007 205.982 53.1933 205.85 51.9492C205.033 45.1504 202.246 38.8453 199.894 32.4904C198.706 29.3806 197.079 26.4664 196.141 23.2817C195.731 21.0737 194.488 19.108 192.668 17.7919C190.363 17.4875 188.148 18.5038 185.909 18.9017C180.274 19.9635 174.954 22.1825 169.492 23.8185C164.383 25.3487 159.013 26.3311 154.208 28.5562C151.688 29.7284 149.103 30.743 146.574 31.8857C146.023 32.0694 145.556 32.4445 145.258 32.9429C144.96 33.4414 144.85 34.0302 144.949 34.6026C148.079 46.5006 151.194 58.403 156.224 69.7322C156.774 70.8982 157.601 71.912 158.633 72.685V72.685ZM147.22 34.5801C150.081 33.4184 152.871 32.342 155.647 31.1096C160.016 29.1434 164.746 28.224 169.214 26.5331L170.686 26.0921C175.427 24.5117 180.071 22.6074 184.796 20.9195C187.267 19.9549 189.953 20.3537 192.599 20.187C194.389 23.4855 195.154 27.2193 196.836 30.5825C199.688 37.9108 202.823 45.2186 204.257 53.0041C196.638 55.7991 188.723 57.6563 181.056 60.2894C180.075 60.5834 179.057 60.9362 178.004 61.3479C171.559 63.936 164.829 65.9998 158.89 69.6878C153.641 58.3762 150.272 46.4854 147.161 34.5977L147.22 34.5801Z" fill="#FFAE00"/>
<path d="M165.994 36.5148C168.426 35.2883 171.003 34.3711 173.663 33.7846C174.761 33.5021 175.906 33.4545 177.023 33.6448C177.391 33.695 177.763 33.76 178.14 33.8396C180.158 34.1774 182.204 34.3169 184.249 34.2561C184.076 33.2242 183.618 32.2612 182.926 31.476C182.235 30.6908 181.337 30.1147 180.336 29.8128C177.587 28.8713 174.6 28.8891 171.863 29.8634C169.902 30.4933 167.987 31.2598 166.132 32.1573C162.653 33.6647 160.774 37.1955 159.474 40.5691C158.982 41.5508 159.792 42.4316 160.273 43.2341C162.008 40.8853 163.515 38.2037 165.994 36.5148Z" fill="#FFAE00"/>
<path d="M114.43 75.5756C115.593 72.3875 113.637 69.3951 112.491 66.5298C115.759 65.5508 118.944 64.2921 122.239 63.4015C125.045 62.73 127.774 61.7676 130.38 60.5301C131.728 59.2441 130.971 57.1444 130.412 55.7073C129.853 54.2702 128.835 52.2647 127.083 52.7894C121.008 53.9349 115.542 56.6308 109.788 58.5788C108.828 56.2833 107.892 53.3709 105.298 52.479C103.888 52.8052 103.185 54.1549 102.332 55.1644C100.844 57.2144 99.059 58.9684 97.5241 60.9684C96.82 61.8852 96.0406 63.1936 96.7864 64.3982C98.1589 66.7307 100.957 67.6094 102.963 69.2709C106.358 71.9283 109.878 75.1098 114.43 75.5756ZM105.456 54.7742C106.323 56.5703 107.085 58.4155 107.737 60.3003C108.023 61.2573 109.118 62.0204 110.109 61.4188C115.747 59.1366 121.363 56.7808 126.92 54.2821C127.553 55.6972 128.187 57.2241 128.753 58.7392C124.84 60.2478 120.728 61.1425 116.822 62.6173C114.571 63.2166 112.403 64.0923 110.367 65.2244C110.286 68.0083 112.259 70.4176 112.916 73.0929C110.286 72.1825 107.853 70.7827 105.744 68.9675C103.385 66.9304 100.508 65.6262 98.1986 63.542C100.566 60.5708 103.17 57.8014 105.456 54.7742Z" fill="#FFAE00"/>
<path d="M125.279 69.3756C124.861 69.8539 124.133 70.2643 124.426 71.027C124.757 73.2311 125.203 75.4166 125.761 77.5743C119.069 79.1773 113.127 82.9625 106.383 84.3888C107.172 87.0244 106.937 90.0952 108.764 92.3396C112.416 91.4009 116.003 90.2247 119.502 88.8188C122.986 87.4866 126.239 85.4374 129.926 84.622C131.438 86.351 131.499 88.9642 133.477 90.4255C134.895 85.4119 137.481 80.7066 138.152 75.4999C134.573 72.336 129.208 72.3703 125.279 69.3756ZM133.22 85.1756C132.352 83.8311 131.08 81.8858 129.199 82.465C125.677 83.7156 122.226 85.1614 118.864 86.7957C115.937 87.9426 112.947 88.9237 109.909 89.7344C109.677 88.4241 109.441 87.099 109.179 85.7975C115.652 84.212 121.558 80.951 128.1 79.3287C128.222 76.7893 127.245 74.3863 126.815 71.932C130.091 73.3895 133.587 74.348 136.831 75.9114C135.624 79.1129 134.498 82.2098 133.238 85.2345L133.22 85.1756Z" fill="#FFAE00"/>
<path d="M96.5911 95.2454C95.7599 90.8094 94.3059 86.5439 93.1802 82.1961C91.2008 74.4619 87.0171 67.5643 84.2558 60.1124C81.76 54.7791 79.974 49.1369 77.2705 43.9139C75.7968 43.8792 74.3335 44.1695 72.9847 44.7643C66.2484 47.1829 59.3622 49.1009 52.4599 50.9114C37.096 54.7908 22.498 61.1203 8.06637 67.5764C6.45402 68.3 7.0861 70.3569 7.53305 71.635C10.1032 78.5023 11.4734 85.8093 14.6546 92.4134C17.3903 98.0119 19.2512 104.065 21.7189 109.84C23.2395 113.363 24.1446 117.135 25.6902 120.636C24.3632 123.236 22.7483 125.678 20.8758 127.918C19.5561 129.404 20.5002 131.431 20.8366 133.144C21.2467 134.513 22.1924 136.492 23.9312 136.084C30.9346 135.414 37.3841 132.359 44.0539 130.362C50.0685 128.641 55.8347 126.144 61.7963 124.246C69.4101 121.596 77.0548 119.05 84.7979 116.779C91.3341 114.228 98.3715 113.243 104.89 110.633C105.768 110.082 107.334 109.901 107.388 108.634C107.651 106.405 107.643 104.129 107.838 101.889C103.682 100.438 100.288 97.5717 96.5911 95.2454ZM14.7611 85.0011C13.3103 80.157 11.9479 75.2865 10.4087 70.4689C23.8041 63.7133 37.8065 58.2357 52.2302 54.1089C60.32 52.1993 68.2896 49.8124 76.0973 46.9607C79.0591 53.7429 81.9104 60.6384 84.6337 67.5882C86.9806 72.3662 88.8863 77.3484 90.327 82.473C91.323 87.0843 93.1332 91.4677 93.8598 96.1437C87.5434 97.875 81.4049 100.147 75.2076 102.275C68.1961 104.472 61.2743 106.914 54.3923 109.488C45.3486 112.935 36.133 115.807 27.0938 119.269C25.2656 112.307 22.5629 105.64 20.1546 98.8847C18.5403 94.1377 16.1854 89.7569 14.7611 85.0011ZM105.46 107.767C104.04 108.385 102.616 108.988 101.188 109.576L101.106 108.766C97.8876 109.923 94.6093 110.905 91.2852 111.708C77.8084 116.209 64.3036 120.671 51.0003 125.698C45.4169 127.788 39.6408 129.341 34.0221 131.313C30.7274 132.539 27.2682 133.266 23.7587 133.472C23.4809 132.544 23.2075 131.631 22.9341 130.719C30.7369 129.986 37.8518 126.957 45.1651 124.59C58.6048 120.821 71.6284 115.718 84.7079 110.854C89.7434 109.346 94.8054 107.926 99.9511 106.786L100.378 106.016C102.053 105.338 103.741 104.656 105.366 103.865L105.46 107.767Z" fill="#FFAE00"/>
<path d="M35.5808 112.412C37.7669 110.835 40.1128 109.492 42.5798 108.406C47.6893 106.234 52.8766 104.216 58.0993 102.314C65.9206 99.7152 74.0095 97.9023 81.6162 94.6936C82.9783 93.8845 82.8968 91.9515 82.6619 90.5779C81.0467 81.435 77.0463 73.0064 73.576 64.4192C72.7056 61.8881 72.0931 58.8787 69.6191 57.4216C67.2844 57.1261 65.0212 58.1409 62.8157 58.5447C57.1959 59.602 51.8907 61.8167 46.4282 63.4527C41.3264 65.0609 35.9497 65.9652 31.1199 68.214C28.6138 69.3817 26.0591 70.3875 23.5441 71.5258C22.9816 71.7063 22.5042 72.0856 22.2013 72.5928C21.8984 73.0999 21.7907 73.7001 21.8984 74.2809C25.0139 86.1833 28.1294 98.0858 33.1737 109.411C33.7279 110.587 34.5528 111.615 35.5808 112.412V112.412ZM24.0801 74.3334C26.9411 73.1718 29.7063 72.119 32.4628 70.8762C36.8566 68.8864 41.621 67.973 46.1178 66.2732L47.8257 65.7617C52.4593 64.1974 57.0004 62.324 61.5928 60.6758C64.0827 59.7215 66.7839 60.1158 69.3956 59.9433C71.1857 63.2418 71.9363 66.98 73.6321 70.3388C76.4847 77.6671 79.62 84.9749 81.0533 92.7603C73.46 95.5319 65.5787 97.3949 57.9369 100.004C56.8916 100.318 55.8314 100.635 54.8258 101.081C48.3706 103.688 41.6256 105.756 35.672 109.448C30.8164 98.0944 26.9384 86.3468 24.0801 74.3334V74.3334Z" fill="#FFAE00"/>
<path d="M40.8128 78.1304C43.4965 74.9841 47.8456 74.2913 51.6354 73.2846C52.7312 73.2794 53.8259 73.3537 54.9109 73.5069C56.9819 73.8785 59.0867 74.028 61.1895 73.9529C60.8545 72.6949 60.2213 71.5362 59.3435 70.5749C58.0315 69.6891 56.5224 69.1385 54.9483 68.9712C52.9861 68.6577 50.977 68.8245 49.0933 69.4572C47.1805 70.0949 45.3012 70.8291 43.4627 71.657C39.8052 73.1054 37.7675 76.7481 36.3924 80.1923C35.915 81.1696 36.7242 82.0503 37.1905 82.8573C38.3852 81.3283 39.4827 79.6358 40.8128 78.1304Z" fill="#FFAE00"/>
<path d="M54.7346 75.4368C53.5717 75.3792 52.4068 75.5008 51.2808 75.7973C48.2183 76.5541 45.0085 77.6759 42.9537 80.1364C41.4791 82.0701 40.3958 84.8814 41.9376 87.083C43.2513 84.7734 45.2471 82.9266 47.6516 81.7957C50.056 80.6648 52.7513 80.3053 55.3681 80.7663L55.6876 80.815C57.2597 81.0188 58.8554 80.7043 60.2326 79.9191C59.8817 78.5419 59.1459 77.2931 58.1114 76.3187C57.0704 75.7644 55.9137 75.4623 54.7346 75.4368V75.4368Z" fill="#FFAE00"/>
<path d="M57.6684 82.0176C56.897 81.6957 56.068 81.5345 55.2322 81.5439C53.0393 81.7543 50.9173 82.4336 49.0099 83.5358C47.8991 84.1427 46.9735 85.0391 46.3312 86.1298C45.6889 87.2205 45.354 88.4647 45.362 89.7305C45.4615 90.92 46.555 91.7317 47.1772 92.6845C48.4502 90.5063 49.6468 87.9659 52.2455 87.1073C52.9795 86.6478 53.8239 86.3949 54.6897 86.3753C56.5962 86.2054 58.6202 86.8026 60.4534 86.0129C59.849 84.4771 59.3287 82.5793 57.6684 82.0176Z" fill="#FFAE00"/>
<path d="M54.858 88.3316C54.0313 88.4346 53.2579 88.7953 52.6478 89.3626C50.2322 92.0114 53.3803 97.1654 56.7078 96.1688C56.9033 96.126 57.0953 96.0686 57.2821 95.9968C58.0402 95.1805 58.5319 94.1527 58.6918 93.0502C58.8517 91.9476 58.6721 90.8225 58.177 89.8244C57.8397 89.2691 57.3419 88.8292 56.7493 88.5627C56.1567 88.2961 55.4973 88.2156 54.858 88.3316Z" fill="#FFAE00"/>
</g>
<defs>
<clipPath id="clip0_780_1566">
<rect width="221.587" height="77.0491" fill="white" transform="translate(0 63.5742) rotate(-16.6728)"/>
</clipPath>
</defs>
</svg>
