<svg width="256" height="316" viewBox="0 0 256 316" fill="none" xmlns="http://www.w3.org/2000/svg">
<path d="M242.156 243.638C237.487 247.217 233.353 251.405 228.582 254.849C223.209 258.57 218.86 263.887 212.723 266.482C208.96 267.896 204.893 268.308 200.923 267.677C184.454 265.846 167.964 263.869 151.791 260.432C145.52 259.156 139.104 258.277 132.991 256.408C128.139 254.879 123.126 253.839 118.399 251.953C114.309 250.483 110.555 248.253 106.537 246.653C103.024 245.209 101.082 241.702 99.8823 238.296C99.6316 235.951 99.7593 233.581 100.261 231.276C96.5715 231.299 92.8843 231.098 89.2194 230.675C85.3572 230.051 81.7896 228.226 79.0225 225.46C70.5096 217.193 63.4259 207.638 55.9772 198.441C52.0613 193.467 48.5971 188.136 44.428 183.36C40.4438 178.98 36.8079 174.297 33.5536 169.351C29.5748 163.007 24.2945 157.509 20.8844 150.799C19.2541 147.76 20.377 144.264 21.0898 141.143C22.2749 136.059 24.9565 131.483 26.168 126.423C27.4293 122.389 29.9045 118.843 33.2559 116.268C38.9162 111.701 45.2251 108.045 51.2764 104.02C61.6128 97.0927 71.857 90.0106 82.1333 82.9681C90.2421 77.541 97.8941 71.4412 106.153 66.2333C113.324 61.8434 120.411 57.2269 127.472 52.6368C133.612 48.8028 139.457 44.408 146.148 41.6411C149.464 40.2 153.164 38.2204 156.847 39.5664C163.095 41.7973 167.671 46.9728 171.707 52.0395C176.213 57.8599 179.336 64.6769 183.61 70.5666C189.089 78.2605 194.1 86.2665 199.04 94.3158C203.093 100.58 206.747 107.114 211.192 113.094C213.508 116.772 216.356 120.08 218.611 123.781C221.205 127.975 224.81 131.929 224.766 137.122C225.982 137.34 227.198 137.558 228.433 137.734C239.536 138.639 250.628 139.376 261.712 140.46C274.944 142.051 288.158 143.219 301.231 145.35C304.572 145.826 308.068 146.623 310.681 149.021C311.898 154.277 313.888 159.435 314.026 164.887C314.17 167.998 312.221 170.615 310.581 173.049C308.171 176.32 305.634 179.483 303.119 182.707C298 189.05 292.096 194.671 286.63 200.73C280.444 207.626 273.725 214.014 267.206 220.569C262.466 225.344 257.355 229.724 252.635 234.508C249.356 237.788 245.854 240.838 242.156 243.638ZM261.596 209.983C264.509 207.55 267.229 204.892 269.729 202.036C270.627 201.169 269.834 199.916 269.784 198.903C262.798 204.944 256.453 211.692 249.435 217.693C250.138 217.964 250.832 218.256 251.508 218.641C255.272 216.139 258.235 212.782 261.596 209.983ZM23.5918 148.14C24.8426 152.146 27.7042 155.397 29.9919 158.862C34.6763 165.115 38.1364 172.236 43.2837 178.162C47.326 182.859 51.1894 187.692 54.8739 192.661C61.617 201.071 68.5659 209.387 76.0424 217.18C79.2176 220.211 82.1372 223.664 86.0995 225.714C88.2032 226.603 90.466 227.054 92.7496 227.039C91.0902 224.338 88.236 222.769 86.295 220.327C82.2941 215.402 78.3933 210.423 74.1694 205.684C66.3896 196.938 59.0653 187.798 51.5672 178.792C44.3984 170.478 38.0508 161.489 32.613 151.953C29.6179 146.357 27.3931 140.382 25.9991 134.19C24.4594 138.655 23.6424 143.337 23.5788 148.059L23.5918 148.14ZM196.13 94.2128C191.361 86.994 186.607 79.7695 181.39 72.8722C175.526 65.2528 171.376 56.3245 164.276 49.6813C160.889 46.2648 156.66 42.2502 151.509 43.5663C142.113 45.7232 134.309 51.6906 126.213 56.5971C115.661 63.5012 104.67 69.7781 94.5773 77.4058C82.6388 86.2195 70.3676 94.5551 58.258 103.14C51.7656 107.828 44.8765 111.958 38.4649 116.77C34.5818 119.644 30.7575 123.183 29.3317 127.945C28.3316 131.31 29.512 134.757 30.4138 137.964C33.4497 149.027 40.1903 158.538 46.9469 167.631C54.0565 176.61 61.6783 185.209 69.1205 193.926C76.2549 202.001 83.6463 209.842 90.1664 218.439C91.9768 221.267 94.1273 223.862 96.5696 226.167C97.2087 226.706 97.9931 227.044 98.8239 227.139C99.6548 227.233 100.495 227.08 101.239 226.698C104.964 225.156 108.493 223.086 112.293 221.791C115.538 220.806 118.143 218.564 120.989 216.833C124.728 214.495 128.438 212.082 132.021 209.509C138.339 204.955 144.991 200.879 151.114 196.123C161.603 188.038 172.665 180.703 183.187 172.657C192.531 165.188 202.218 158.227 210.713 149.819C213.941 146.897 217.017 143.812 219.928 140.574C221.493 138.495 222.867 135.765 221.874 133.143C213.823 119.837 204.743 107.137 196.147 94.1204L196.13 94.2128ZM272.236 144.985C261.807 143.348 251.333 142.192 240.843 141.042C235.259 140.455 229.796 139.084 224.077 139.477C222.997 141.581 221.614 143.516 219.972 145.219C217.928 147.442 215.601 149.46 213.484 151.625C205.019 160.16 195.396 167.389 186.062 174.975C175.307 183.503 163.943 191.225 153.188 199.753C147.401 204.35 141.144 208.331 135.186 212.699C131.313 215.552 127.326 218.24 123.249 220.824C120.647 222.741 117.894 224.445 115.017 225.919C111.422 227.395 107.926 229.092 104.431 230.79C107.934 232.859 111.599 234.641 115.391 236.116C120.876 238.253 126.519 239.958 132.27 241.216C141.803 243.854 151.475 245.96 161.241 247.523L165.086 248.104C170.193 248.885 175.314 249.661 180.409 250.55C186.477 251.558 192.552 252.908 198.732 252.739C202.799 252.548 206.666 250.919 209.644 248.143C216.86 242.119 223.75 235.822 230.528 229.36C234.749 225.363 239.279 221.733 243.852 218.172L244.399 217.745C249.796 213.534 254.828 208.806 259.751 204.152C266.941 197.365 274.644 191.125 281.491 184.018C287.254 178.02 293.308 172.292 298.65 165.9C301.714 162.48 304.349 158.698 306.495 154.638C307.044 153.409 307.305 152.071 307.257 150.725C295.658 147.89 283.894 146.733 272.27 144.938L272.236 144.985Z" fill="#AC51FF"/>
<path d="M203.143 149.577C196.126 154.288 189.62 159.772 182.602 164.432C172.52 171.488 162.678 178.867 152.899 186.275C147.89 190.187 143.077 194.352 137.945 198.12C133.025 201.672 128.471 205.793 123.353 209.092C120.534 211.088 117.609 212.929 114.59 214.608C113.002 215.462 111.253 215.974 109.455 216.11C107.657 216.246 105.851 216.004 104.152 215.398C99.0639 213.372 95.0851 209.522 91.0642 205.929C87.0432 202.335 83.0911 198.372 79.271 194.395C74.4537 189.309 69.23 184.564 64.8795 179.116C61.2212 174.51 57.0867 170.288 53.6212 165.508C51.491 162.466 49.2172 159.546 46.983 156.594C42.6153 150.123 38.9635 143.196 36.0919 135.936C35.0993 133.64 36.7361 131.431 38.136 129.74C41.9338 125.214 46.3235 121.219 51.1869 117.864C53.8928 115.893 57.3977 115.053 60.0775 112.92C69.4015 106.507 78.7087 100.049 88.076 93.706C99.2615 85.8262 110.812 78.4641 121.809 70.3103C129.627 65.0259 137.765 60.1384 146.106 55.6568C149.237 54.0437 151.826 51.0674 155.325 50.4869C155.894 50.5398 156.445 50.7168 156.939 51.0054C157.433 51.294 157.857 51.6872 158.183 52.1573C159.898 54.57 161.389 57.1352 162.636 59.8206C164.298 62.7417 166.168 65.5399 168.23 68.1939C173.755 75.7333 178.437 83.8272 183.682 91.5395C187.504 97.1848 190.938 103.129 194.89 108.709C199.487 115.235 203.236 122.3 207.833 128.827C210.163 131.897 211.467 135.624 211.558 139.478C209.73 143.551 206.819 147.044 203.143 149.577ZM107.968 198.396C110.852 198.474 113.256 196.754 115.485 195.167C121.711 190.733 127.681 185.982 133.977 181.643C132.711 180.137 131.445 178.63 130.203 177.098C134.228 171.557 140.427 168.389 145.618 164.135C149.248 161.434 153.029 158.941 156.941 156.668C159.882 154.844 163.031 153.377 166.32 152.299C167.762 153.585 169.204 154.871 170.612 156.204C176.348 152.348 181.877 148.26 187.592 144.395C189.498 143.462 188.362 141.288 187.652 139.936C181.315 129.293 173.887 119.367 167.183 108.982C163.062 103.087 160.134 96.4724 155.918 90.647C154.337 88.4325 152.695 86.2406 151.124 84.0054C146.255 88.0196 140.74 91.174 135.583 94.831C127.014 100.361 118.693 106.28 110.242 111.989C105.961 114.856 101.734 117.823 97.62 120.954C91.9208 125.277 85.8416 129.089 79.9881 133.229C75.6719 136.556 71.2844 139.738 66.6994 142.666C70.4448 147.26 73.9139 152.073 77.0882 157.079C84.6562 168.886 93.0865 180.118 102.31 190.683C104.4 193.017 105.565 196.144 107.968 198.396ZM133.061 177.014C134.066 178.05 135.071 179.086 136.061 180.128C142.328 175.713 148.808 171.546 155.034 167.112C159.818 163.611 164.587 160.115 169.513 156.854L166.057 154.409C160.814 156.172 156.415 159.598 151.745 162.438C148.047 164.744 144.867 167.751 141.249 170.182C138.256 172.124 135.508 174.417 133.061 177.014V177.014ZM65.1643 140.899C70.0695 137.352 74.8281 133.551 79.7221 129.975C85.4791 125.991 91.3903 122.19 97.0081 118.017C103.117 113.455 109.565 109.386 115.879 105.143C127.149 97.3524 138.806 90.2772 150.271 83.1017C149.123 81.3108 148.005 79.5086 146.886 77.7064C143.176 79.2427 140.031 81.7896 136.513 83.7017C129.15 87.8535 122.242 92.7647 115.02 97.1564C102.474 104.734 90.3632 113.01 78.7447 121.946C72.8828 126.433 66.8818 130.731 60.6383 134.656C62.2237 136.697 63.7393 138.781 65.1643 140.899ZM155.967 53.4123C154.262 54.1927 152.639 55.1426 151.124 56.2476C146.043 60.0142 140.091 62.3678 134.789 65.7698C128.277 69.4479 121.992 73.5114 115.965 77.9384C97.733 90.1273 79.494 102.25 60.9429 113.905C57.0466 116.225 53.4202 118.971 50.1302 122.093C46.0337 125.871 41.777 129.589 38.8382 134.398L39.1856 135.885C49.7265 127.798 61.0629 120.739 72.0156 113.204C82.0927 106.597 91.8315 99.4964 101.754 92.7059C109.119 87.5902 116.512 82.55 123.847 77.4455C131.182 72.341 139.38 68.0327 147.013 62.9893C150.674 60.6285 154.456 58.4982 158.252 56.2245C157.46 55.2983 156.759 54.3384 155.967 53.4123Z" fill="#AC51FF"/>
<path d="M74.3864 148.162C72.8416 147.292 70.8392 145.286 72.2148 143.484C73.2834 142.244 74.5607 140.547 76.3972 140.86C78.9322 141.017 80.6102 143.815 80.6557 146.154C80.2078 148.969 76.479 149.532 74.3864 148.162ZM76.5591 141.849C75.4481 142.607 74.339 143.415 73.2769 144.258C74.0005 145.416 74.6647 146.923 76.1827 147.166C77.4024 147.486 78.363 146.509 79.3243 145.996C78.7683 144.402 77.8168 142.975 76.5591 141.849V141.849Z" fill="#AC51FF"/>
<path d="M80.3836 141.592C79.585 139.448 80.3609 135.943 83.1526 136.004C84.5339 135.928 85.9061 136.268 87.0928 136.979C87.8075 137.659 88.3122 138.529 88.547 139.488C88.7818 140.446 88.737 141.451 88.4177 142.384C86.8053 145.444 81.2261 145.148 80.3836 141.592ZM86.1649 137.72C85.4639 137.49 84.7182 137.432 83.9902 137.551C83.2622 137.669 82.5733 137.961 81.9813 138.401C82.2268 139.891 81.6134 142.493 83.6235 142.811C84.9735 143.065 87.2213 142.589 87.1668 140.872C87.2138 139.736 86.8591 138.62 86.1649 137.72V137.72Z" fill="#AC51FF"/>
<path d="M111.891 164.449C112.19 165.851 110.732 166.601 109.857 167.391C105.911 170.236 102.569 174.008 97.8797 175.686C99.9273 169.592 106.297 166.515 111.891 164.449Z" fill="#AC51FF"/>
<path d="M99.4904 152.588L100.34 153.252C96.9707 157.275 92.1998 159.843 87.7155 162.441C90.2634 157.829 94.9671 154.943 99.4904 152.588Z" fill="#AC51FF"/>
<path d="M88.7219 167.728C91.9917 161.729 98.6676 159.244 104.57 156.667C102.583 158.694 100.359 160.475 97.9463 161.971C95.0194 164.118 91.936 166.042 88.7219 167.728V167.728Z" fill="#AC51FF"/>
<path d="M107.338 162.205C103.374 166.25 98.663 169.488 93.4661 171.739C96.1246 165.761 102.834 163.641 107.827 160.148C107.754 160.829 107.952 161.684 107.338 162.205Z" fill="#AC51FF"/>
<path d="M113.259 172.192C110.33 174.204 107.17 175.86 103.848 177.124C106.958 172.681 112.09 170.391 116.781 168.025C116.415 169.951 114.626 171.012 113.259 172.192Z" fill="#AC51FF"/>
<path d="M268.455 156.865C266.855 158.803 264.786 160.313 263.08 162.152C260.44 164.854 258.247 168.062 255.919 171.095C252.332 175.871 248.21 180.089 244.368 184.598C243.623 185.46 242.872 186.307 242.106 187.16C239.075 190.473 235.898 193.582 232.599 196.685C227.021 201.978 221.944 207.789 216.339 213.058C213.488 215.84 210.456 218.413 207.5 221.096C202.88 225.224 198.704 229.806 193.926 233.786C191.836 235.562 189.561 237.905 186.546 237.429C180.501 236.807 174.419 236.269 168.388 235.591C158.571 234.625 148.894 232.557 139.539 229.427C136.207 228.192 132.304 229.026 129.332 226.865C129.103 224.817 131.344 224.138 132.672 223.179C136.413 220.616 140.047 217.905 143.799 215.372C154.059 208.285 163.4 200.025 173.334 192.525C182.759 185.116 191.662 177.066 199.98 168.432C203.534 165.183 206.713 161.574 210.188 158.251C214.229 154.648 217.563 150.345 221.256 146.408L221.601 146.039C222.238 145.44 222.945 144.661 223.921 145.02C228.542 146.343 233.132 147.816 237.809 148.877C244.337 149.921 250.965 150.308 257.555 151.655C260.579 152.248 263.694 152.808 266.749 153.253C268.416 153.251 269.763 155.622 268.455 156.865ZM257.407 165.76C255.566 165.246 253.677 164.923 251.769 164.799C248.838 167.042 246.27 169.753 243.473 172.17C245.91 172.759 248.363 173.342 250.751 174.12C253.106 171.438 255.288 168.613 257.407 165.76ZM190.454 207.235C193.245 204.614 196.009 201.968 198.778 199.338C196.257 198.385 193.809 197.215 191.242 196.417C187.942 198.918 185.132 201.994 181.966 204.669C184.794 205.474 187.568 206.367 190.454 207.235ZM180.537 205.958C177.303 208.727 174.031 211.579 170.905 214.36C174 215.099 177.117 215.848 180.222 216.566C183.091 214.019 185.897 211.392 188.719 208.81C186.028 207.817 183.297 206.857 180.537 205.958ZM200.611 197.469C203.049 195.15 205.441 192.798 207.854 190.455C205.207 189.721 202.572 188.879 199.95 187.981C197.536 190.273 195.106 192.57 192.666 194.838C195.333 195.719 197.994 196.585 200.641 197.457L200.611 197.469ZM209.729 188.656C212.162 186.323 214.601 184.004 217.013 181.661C214.252 180.866 211.503 180.056 208.764 179.229C206.395 181.642 203.994 184.015 201.604 186.419C204.324 187.212 207.046 187.918 209.759 188.645L209.729 188.656ZM218.675 180.028C221.748 177.009 224.756 173.911 227.791 170.838C224.812 170.227 221.818 169.622 218.778 169.034C215.885 171.934 212.972 174.825 210.158 177.799C213.031 178.587 215.861 179.304 218.705 180.017L218.675 180.028ZM221.431 180.825C223.957 181.604 226.482 182.194 229.07 182.864C232.429 179.739 235.789 176.613 239.095 173.439L230.506 171.478C227.465 174.536 224.479 177.695 221.461 180.813L221.431 180.825ZM219.686 182.558C217.33 184.914 214.895 187.197 212.577 189.608C214.807 190.175 216.941 191.066 218.911 192.254L226.86 184.874C224.489 184.14 222.027 183.44 219.728 182.577L219.686 182.558ZM210.636 191.414C208.303 193.693 205.969 195.972 203.663 198.276C205.8 199.028 207.932 199.764 210.136 200.371C212.542 198.151 214.917 195.891 217.397 193.729C215.108 193.089 212.861 192.312 210.666 191.403L210.636 191.414ZM201.542 200.338C198.838 202.961 196.134 205.585 193.372 208.144C195.305 208.714 197.327 209.251 199.301 209.84C202.178 207.496 204.917 205.015 207.697 202.552C205.696 201.749 203.645 200.999 201.572 200.327L201.542 200.338ZM191.541 209.875C188.822 212.366 186.141 214.912 183.402 217.394C185.312 217.904 187.227 218.429 189.043 219.009L197.169 211.735L191.541 209.875ZM181.414 219.166C179.051 221.181 176.634 223.096 174.155 224.982C176.176 225.468 178.182 225.959 180.178 226.471C182.397 224.579 184.755 222.875 186.971 221.018C185.163 220.367 183.306 219.769 181.455 219.185L181.414 219.166ZM178.224 218.221C175.257 217.366 172.286 216.546 169.325 215.705C166.726 217.963 164.059 220.039 161.478 222.067C164.477 222.824 167.509 223.484 170.522 224.185C173.118 222.29 175.705 220.277 178.224 218.221ZM166.057 215.013C164.044 214.455 162.009 214.026 159.975 213.597C157.433 215.73 155.094 218.132 152.473 220.191L158.084 221.404C160.794 219.26 163.509 217.269 166.057 215.013ZM167.675 213.585C170.998 210.731 174.3 207.868 177.55 204.955C175.908 204.38 174.261 203.789 172.647 203.152C168.981 206.237 165.348 209.412 161.587 212.429L167.675 213.585ZM178.861 203.813C182.045 200.908 185.198 198.014 188.411 195.235L183.464 193.449C180.22 196.376 177.036 199.282 173.672 202.254C175.389 202.801 177.125 203.307 178.861 203.813V203.813ZM189.808 193.907L197.285 187.012C195.688 186.391 194.044 185.899 192.369 185.541C189.696 187.602 187.199 190.132 184.711 192.365C186.426 192.861 188.127 193.363 189.808 193.907ZM198.901 185.533C201.287 183.166 203.841 180.788 206.231 178.384C204.759 177.849 203.293 177.329 201.817 176.829C199.192 179.263 196.547 181.675 193.883 184.066C195.562 184.558 197.242 185.05 198.931 185.522L198.901 185.533ZM207.575 177.144C210.471 174.346 213.328 171.442 216.276 168.642L211.347 167.553C208.602 170.295 205.872 173.032 203.062 175.694L207.575 177.144ZM217.911 167.121C221.019 164.244 224.304 161.473 227.31 158.462C225.669 157.841 223.975 157.372 222.248 157.062C219.089 160.079 215.889 163.076 212.777 166.127L217.911 167.121ZM220.491 167.537C223.47 168.147 226.464 168.752 229.443 169.363C232.279 166.587 235.145 163.8 237.996 161.018C235.364 160.279 232.748 159.533 230.063 159.019C229.345 158.754 228.915 159.584 228.406 159.929C225.788 162.365 223.143 164.915 220.493 167.45L220.491 167.537ZM232.041 169.737C235.02 170.347 238.014 170.952 241.027 171.653C243.774 169.1 246.594 166.605 249.399 164.116C246.276 163.272 243.166 162.401 240.068 161.502C237.389 164.237 234.736 166.996 232.041 169.737ZM233.218 192.894C238.747 187.631 243.977 182.061 248.881 176.21C246.461 175.391 243.974 174.718 241.493 174.059C232.731 182.459 223.845 190.726 214.836 198.862C213.675 199.947 212.17 200.938 211.862 202.652C207.803 204.267 205.112 207.986 201.661 210.544C205.049 211.604 208.453 212.572 211.81 213.644C219.293 207.091 225.862 199.606 233.218 192.894ZM209.44 215.73C206.075 214.73 202.708 213.679 199.412 212.447C196.751 214.814 194.027 217.153 191.467 219.654C194.871 220.622 198.221 221.765 201.646 222.743C204.189 220.334 206.801 218.02 209.44 215.73ZM194.171 229.688C195.963 228.126 197.706 226.48 199.44 224.854C196.015 223.876 192.65 222.739 189.261 221.765C187.176 223.694 184.951 225.433 182.834 227.322C186.554 228.259 190.389 228.86 194.171 229.688V229.688ZM186.067 234.666C188.349 235.02 189.959 233.062 191.61 231.863C188.006 231.003 184.38 230.135 180.815 229.106C179.139 230.636 177.375 232.068 175.533 233.395C179.107 233.663 182.59 234.241 186.067 234.666ZM172.457 233.078C174.328 231.453 176.164 229.823 177.988 228.164L172.144 226.694C169.421 228.619 166.395 230.193 163.503 231.941C166.521 232.331 169.512 232.696 172.491 233.031L172.457 233.078ZM159.896 231.444C162.751 229.504 165.692 227.703 168.59 225.833L159.724 223.545C156.54 225.965 153.092 228.016 149.446 229.66C152.927 230.324 156.419 230.881 159.93 231.397L159.896 231.444ZM147.784 228.198C150.719 226.382 153.709 224.667 156.555 222.748L150.899 221.414C148.178 223.992 144.586 225.244 141.63 227.514C143.715 228.079 145.919 229.563 147.818 228.151L147.784 228.198ZM133.518 225.959C135.452 226.117 137.365 226.591 139.325 226.635C142.411 224.947 145.322 222.958 148.018 220.698C146.404 220.198 144.8 219.678 143.208 219.049C139.949 221.243 136.859 223.753 133.553 225.912L133.518 225.959ZM144.415 218.273C146.068 218.741 147.746 219.183 149.407 219.579C152.162 217.556 154.794 215.37 157.288 213.033C156.008 212.598 154.744 212.157 153.462 211.671C150.556 213.888 147.531 216.064 144.479 218.215L144.415 218.273ZM154.79 210.712C156.136 211.194 157.541 211.487 158.967 211.582C162.934 208.651 166.742 205.511 170.375 202.175L167.488 200.567L154.79 210.712ZM168.038 200.104L171.284 201.338C174.573 198.393 177.847 195.454 181.091 192.526C180.411 192.178 179.721 191.85 179.018 191.578C175.386 194.479 171.663 197.275 168.038 200.104ZM180.023 190.722C180.751 190.968 181.499 191.222 182.238 191.497C184.803 189.149 187.374 186.816 189.956 184.513C189.319 184.234 188.658 183.982 187.951 183.746C185.259 186.124 182.595 188.469 179.959 190.781L180.023 190.722ZM189.1 182.768C189.79 182.958 190.476 183.184 191.157 183.395C193.913 180.959 196.663 178.507 199.372 176.037C198.648 175.756 197.925 175.475 197.163 175.139C194.671 177.822 191.9 180.264 189.1 182.768ZM198.264 174.076L200.548 174.945C203.378 172.292 206.176 169.599 208.98 166.921L206.197 166.238C203.625 168.846 200.888 171.379 198.324 174.054L198.264 174.076ZM207.479 164.969L210.382 165.608C213.685 162.469 217.035 159.502 220.384 156.535L216.868 155.729C213.95 158.931 210.503 161.728 207.539 164.947L207.479 164.969ZM224.007 147.929C221.996 150.242 219.813 152.414 217.729 154.669L221.586 155.468C223.921 153.383 226.14 151.173 228.236 148.848L224.007 147.929ZM229.337 149.126C227.537 151.504 225.559 153.741 223.419 155.818C225.267 156.162 227.132 156.551 228.979 156.895C231.405 154.633 233.93 152.454 236.504 150.361C234.143 149.933 231.769 149.561 229.337 149.126V149.126ZM237.649 150.571C235.416 152.795 233.115 154.976 230.929 157.235C233.908 157.846 236.902 158.45 239.821 159.083C242.067 156.802 244.061 154.306 246.243 151.945C243.334 151.429 240.486 151.079 237.649 150.571ZM247.522 152.054C245.662 154.587 243.864 157.148 241.816 159.545C245.096 160.318 248.34 161.225 251.592 162.061C254.394 159.632 257.07 157.062 259.612 154.363C255.65 153.295 251.612 152.534 247.533 152.084L247.522 152.054ZM261.645 154.603C259.302 157.494 256.718 160.182 253.923 162.638L258.838 163.783C261.312 160.91 263.928 158.163 266.676 155.55L261.645 154.603Z" fill="#AC51FF"/>
<path d="M100.153 137.366C99.0355 135.426 96.6541 133.372 97.7576 130.932C100.272 125.352 106.16 122.644 111.06 119.546C117.819 114.605 124.733 109.433 132.633 106.354C133.373 106.078 133.829 107.026 134.313 107.448C137.722 111.522 141.047 115.678 144.288 119.918C146.892 123.402 150.438 126.227 152.146 130.354C153.114 132.952 151.344 135.451 149.631 137.224C146.221 140.145 142.634 142.853 138.892 145.333C133.111 149.691 127.105 153.742 120.898 157.468C120.087 157.888 119.163 158.036 118.262 157.892C117.36 157.748 116.528 157.319 115.888 156.668C112.433 153.722 109.284 150.435 106.49 146.856C104.02 143.872 102.555 140.307 100.153 137.366ZM116.299 154.537C117.227 155.275 118.435 156.579 119.646 155.63C126.309 151.691 132.74 147.372 138.908 142.696C142.077 140.261 145.59 138.196 148.27 135.186C149.482 133.823 150.574 131.765 149.372 130.063C147.273 126.597 144.19 123.858 141.892 120.552C138.861 116.383 135.603 112.437 132.511 108.429C125.212 111.886 118.264 116.04 111.763 120.833C106.945 124.106 100.964 127.072 99.2672 133.138C100.68 135.639 102.61 137.775 104.138 140.216C107.411 145.601 111.515 150.435 116.299 154.537V154.537Z" fill="#AC51FF"/>
<path d="M99.9936 80.7706C96.565 83.6639 92.7246 86.0054 89.1983 88.7286C87.896 89.8499 86.066 89.1383 84.5632 88.8896C85.0554 87.4421 86.0699 86.2304 87.4082 85.4913C91.6637 83.064 96.0159 80.4803 100.55 78.4309C100.403 79.1908 100.844 80.2821 99.9936 80.7706Z" fill="#AC51FF"/>
<path d="M146.874 148.532C140.602 154.234 133.697 159.2 126.295 163.331C130.18 158.755 135.574 155.921 140.251 152.27C142.302 150.802 144.249 148.873 146.874 148.532Z" fill="#AC51FF"/>
<path d="M167.923 238.962C168.192 238.689 168.486 238.441 168.8 238.223C168.835 241.271 167.057 243.842 165.413 246.26C165.303 243.599 166.199 240.993 167.923 238.962V238.962Z" fill="#AC51FF"/>
<path d="M129.464 164.768C135.126 160.115 141.167 155.922 147.252 151.85C142.575 157.659 136.435 162.118 129.464 164.768Z" fill="#AC51FF"/>
<path d="M177.223 240.799C176.785 243.593 174.3 245.327 172.088 246.683C173.099 244.226 174.456 241.588 177.223 240.799Z" fill="#AC51FF"/>
<path d="M177.225 247.587C177.844 246.138 178.757 244.832 179.907 243.753C181.056 242.674 182.416 241.845 183.902 241.317C182.47 244.118 180.11 246.334 177.225 247.587V247.587Z" fill="#AC51FF"/>
<path d="M185.309 243.995C186.404 243.347 187.606 242.899 188.859 242.673C187.78 245.087 185.383 246.41 183.372 247.984C183.632 246.499 184.303 245.117 185.309 243.995V243.995Z" fill="#AC51FF"/>
<path d="M148.428 141.659C149.634 141.443 150.868 141.443 152.074 141.66C152.558 140.471 153.176 139.341 153.916 138.291C156.762 140.671 156.887 144.838 155.864 148.143C152.672 147.422 149.144 146.861 146.726 144.477C146.711 143.894 146.864 143.319 147.166 142.82C147.467 142.321 147.905 141.918 148.428 141.659V141.659Z" fill="#AC51FF"/>
<path d="M131.366 88.4934C132.246 89.5295 132.869 90.7591 133.184 92.0817C131.879 92.0792 130.576 91.9898 129.283 91.8143C129.578 90.5018 130.313 89.3297 131.366 88.4934V88.4934Z" fill="#AC51FF"/>
<path d="M135.609 85.7569C136.805 84.3487 138.293 85.9442 139.503 86.4224L138.79 88.6655C137.497 88.9064 136.161 88.6325 135.067 87.9023C134.906 87.5352 134.872 87.1252 134.97 86.7367C135.069 86.3483 135.293 86.0036 135.609 85.7569Z" fill="#AC51FF"/>
<path d="M143.963 82.0458C144.149 82.5442 144.526 83.5562 144.802 84.0209C144.292 84.4517 143.956 85.3507 143.124 85.196C141.979 85.1235 141.214 84.0842 140.297 83.5143C140.772 82.8523 141.318 82.245 141.927 81.7034C142.611 81.782 143.291 81.8963 143.963 82.0458V82.0458Z" fill="#AC51FF"/>
<path d="M228.06 206.286C233.258 201.564 237.941 196.303 242.029 190.594L243.673 188.589C245.257 186.495 247.267 184.762 249.57 183.503C253.478 182.358 257.447 184.01 261.196 185.073C263.662 185.875 266.92 186.588 267.721 189.386C267.621 190.781 266.5 191.835 265.696 192.908C258.444 201.146 251.106 209.52 242.407 216.319L240.654 217.66C239.473 218.652 238.106 219.397 236.633 219.851C235.159 220.305 233.61 220.459 232.076 220.303C228.503 219.969 224.985 219.193 221.603 217.995C221.018 213.053 224.807 209.372 228.06 206.286ZM234.272 218.35C238.1 217.544 240.827 214.431 243.728 212.061C251.369 205.098 258.415 197.51 264.793 189.375C261.832 188.08 258.791 186.978 255.688 186.075C253.629 185.535 251.152 184.841 249.334 186.378C245.906 188.996 243.409 192.591 240.725 195.912C236.674 201.152 231.597 205.485 227.215 210.436C225.807 212.238 224.756 214.293 224.121 216.49C227.432 217.448 230.825 218.102 234.255 218.443L234.272 218.35Z" fill="#AC51FF"/>
</svg>
